<svg id="圖層_1" data-name="圖層 1" xmlns="http://www.w3.org/2000/svg" viewBox="0 0 20 20"><defs><style>.cls-3,.cls-4,.cls-5{fill-rule:evenodd}.cls-3{fill:#ff2c85}.cls-4{fill:#ff2d85}.cls-5{fill:#fffcfd}</style></defs><path style="fill:#ff2b85" d="M0 0h20v20H0z"/><path d="M17.07 11.21v-.48a5.5 5.5 0 0 0-.14-1.22l-.09-.32a4.44 4.44 0 0 0-.15-.52l-.21-.54a.19.19 0 0 1-.06-.13.31.31 0 0 0-.06-.13 1.22 1.22 0 0 1 0-.27 4.27 4.27 0 0 0 .3-.44 1.73 1.73 0 0 1 .15-.27 1.13 1.13 0 0 1 .08-.24 1.89 1.89 0 0 1 .05-.23 4.44 4.44 0 0 0 0-.63c0-.14 0-.28-.07-.41a.42.42 0 0 1-.06-.14s0 0 0-.06a2.68 2.68 0 0 0-.52-.81.13.13 0 0 0 0-.06c-.06-.06-.12-.1-.18-.15h-.05a2.1 2.1 0 0 0-.5-.29h-.06a2.33 2.33 0 0 0-.5-.24.5.5 0 0 0-.13 0 2.52 2.52 0 0 0-.91 0l-.24.06h-.13l-.16.07-.2.08a1.83 1.83 0 0 0-.36.26.78.78 0 0 1-.5.1 7 7 0 0 0-4.78 0 .81.81 0 0 1-.5-.1 1.83 1.83 0 0 0-.36-.26l-.2-.08-.16-.07h-.12L6 3.63a2.58 2.58 0 0 0-.92 0 .5.5 0 0 0-.13 0 2.54 2.54 0 0 0-.47.14h-.06a2 2 0 0 0-.42.31h-.05a1.39 1.39 0 0 0-.19.15s0 0 0 .06a2.68 2.68 0 0 0-.52.81s0 0-.05.06a.78.78 0 0 1 0 .14 1.85 1.85 0 0 0-.19.47 3.33 3.33 0 0 0 0 .63 1 1 0 0 1 .06.23 2.25 2.25 0 0 1 .08.24 1.71 1.71 0 0 1 .14.27l.3.44a.62.62 0 0 1 0 .27.31.31 0 0 0-.02.15.19.19 0 0 1-.07.12l-.21.54-.15.52a1.92 1.92 0 0 1-.13.33 6.16 6.16 0 0 0-.14 1.22v.48a.27.27 0 0 0 0 .09v.46A.65.65 0 0 1 3 12v.34a.6.6 0 0 1 .06.23.46.46 0 0 1 0 .2.61.61 0 0 1 .05.12 1.25 1.25 0 0 1 .09.25c0 .1.1.19.14.28a6.32 6.32 0 0 0 .36.74 2.54 2.54 0 0 0 .23.34 5.49 5.49 0 0 0 .49.67v.07a.15.15 0 0 1 .09.1c.13.14.28.25.41.37a3.73 3.73 0 0 0 .3.26 6.13 6.13 0 0 0 .9.6l.11.07c.13.07.27.12.4.18a7.78 7.78 0 0 0 1.17.43l.41.08h.19l.37.06.4.05H10.57l.4-.05.38-.06h.18l.41-.08a7.4 7.4 0 0 0 1.17-.43c.14-.06.27-.11.4-.18l.11-.07a6.81 6.81 0 0 0 .91-.6l.29-.26a4.72 4.72 0 0 0 .41-.37.22.22 0 0 1 .09-.1l.05-.07a6.86 6.86 0 0 0 .5-.67c.07-.11.16-.22.23-.34s.25-.49.36-.74c0-.09.09-.18.13-.28a1.25 1.25 0 0 1 .09-.25s0-.08.05-.12a.47.47 0 0 1 .06-.2.59.59 0 0 1 .21-.27c0-.12 0-.23.05-.34a1.18 1.18 0 0 1 0-.2v-.38a.19.19 0 0 1 0-.08.27.27 0 0 1 .02-.09Z" style="fill-rule:evenodd;fill:#fffefe"/><path class="cls-3" d="M15.22 9.44a.79.79 0 0 1-.05-.22c0-.1-.07-.2-.11-.3a.47.47 0 0 1-.1-.2 1.89 1.89 0 0 0-.17-.28l-.12-.13a.77.77 0 0 1-.18-.18 2.8 2.8 0 0 0-2.07-.72 1.32 1.32 0 0 0-.76.31 1 1 0 0 0-.35.61.7.7 0 0 0 0 .29 1 1 0 0 0 .09.38l.65.72.3.39a3.37 3.37 0 0 1 .42.74.23.23 0 0 1 .06.12.35.35 0 0 1 0 .14.5.5 0 0 1 .09.24.93.93 0 0 0 .45.54 1.15 1.15 0 0 0 1-.1 2.14 2.14 0 0 0 .92-2Z"/><path class="cls-4" d="M6.32 4.82a.35.35 0 0 1-.11-.1 1.5 1.5 0 0 0-2 .32 1.07 1.07 0 0 0-.21.53.54.54 0 0 1 0 .22 1.6 1.6 0 0 0 .22.8.23.23 0 0 0 .23.07c.29-.33.59-.65.91-1a6.15 6.15 0 0 1 .9-.66.31.31 0 0 0 .09-.11ZM15.91 5.32a1 1 0 0 0-.22-.32.52.52 0 0 1-.11-.1 1.53 1.53 0 0 0-.79-.37 1.28 1.28 0 0 0-1.12.33.14.14 0 0 0 0 .06.22.22 0 0 0 .09.13 6.84 6.84 0 0 1 1.77 1.58.18.18 0 0 0 .29 0l.18-.32a1.6 1.6 0 0 0-.09-.99Z"/><path class="cls-3" d="M8.58 8.24a1.27 1.27 0 0 0-1-.82 3.94 3.94 0 0 0-.84 0A3.32 3.32 0 0 0 5.6 8a2.29 2.29 0 0 0-.9 1.33 2.7 2.7 0 0 1-.07.41 3 3 0 0 0 .07 1 2.17 2.17 0 0 0 .77 1.09 1.14 1.14 0 0 0 .86.19.67.67 0 0 0 .34-.16 1.5 1.5 0 0 0 .33-.71.32.32 0 0 1 .1-.15 2.92 2.92 0 0 1 .23-.47 9 9 0 0 1 .71-1 3.11 3.11 0 0 0 .52-.62 1.31 1.31 0 0 0 .02-.67Z"/><path class="cls-5" d="M7.32 8.65a.44.44 0 0 1 .49.25c0 .33-.16.48-.49.44a.37.37 0 0 1-.21-.55.49.49 0 0 1 .21-.14ZM12.92 8.86a.81.81 0 0 1 0 .22.38.38 0 0 1-.48.26.39.39 0 0 1-.25-.22 1 1 0 0 1 0-.17.34.34 0 0 1 .25-.29.45.45 0 0 1 .44.12.22.22 0 0 1 .04.08Z"/><path class="cls-4" d="M11 10.87a.54.54 0 0 0-.22-.15 1.94 1.94 0 0 0-.48-.09h-.66a1.74 1.74 0 0 0-.54.15.24.24 0 0 0-.1.32 1.36 1.36 0 0 0 .67.51A1.16 1.16 0 0 0 11 11a.29.29 0 0 0 0-.13ZM12 12.28a.27.27 0 0 0-.27-.16l-.72.15a5.17 5.17 0 0 1-1.36.09 8.83 8.83 0 0 1-1.44-.24h-.12a.2.2 0 0 0-.17.17.58.58 0 0 0 0 .19.36.36 0 0 0 0 .11 1.54 1.54 0 0 0 .39.81.16.16 0 0 1 .11.09 2.21 2.21 0 0 0 .91.51 2.34 2.34 0 0 0 2.35-.69 1.36 1.36 0 0 0 .32-.66 2.26 2.26 0 0 0 0-.25.28.28 0 0 1 0-.12Z"/></svg>