<svg id="圖層_1" data-name="圖層 1" xmlns="http://www.w3.org/2000/svg" viewBox="0 0 20 20"><defs><style>.cls-2{fill:#000001;fill-rule:evenodd}</style></defs><path style="fill:#06c169" d="M0 0h20v20H0z"/><path class="cls-2" d="M16.7 9.3h-.78V5.46h.78v.43a1.07 1.07 0 0 1 .94-.47h.24v.77h-.24c-.66 0-.94.35-.94 1V9.3ZM2.12 4H3v3.25a1.29 1.29 0 1 0 2.58 0V4h.79v5.3h-.83v-.47a2.14 2.14 0 0 1-1.35.58 2.09 2.09 0 0 1-2.07-2.26V4Zm5.66 5.29H7V4h.78v1.93a2.1 2.1 0 0 1 1.44-.53 1.91 1.91 0 0 1 1.94 1.91 2.06 2.06 0 0 1-2 2.11 1.72 1.72 0 0 1-1.37-.59v.46Zm1.3-3.19a1.31 1.31 0 1 0 1.31 1.31A1.31 1.31 0 0 0 9.08 6.1Zm6.31 1.55H12.3a1.35 1.35 0 0 0 1.29 1.08 1.46 1.46 0 0 0 1.1-.59l.53.41a2.12 2.12 0 0 1-3 .4 1.88 1.88 0 0 1-.75-1.61 2 2 0 0 1 2.08-2 1.88 1.88 0 0 1 1.82 2.28ZM14.6 7a1.16 1.16 0 0 0-2.29 0ZM3.16 15v-1.3h2.62v-.9H3.16v-1.29h2.7v-.89H2.14v5.25h3.72V15Zm14.6-1.76h-1a.52.52 0 0 0-.2-.34 1.22 1.22 0 0 0-.6-.23c-.35 0-.75.14-.76.35s.14.28.53.39c.65.19 1.49.11 2 .71s0 1.8-1.57 1.85a1.79 1.79 0 0 1-2-1.36h1a.94.94 0 0 0 .36.41c.34.21 1.34.25 1.4-.23a.22.22 0 0 0-.11-.21 2.33 2.33 0 0 0-.78-.21c-1.23-.17-1.68-.57-1.77-1.08a1 1 0 0 1 .1-.65 1.4 1.4 0 0 1 .28-.36 2.11 2.11 0 0 1 1.36-.47 1.65 1.65 0 0 1 1.76 1.42ZM13.83 15v.89h-1.08a1 1 0 0 1-1-1.07v-1.95H11V12h.74v-1.13h1V12h1.12v.88h-1.15v1.68c0 .37.12.42.47.42Zm-4.28-2.69V12h1v3.87h-1v-.37a2.07 2.07 0 0 1-1.35.5 2.11 2.11 0 0 1-2-2.09 2.11 2.11 0 0 1 2.15-2 2 2 0 0 1 1.19.43Zm-1.18.44a1.17 1.17 0 1 0 1.17 1.16 1.17 1.17 0 0 0-1.17-1.16Z"/></svg>