<svg version="1.1" id="圖層_1_00000005224246316644487120000000440269995490738308_" xmlns="http://www.w3.org/2000/svg" x="0" y="0" viewBox="0 0 141.7 141.7" style="enable-background:new 0 0 141.7 141.7" xml:space="preserve"><style>.st1{fill:#b8925a}</style><path d="M107.5 50.4c-.3-2.4-.6-3.8-.6-3.8-.1-.6-.3-1.2-.3-1.7-.3-1.7-.8-3.3-1.5-4.8-1.3-2.6-2.7-5-5.1-6.8-2.8-2.2-5.8-3.1-9.1-3.5-2.1-.3-4.3-.1-6.3 0-1.4.3-2.5.5-3.3.7-.6.2-1 .3-1.3.3-.4.1-.5.2-.5.2-3.6 1.2-6.9 2.9-9.6 5.8.2 1.1 1.3 1.6 1.6 2.8-1.8-.2-3.7.3-5.5.3-2.8 0-5.5-.3-8.3.3-1.5.3-3 0-4.6.3-1.3.3-2.7.4-3.9.7-2.7.7-5.2 1.5-7.5 3.1-1.2.8-1.7 1.7-1.5 2.8l.7 1.4c.3.8.3 1.5.6 2.2.3.8-.2 1.6.4 2.3-.3 1.6.3 3 .3 4.6l.3 4.8v.2c.5.5.3 1.2.3 1.8.1.6.3 1.2.3 1.8.2 1.5.3 3.1.3 4.6v.2c.5.7.3 1.4.3 2.2-.1.8.3 1.4.3 2.2.2 1.7.3 3.3.3 4.9 0 .1-.1.3 0 .3.6.7.2 1.5.3 2.3.1.8.3 1.5.3 2.3.2 1.3.3 2.5.3 3.8v.2c.6.4.3 1 .3 1.5.1.6.3 1.1.3 1.7.1.9 0 1.8.3 2.7.3.7 0 1.5.1 2.3.1.8.3 1.5.3 2.3 0 1.2.3 2.3.8 3.4.5 1.3 1.3 2.5 2.6 3.2 1.7.8 3.4 1.5 5.2 2.1 1.4.5 2.8 1 4.3 1.5 2.4.8 4.9 1.5 7.4 2.1 1 .3 2.1.4 3.1.8.8.3 1.7.3 2.5.2.8 0 1.8-.3 2.6-.5 2.1-.6 4-1.7 5.8-2.9 2-1.3 4-2.7 5.9-4.1.9-.7 2-1.3 2.6-2.4 0-.8.1-1.5.3-2.3.3-1.4.3-2.8.4-4.3 0-.3-.1-.5 0-.7.6-.6.2-1.3.3-2 .1-.7.3-1.3.3-2 .1-1-.2-2.1.3-3.1-.3-1.5.3-2.9.3-4.4 0-.9-.1-1.8.3-2.7.3-.7 0-1.5.1-2.3.1-.8.3-1.5.3-2.3 0-1.6.6-3.2.3-4.8.6-1.1.2-2.3.3-3.4.2-1.2.5-2.3.8-3.7.7.8 1.3 1.3 1.8 1.9.5.7 1 1.3 1.3 2s.5 1.5 1.2 2c.5-.5.9-1.2 1.4-1.4 1.5-.7 2-2.3 3.2-3.3.4-.4.8-1 1.1-1.5 1-1.6 1.8-3.3 2.6-4.9 1.3-2.9 1.6-6 1.9-9.1-.3-.3-.3-.3-.3-.4 0 .1 0 0 0 0z" style="fill:#f0f0ee"/><path class="st1" d="M60.6 80.7v.3h-.2v.3h-.2v.3H60v.4h-.1c0 .1 0 .3-.1.3v.3h-.2V84c0 .1.1.1.1.2h.2c0 .3 0 .4.1.6h.1c0 .2.1.3.1.4h.1c0 .1.1.3.1.4h.2v.3h.2v.3h.2v.2h.2c0 .1.1.1.1.2.1 0 .2.1.3.1 0 .1.1.2.1.2h.2v.2h.4v.1c.2.1.3.1.6.1v.2h2v-.2h.6v-.2h.3v-.2c.2 0 .3-.1.4-.1v-.2h.2v-.2h.4c.2 0 .3 0 .4.1h1.1v-.2h.4v-.2h.3v-.2h.2v-.2c.1 0 .1-.1.2-.1 0-.1.1-.3.1-.3h.2v-.6h.1v-.8h-.2v-.6c-.1 0-.2-.1-.2-.1 0-.1-.1-.3-.1-.3h-.2v-.2h-.2v-.2h-.3v-.2h-.2c0-.1 0-.1-.1-.2-.2 0-.3 0-.6-.1v-.2h-.8v-.3h-.2c0-.2-.1-.3-.1-.4h-.1v-.2c-.1 0-.1-.1-.2-.1v-.2H66v-.2h-.2v-.2h-.2V80c-.2 0-.3-.1-.4-.1v-.2H65c0-.1-.1-.2-.1-.2.3.5.2.5.1.5h-.5v-.2h-2c0 .1-.1.1-.1.2-.2 0-.3.1-.6.1v-.8h-.2v-.2h-.8v.2h.6v.3h.2v.3h-.2v.3h-.2c0 .2-.1.4-.1.6h-.3v.2c0-.2-.1-.2-.2-.3.1.2.1.2.1.3 0-.3 0-.3-.1-.3zm6.3 5c.1 0 .2-.1.2-.1V85h.2v-.3h.1c.2 0 .2 0 .2-.1v-2.3h.2c0 .1.1.2.1.2h.3v.2h.2v.2h.2v.2h.2v.2h.2c0 .1 0 .1.1.2.1 0 .2.1.3.1v1h-.1c-.3.1-.3.4-.3.6h-.2v.2h-.2v.3h-.2c0 .1 0 .1-.1.2-.4-.1-.9-.1-1.4-.2 0 .1 0 .1 0 0zm-6-4.7c.1-.1.1-.2.1-.3h.3v-.2c.2-.1.3-.1.6-.1v-.2h.6V80h1.3v.2h.8v.2c.2 0 .3.1.4.1v.1h.2c0 .1.1.1.1.2.1 0 .2.1.3.1v.3h.3v.4c.2 0 .2 0 .2.2h.2v.2h-.2v.3h-.2c0 .1-.1.2-.1.2h-.2v.2h-.2v.2h.3v-.2h.6v-.2h.6c.1.1.1.5.1.9 0 .1 0 .2-.1.3v.3h-.2c-.1.2-.1.4-.1.6h-.2c0 .2-.1.3-.1.4h-.2v.2h-.2c0-.2 0-.3-.1-.6h-.1v-.3c0-.1 0-.2-.1-.3-.1 0-.1-.1-.2-.1v-.2h-.2v-.2H65v-.4h.2v-.3h-.1l-.1.1v.3h-.2v.6h-.2v.8h.2v.6h.2c0 .2.1.3.1.4h.2v.3h.2v.3h-.6v.2h-.4v-.2h-.4v.2H64v-.2h-1.4V86c-.2 0-.4 0-.6-.1v-.1c-.2 0-.4 0-.6-.1v-.3h-.2v-1c0-.2 0-.3-.1-.5H61v-.4c0-.2 0-.3-.1-.4-.1 0-.1-.1-.2-.1v-.4h-.2v-.2h-.3v-1.2h.2v-.4c.4.1.4.1.5.2v-.3c-.1.3 0 .3 0 .3zM63.6 66.7zM61.9 72.9v.2h.2v.3h.2v.2s0 .1.1.1h.1c0 .2.1.3.1.4h.2v.2h-.2v.2h-.2v.2h.3v-.2h.3v-.2h.2v.6H63c0 .1-.1.2-.1.3 0 .1 0 .2.1.3h.1c0 .2.1.3.1.3h.3v-.2h-.2c0-.2-.1-.3-.1-.3H63v-.2c.1 0 .1 0 .2-.1v-.6h1v.2h.3v.2h.1c0 .1.1.3.1.3-.1 0-.1.1-.2.1 0 .1-.1.1-.1.2h-.2v.2H64c0 .2-.1.3-.1.3h.3c0-.1.1-.2.1-.2h.2v-.2h.2v-1.3c.2 0 .4 0 .6-.1V74h.2c0-.1.1-.2.1-.2.1 0 .1-.1.2-.1v-.2h.2v-.3h.2v-.3h.2v-.2h.2v.2h.4v-.1c.2 0 .3-.1.4-.1v-.2h.2v-.3h-.2v.2c-.1 0-.3.1-.3.1v.1h-.5c.1-.6.1-1 .1-1.3.2 0 .3-.1.3-.1 0-.1 0-.1.1-.2h.2v.2h.2v.3h.2v.2h.2v.4h.2c0-.1 0-.3.2-.3.2.1.3.1.5.1v-.2h.3v-.3h.2v-1.2h-.2c0 .2 0 .3.1.5s0 .3-.1.5c-.1 0-.3.1-.3.1v.2c-.2 0-.3 0-.5.1-.2-.1-.1-.2-.1-.3H68v-.2h-.2v-.2h-.2v-.2h.2v-.3h.2v-.2c0-.1 0-.1.1-.2.3-.1.5 0 .8-.1v.2h.3v-.2H69v-.2c-.1 0-.2-.1-.3-.1h-.6c0-.2.1-.3.1-.4H68v-1.1h-.1c0-.1-.1-.2-.1-.3v-.3h-.1c0-.2-.1-.3-.1-.4h-.2v-.2h-.2v-.2H67v-.2h-.2c0-.1-.1-.1-.1-.2-.1 0-.3-.1-.3-.1v-.1c-.2 0-.4-.1-.6-.1v-.2h-1.2v.2H64c0 .1-.1.2-.1.2-.1 0-.2 0-.2.1h-.2c0 .2 0 .2-.2.2 0 .1-.1.2-.1.2H63v.2h-.2v.2h-.2c0 .2-.1.3-.1.4h-.2v.6h-.2v1.2h.2v.6h.2v.2h-.2v.3h-.2c0 .2-.1.3-.2.2 0 .2-.1.3-.1.3-.1 0-.1.1-.2.1v.2h-.1c-.1.2-.1.3-.1.5v.8l.5.4c.1 0 .1.1 0 0zm1 .6c-.2 0-.2 0-.2-.2h-.2v-.6h.2v.3h.2v.5zm.3-5h.2c0-.3.1-.5.1-.8h.1c0-.2.1-.3.1-.4h.1v-.1c.1-.2.2-.1.3-.2v-.2h.2c0-.1 0-.1.1-.2.3-.1.7-.1 1.1-.1.3 0 .7-.1 1.1.1v.3h.2v.2h.2v.2h.2c0 .2.1.3.1.4h.2c0 .2.1.3.1.6h.1c.1.4.1.7.1 1-.1.2-.2.1-.3.1v.2h-.3v.2H67c0 .1-.1.1-.1.2h-.2v.3h-.2v.3h-.2v-.1c-.1 0-.3-.1-.3-.1 0-.1-.1-.1-.1-.2h-.2v-.1c-.2 0-.3-.1-.4-.1-.2-.1-.3-.1-.5-.1h-.6c-.2 0-.3 0-.4.1l-.1-.1v-.2h-.1c-.2-.3-.2-.4-.2-.7-.2-.1-.2-.3-.2-.5zm1.4 2.7c0-.1-.1-.1-.1-.2h-.1c0-.1-.1-.3-.1-.4h-.2v-.2h-.2v-.2h1v.2h.2v.3h.2c0 .2.1.3.1.4h-.3v.2h-.2v-.1c-.1.1-.2 0-.3 0zm-2 0h.2v-.3h.2v-.2h.3v.2h.3v.2h.2v.2h.3v.4h-.2v.2h-.4v.2h-.3v-.2c-.1 0-.1 0-.2-.1 0-.1 0-.1-.1-.2h-.2v-.2h-.2c.1-.1.1-.1.1-.2zm0 .7v.2h.3v.2h1v-.2h.2v-.2c.1 0 .1-.1.2-.1v-.3h.4v.1c.3.1.6.1.9.1.1.2.1.3.1.6h.2c0 .1.1.3.1.3h-.2c0 .1-.1.1-.1.2-.1 0-.2 0-.2.2-.1 0-.3.1-.4.1v.2h-.2c0 .2-.1.3-.1.4h-.2v.3h-1.3v-.8h.2V73h-.4v-.2c-.1 0-.1 0-.2-.1v-.2c-.2 0-.3.1-.4.1 0-.1-.1-.2-.1-.2h-.1v-.6c.1.1.2.1.3.1zM67.5 97.3c.2-.1.3-.2.6-.2v-.2h.3v-.2h.3v-.2h.2v-.2c.1 0 .1-.1.2-.1V96h.2c0-.2.1-.3.1-.4h.2v-.3h.1c.1-.3.1-.4.1-.7v-.8c0-.3 0-.5-.1-.7h-.1v-.4c-.1 0-.2-.1-.2-.1 0-.1-.1-.2-.1-.3-.1 0-.1 0-.2-.1V92h-.2v-.2h-.2v-.2c-.2 0-.3-.1-.4-.1v-.1c-.2 0-.3-.1-.3-.1 0-.1-.1-.1-.1-.2h-.5c0-.1-.1-.2-.1-.2h-1.2c0 .1-.1.1-.1.2h-.6v.2h-.3v.2c-.3 0-.5.1-.8.1h-.2v.2h.3v.2h-.2v.2l-.1.1h-.2v-.4h-.2v.4h-.2v.6h.2v.2h-.2v.4c0 .1 0 .3-.1.3s-.1.1-.2.1H63v.2h.2v.2h.2c0 .3.1.7.1.9h.2v.6h.2c0 .1.1.1.1.2h.1v.2h.2v.2c.1 0 .1.1.2.1v.2h.4v.2h.2c0 .2 0 .2.1.3h.5v.1c.9.1 1.8 0 1.8 0zm-2.9-3.9c.2-.3.2-.6.2-.9h.1s.1 0 .1-.1v-.2h.4v.2c.1 0 .1.1.2.1v.5h-.2v.2h-.2v.3H65v.2h-.3c-.1-.2-.1-.2-.1-.3zm1.1 3.3c-.1 0-.1 0 0 0-.1-.1-.1-.1-.1-.2-.2 0-.3-.1-.4-.1v-.3h.3v.2c.1 0 .2.1.2.1v.3zm.2.3v-.8c-.1-.2-.2-.1-.3-.1V96h-.9v-.3h-.2v-.2c.1 0 .1 0 .2-.1v-1.2h-.2V94c-.1 0-.1-.1-.2-.1-.1-.1-.1-.2-.1-.3.3-.1.5-.1.8-.1v-.2h.4v-.2h.2c0-.3.1-.5.1-.7 0-.3 0-.4-.1-.7h.2c0-.1 0-.1.1-.2h1.9v.3h.2v.2h.2c0 .2.1.4.1.6.1 0 .1 0 .2.1v.2h.2v.6h.2v1.6h-.2v.2c-.1 0-.3.1-.3.1v.2h-.2c0 .1 0 .1-.1.2h-.2v.2h-.1c0 .1-.1.3-.1.3h-.2v.4h-.2v.4h-.4v.2h-.8v-.2c0-.1-.1-.1-.2-.1zM68.9 73.2h-1.2v.2h-.4v.2H67v.2c-.1 0-.2.1-.3.1v.2h-.2v.3h-.2v.2h-.2c0 .4-.1.8-.1 1.3V76.5h-.2v.2h.2c0 .1.1.2.1.3v.1h-.2v.2h-.2v.3h.2v-.1h.2v-.3h.2V77h.2v.2h.2v.2c.2 0 .3.1.3.1 0 .1.1.1.1.2h.2v.1c.1 0 .2.1.3.1h.3v-.2c-.2 0-.3-.1-.4-.1v-.2h-.2v-.2h-.2V77c-.1 0-.2 0-.3-.1v-.2h-.2v-.3h-.2c-.1-.5-.1-.9 0-1.3h.2v-.3c0-.1.1-.2.1-.3h.1v-.3c.1 0 .2-.1.2-.1V74h.3v-.2c.3 0 .5-.1.8-.1v-.1h.8v.1c.2 0 .3.1.3.1 0 .2.1.3.1.3h.2v.4h.2v.3h.2v.8h.2v.3h-.2v.2h-.2c0 .1-.1.1-.1.2-.1 0-.2.1-.3.1v.2h-.2c0 .2-.1.3-.1.3h-.2v.6c-.2 0-.3.1-.3.1 0 .2 0 .2-.2.2v.2h.2v.2h-.2c0 .2-.1.3-.1.4h-.1v.8h.2c0 .2.1.3.1.4h.1c0 .1.1.2.1.2h.2v-.4h-.2v-1h.2V78h.4v-.2h1v.2h.2v.2c.1 0 .1 0 .2.1 0 .1.1.2.1.3h.1c0 .3 0 .5.1.8v.1h-.4v-.2h-.8v.2h-.2c-.1.1-.1.1-.1.2h.3c0-.1.1-.2.1-.2h.3v.6h-.2v.2h-.2v.2h.6v-.2h.3v.2h-.2v.2h-.3v.3H70c0 .1-.1.3-.1.3h.3v-.2h.2c.1-.1.1-.1.1-.2v-.1h.1c.1-.2.1-.4.1-.6v-.6h.2v-1.2h-.2c0-.2-.1-.3-.1-.4h-.2v-.2c-.2 0-.3-.1-.3-.1v-.2h-.3v-.4h.2v-.2h.2c0-.2.1-.3.1-.4h.1c0-.2.1-.3.1-.6.1 0 .1-.1.2-.1 0-.3 0-.7-.1-.9h-.1v-.3c-.1 0-.1-.1-.2-.1 0-.1-.1-.3-.1-.3H70V74c-.1-.1-.2-.1-.3-.1v-.2h-.2c0-.1-.1-.2-.1-.2h-.3c0-.1-.1-.1-.1-.2h-.4c.3 0 .3 0 .3-.1zM72.8 60.2c-.1-.1-.2-.1-.2-.2h-.4v-.1H72v-.1h-.2v-.1h-.4v-.1H71v-.1c-.3-.1-.6 0-.8 0h-.9v.1h-.4v.1h-.3v.1h-.2v.1h-.2c0 .1-.1.1-.1.2H68c0 .1-.1.1-.1.2h-.2v.2h-.1c-.1.1-.1.3-.1.3 0 .1 0 .3.1.3h.2v.2h.2c0 .1.1.1.1.2h.2v.1c.2 0 .2 0 .2.1h.2v.1h.3v.1h.3l.1.1h1.9v-.1h.4l.1-.1h.2v-.1h.3c0-.1.1-.1.1-.2h.2v-.1h.2c0-.1.1-.1.1-.2h.1c.1-.1.1-.2.1-.3v-.1h.1v-.2h-.1c-.3-.1-.2-.3-.3-.4zm-.6.7H72v.1h-.4v.1h-.2l-.1.1h-.2v.1h-.2v.1h-.2v.3h-.2v.1H69.3v-.1h-.2s0-.1-.1-.1h-.3v-.1h-.2v-.1h-.2v-.1h-.2v-.2h-.2V60.8s0-.1-.1-.1h-.1v-.2h.2c0-.1 0-.2-.1-.3h.2c0-.1.1-.1.1-.2h.2v-.3h.2v-.1h.4v-.1h.8v-.1h1.2v.1h.2v.1h.3v.2h.2v.2h.2v.2h.2v.3h.2v.4zM53.9 84.3c-.1 0-.2 0-.2.2 0 .1-.1.1-.2.1 0 .2-.1.3-.1.3h.2c0-.1.1-.1.1-.2.1 0 .2-.1.3-.1 0-.1 0-.1.1-.2h.2v-.2h.2V84c.5-.1 1-.1 1.6 0v.2h.3v.2c.1 0 .3.1.3.1 0 .1.1.1.1.2h.2v.2c.1 0 .3.1.3.1v.2c0 .2 0 .3.1.5h.1v.3h-.2c0 .3-.1.7-.1 1H57v.3c-.2 0-.3.1-.4.1v.2s-1.5.1-2.2 0V87h-.2v-.3c-.1 0-.2-.1-.2-.1v-.2h-.2v-.2h-.3V86h-.2c-.1-.1-.1-.2-.1-.3V85H53v.6h-.2v1h.2v.6h.2v.3h.2c0 .2.1.3.1.4.1 0 .3 0 .3.1v.2h.3v.2c.2 0 .3.1.4.1v.1c.3.1.4.1.7.1.3 0 .4 0 .7-.1v-.1c.2 0 .4 0 .5-.1 0-.1.1-.2.1-.2h.2V88h.3v-.2h.2v-.2h.2c0-.2.1-.3.1-.3.1 0 .2-.1.2-.1v-.6h.1V86h-.1c0-.3 0-.5-.1-.8h-.2V85c-.1 0-.1 0-.2-.1 0-.1-.1-.1-.1-.2h-.2c0-.1-.1-.3-.1-.3-.1 0-.3-.1-.3-.1v-.2h-.3v-.2h-.3c-.1 0-.2-.1-.3-.1H54.4v.2h-.3v.2c-.1 0-.3.1-.3.1.1-.1.1-.1.1 0zM82.2 86.5v-.2h.2v-.2h.2v-1h-.2v-.2h-.2c0-.2 0-.2-.2-.2v-.3h.2v-.3h.2v-1.2h-.2v-.4H82c0-.1-.1-.3-.1-.3-.1 0-.2-.1-.2-.1v-.2h-.4v-.2c-.2 0-.3-.1-.4-.1v-.1h-1.2v.2c-.2 0-.3.1-.4.1v.2H79c0 .2-.1.3-.1.3h-.2v.3h-.2v.4h-.2v1.2h.2v.3c0 .1 0 .2.1.2h.2v.3h.2v.2h.2v.2h.3v.2h.6v-.2h-.3v-.2c-.1-.1-.2 0-.3-.1v-.2h-.2v-.2h-.2v-.4h-.2v-.9h.2c.1-.1 0-.2.1-.2v-.3h.2v-.3h.2c0-.1.1-.2.1-.2h.3v-.2h1.4v.3h.2c0 .2.2.3 0 .5.1 0 .1.1.2.1v.2h.2c0 .3.1.6.1.9h-.2c0 .1-.1.2-.1.2h-.2v.2h-.2v.2h-.2c0 .1-.1.3-.1.3H81v.3h-.2c0 .1 0 .1-.1.2h-.6v.2h.6v.6h.2v.3c.2 0 .3-.1.4-.2v-.1h-.2v-.2c-.1 0-.1-.1-.2-.1v-.5h.2v-.2h.3v-.2c.2 0 .3-.1.4-.1V85h.2c0 .2.1.2.2.2 0 .2.1.3.1.3h.2v.3h-.2v.2c-.1 0-.1.1-.2.1.2 0 .1.1.1.4-.1-.1-.2 0-.2 0v.2h-.3v-.2h-.2v.3h.3v.2h.2v.3c0 .1 0 .2-.1.3h-.2v.2h-.2v.2h.3v-.2h.3c0-.3.1-.7-.1-.9-.1 0-.1-.1-.2-.1v-.2c.1-.1.3-.1.4-.1zM65.6 57c-.3-.1-.7-.1-1-.1v.1h-.2c0 .1-.1.1-.1.2h-.1c0 .1-.1.1-.1.2v.2h.2v.1h.3v-.1h-.2v-.3h.2c0-.1.1-.1.1-.2h.2V57h.7c0 .1 0 .1 0 0 .1.1.1.1 0 0l.1.2h-.2v.1h-.2v.2h-.2v.4h.2v.2h.2v.1h.3v.1h.3v-.1h-.2V58h-.4v-.2s0-.1.1-.1h.3v-.2h.2v-.3h.3v-.1h.6v.1h.4v.2h.2v.2h.2v.3h-.2v.1h-.5c0 .1-.1.2-.1.2h-.3v.1h.5l.1-.1h.3v-.1h.2V58h.2c0-.1 0-.2.1-.3h.2v-.3h-.2c0-.1-.1-.2-.1-.2h-.2v-.1h-.2V57h-.3v-.2h.2v-.1h.2v-.2h-.2v.2h-.4v.1c-.2 0-.3.1-.6 0l-.1-.1h-.2v-.1h-.3v.2h.3v.2H65.6zm.3.5h-.3v-.1h.2v-.1h.1v.2zM79.7 68.7c-.2 0-.3-.1-.4-.1h-.8v.2h.9l.1.1v.3h-.2v.3h-.2v.1h-.8c.3.1.5.3.8.3 0 .3-.1.8 0 1.1h.2v.2c.1 0 .2.1.2.1v.2h.2v.1c.1 0 .3.1.3.1v-.3h-.2v-.2h-.2V71h-.2c0-.1 0-.2-.1-.2v-.4h.2v-.2h.2v-.3h.2v-.8c.1 0 .2-.1.2-.1v-.1h.6v.2h.3v.2h.2v.3h.2c0 .2.1.3.1.6h.1v.3h-.2v.2h-.2v.2h-.3v.3h-.2v.4h-.2c0 .1.1.3.1.3h.2v-.2h.3c0-.1.1-.2.1-.2h.2v-.2c.1 0 .2-.1.2-.1V71h.2v-.4h.2V70h-.2c0-.2-.1-.4-.1-.6h-.2v-.2h-.2c0-.1 0-.1-.1-.2-.1 0-.3-.1-.3-.1v-.2c-.3 0-.8-.1-1.1.1h-.1c-.1 0-.2 0-.2-.1.2.1.2 0 .2 0zm-.2.9h.2v.1s-.1 0-.2-.1c0 .1 0 .1 0 0zm.2.2zM85.4 76v.2h.2v.3c-.1 0-.2.1-.3.1 0 .1 0 .1-.1.2v-.2H85v.3h.1v.3h-.2v.2h-.4v.2h.2v.6h.2v.4h.2v.4h.3v.2c.2 0 .3.1.4.1v.1h.2v-.3h-.2V79h-.2c0-.2-.1-.2-.2-.2v-.2h-.2c0-.2-.1-.3-.1-.4v-.4h.2c0-.1.1-.2.1-.2h.3v-.2h.4v-.2h.2V77h-.2v.2h-.2V77h.2v-.2h.2v.3h.2v-.2h.5v.2h.2v.3h.2v.8h-.2v.2H87v.2h-.2v.3h-.2v.2c-.1 0-.2 0-.3.1 0 .1 0 .2.1.2h.4v-.2h.3V79c.1 0 .2 0 .3-.1v-.2h.2v-.2h.2v-.3c0-.1.1-.2.1-.3 0-.3 0-.6-.1-.8h-.2v-.2c-.1 0-.2-.1-.2-.1v-.2h-.2v-.2h-.4v-.2c-.3 0-.5 0-.8-.1V75.8H85.7v-.2c-.1.4-.2.4-.3.4-.1 0-.1.1-.1.2 0-.2.1-.2.1-.2zM51.2 79.9v.8h.2v.3h.2v.2h.2v.2h.4v-.2h-.3V81h-.2v-.2c-.1 0-.2-.1-.2-.1v-.4h-.2v-.2h.6v-.2h.3v-.2h.2v-.2h.2v-.6h.6v.2h.2v.2h.1c0 .1.1.2.1.3v.4h.2v.3h-.2v.2h-.2c0 .1 0 .1-.1.2-.1 0-.1.1-.2.1v.2h-.2c0 .1-.1.3-.1.4h-.2v.2h.4v-.2h.3v-.2h.2v-.3h.2c0-.2 0-.3.1-.5h.1v-.7h-.2c0-.2-.1-.3-.1-.5h-.2v-.3h-.3v-.2c-.2 0-.3 0-.5-.1v-.1c-.3 0-.4 0-.6-.1v-.2h-.2c0-.1-.1-.2-.1-.2h-.3v.2h.2c0 .1 0 .2.1.3h.1v.2c-.2 0-.3.1-.4.1v.2h-.2v.2H51v.4h-.2v.2h-.2v.2c.5-.1.5-.1.6-.1zm.4-.6h.2V79h.2v-.2h.4v.3c-.2 0-.2 0-.2.2-.1 0-.1.1-.2.1v.2h-.3c-.1-.1-.1-.1-.1-.3zM59.7 91.4v.2c-.1 0-.3.1-.3.1 0 .1-.1.3-.1.3h-.2v.2h-.2v.2h.6v-.2h.3V92c.1 0 .1-.1.2-.1 0-.1.1-.3.1-.3h.2v-1.1h-.2c0-.2-.1-.3-.1-.3.1-.1 0-.2 0-.2v-.2h-.3v-.2H58.8c-.2.1-.3 0-.4 0-.1 0-.2 0-.3-.1v-.2h-.3v.2c.1 0 .3.1.3.1v.2h-.2v.4h-.2v.3c-.1 0-.2.1-.2.1v.4c0 .1 0 .3-.1.3h.2c0 .2.1.3.1.4h.1c0 .1.1.3.1.4h.3v.2h.3v-.2h-.3v-.2.1H58v-.3h-.2v-.4h.2v-.2h.3v-.2h.2v-.3c.1-.2 0-.3 0-.4.1 0 .2-.1.3-.1v-.2h.8v.2h.2v.2h.2c0 .2.1.3.1.4h.2c-.1.3.1.5 0 .8-.4-.1-.5-.1-.6-.1zm-1.7-.9v-.3h.2v.3H58zM63.3 60.5H63v.1h-.3v.2h-.2v.6h.2v.1h.2v.1h.2v.1h.4s0-.1-.1-.1h-.2v-.1H63v-.1h-.2v-.2h-.2v-.3h.2c0-.1.1-.1.1-.2h.2v-.1h.2v-.1c.2.1.3.1.3.1v-.1h.4v.1h.3s0 .1.1.1h.2v.1h.1c.1.1.1.2.1.3h.2v.2h-.2s0 .1-.1.1h-.3c0 .1-.1.1-.1.2h-.2v.1h-.2v.1h-.2v.1h.5l.1-.1h.2v-.1h.4v-.2h.2c0-.1-.1-.2.2-.3V61h-.1c0-.1-.1-.2-.1-.3h-.2v-.2h-.3v-.1h-.5v-.1c-.1.1-.4.1-.8.2 0-.1 0-.1 0 0zM64.3 61.7c0-.1 0 0 0 0zM80 59s0 .1 0 0c-.1.1-.2.1-.2.1l-.1.1h-.2v.1h-.1c0 .1-.1.1-.1.2h-.2v.1h.6v-.1h.2v-.1h.2v-.1h.2v-.7h-.2v-.2h-.2v-.1h-.3v-.1h-1.3v.1h-.4v.1h-.2v.2h-.2v.2c0 .1-.1.1 0 .2s0 .2.1.3h.2v.1h.2v.1h.2v.1h.4s0-.1-.1-.1h-.2v-.1h-.2v-.1h-.2v-.2h-.2v-.3h.2v-.3h.2v-.1h.4v-.1H79.4v.1h.3c0 .1.1.1.1.2h.2c0 .1.1.2.1.3h.1v.1H80zM57.7 74.2h.2v.2h.2v.2h.2v.2h.4c0-.1 0-.2-.1-.2h-.2v-.2h-.2v-.2H58v-.3h-.2v-.8h.2v-.6h.2c0-.1 0-.2.2-.3h.3v-.1c.3-.1.5-.1.8 0v.2h.2c0 .1.1.1.1.2h.1v.3h.2c0 .1.1.2.1.3v.4h.1v.3c-.1 0-.2.1-.3.1 0 .1-.1.2-.1.2h-.2v.2h-.2v.3h-.2v.3h-.2v.2h.3c0-.1.1-.2.1-.2h.3v-.2h.2v-.2h.2v-.3h.2v-1.4h-.2v-.3c-.1-.2-.2-.1-.3-.1v-.1c-.1 0-.3-.1-.4-.1V72h-1.2v.2c-.2 0-.3.1-.3.1v.2h-.2v.3c-.1 0-.1.1-.2.1V74c.1 0 .1.1.1.2zM74.4 57.6h-.2v-.1H74v-.1h-1.2v.1h.8v.1h.2v.1h.2c.1.1.1.2.1.3h-.5v.1h-.1V58H72.6c0-.1-.1-.1 0-.2v-.2h-.2c0 .1-.1.2-.1.3h-.1c0 .1-.1.1-.1.2h.2l.1.1h.2V58h.3v.1h.2v.1h-.2v.1h.3v.2H73v.1h-.2v.1h-.2v.2h.2v-.1h.3v-.1h.2s.1-.1.1-.2V58.2h.1v-.1h.3V58h.2v-.2h.2c.3 0 .3 0 .2-.2 0 .1 0 .1 0 0 0 .1 0 0 0 0zM86.2 67.7v.8h-1v.2h.7c0 .2-.1.3-.1.3h-.1v.2h.4V69c.2 0 .3.1.3.1v.6h-.2v.2H86v.2h-.2v.3h.2v-.1c.2 0 .3-.1.4-.1V70h.2c0-.2.1-.3.1-.4h.1v-.1h-.2c0-.3 0-.4-.1-.6h-.1v-.3h.1V68h-.2v-.3H86v.3c.1-.3.2-.3.2-.3zM83.1 81v.3h.2v-.8h.3v-.3c.1 0 .1-.1.2-.1v-.2h.4v.2h.2v.2h.2v.8h-.2c0 .1-.1.2-.1.2h-.1v.2c-.1 0-.2.1-.2.1v.2h.4v-.2c.2 0 .3-.1.4-.1v-.3h.2v-.8c-.1 0-.2-.1-.2-.1v-.2h-.2v-.2h-.3v-.2h-.8v-.3h-.2v-.2h-.2v.2h.2v.3h-.2c0 .2-.1.3-.1.3h-.2c0 .1 0 .2-.1.3v.1c.5.4.4.6.4.6zM78.3 91.8h.2c.1 0 .2 0 .2.1 0 .2 0 .3.1.6h.2v.2h.2v.3H79v.2h-.2v.4h.4v-.2h.2v-.3h.2c0-.1 0-.2.1-.2v-.1c-.1-.1 0-.2 0-.2v-.5h-.2v-.2h-.2c0-.2-.1-.3-.1-.6.1 0 .2-.1.3-.1V91h-.4v.3c-.2 0-.3.1-.4.1v.2c-.1 0-.2-.1-.3-.1-.1 0-.2 0-.3.1v.2s.1.1.2 0zm.7.2v.2h-.1c0-.1 0-.1.1-.2zM82.5 74.4v-.2h-1.2v.2h-.2v.2h-.2v1h.2v-.8h.2v-.3h1c0 .2.1.3.1.3h.1v.6h-.2v.2h-.2v.3h-.2v.2h.2V76c.2 0 .3-.1.3-.1 0-.2.1-.2.2-.2 0-.2.1-.3.1-.3.1 0 .1-.1.2-.1v-.5c-.1 0-.1-.1-.2-.1 0-.1-.1-.3-.1-.3h-.1zM61.6 89.3c-.3 0-.7 0-1-.1v-.3h-.2v-.6h.2v-.2h.2c0-.1.1-.2.1-.2.1 0 .1-.1.2-.1v-.2h.2v-.2h-.4v.2c-.2 0-.3.1-.4.1v.2h-.2c0 .4-.2.8 0 1.2h.2v.3h.2v.2h1c-.1-.2-.1-.3-.1-.3zM56.7 78.9h.2v.3h.3v.2h.8v-.2h.2V79h.2v-.3h-.2c0 .1-.1.3-.1.3-.3.1-.7.1-1 .1v-.2c-.1 0-.2-.1-.2-.1v-.3h-.2v-.3h-.2c.2.2.2.4.2.7zM54.8 71c.1 0 .1 0 0 0 .1.1.2.1.2.1v.1c.2 0 .3.1.3.1v.2h.4v-.2h.3c0-.1.1-.1.1-.2h.2v-.3c.1 0 .2-.1.2-.1v-.6h-.1V70h-.1v-.2h-.2c0 .1 0 .2.1.2v.2h.2v.4h-.2c0 .2-.1.3-.1.4H56c0 .1 0 .2-.1.3h-.2v.1h-.4v-.1c-.1 0-.3-.1-.3-.1 0-.2-.1-.3-.1-.4h-.1v-.5h.1c0-.1.1-.1.1-.2.1 0 .3-.1.3-.1v-.2h.2v-.2s-.1 0-.2-.1c-.2 0-.3.1-.4.1v.2h-.2v.2c-.1 0-.2.1-.2.1v.9h.3c0-.1 0 0 0 0zM72.1 82.3v.2h.8v.2h.2c0 .2.1.3.1.3h.2c0 .2.1.3 0 .4h-.2v.2H73v.4h-.2v.2h.3v-.1c.1 0 .3-.1.4-.1v-.2h.2v-1h-.2v-.3h-.3c0-.1-.1-.1-.1-.2h-1z"/><path class="st1" d="M80.2 92.2H80v.2h-.2v.2c-.1 0-.1.1-.2.1v.1c.2.1.3.1.5 0 0-.1 0-.1.1-.2h.2v-.3h.2v-.8h-.2v-.3h-.2V91h-.3v.2h.2v.2h.1c0 .1.1.2.1.3-.1.2-.1.3-.1.5zM84.6 90.4v.2c-.1 0-.1 0-.2.1v.2h-.2v.2h.4v-.2h.3c0-.2.1-.3.1-.4h.1v-.8h-.2v-.3h-.4c0 .2.1.3.1.4h.2v.8c-.1-.2-.2-.2-.2-.2zM84.8 69.1h-.2v.4h.2v.3h.2v-.4h-.2.2v-.5c.1 0 .1-.1.2-.1v-.3h-.3v-.8h.2v-.3h-.2v.2h-.2v1.2h.2c-.1.1-.1.2-.1.3zM83.6 89.8v-.3h.2v-.2h-.3c0 .2-.1.3-.1.4h-.1v.9h.2v.3h.3v-.2h-.2v-.2h-.2v-.6c0-.1.1-.1.2-.1zM69.1 79.7h-.2v.2h-.2v.2h.2v.4c.1 0 .1 0 .2.1v.3h.3c0-.2-.1-.3-.1-.4h-.2v-.2h.3c0-.2-.1-.3-.1-.4v-.4h-.2v.2zM70.5 56.9c-.2-.1-.3-.1-.4-.1h-.4v.1h.6v.1l.2-.1c-.1.2-.1.3-.2.3h-.2v.1h.3c.2-.2.2-.3.1-.4.2 0 .1 0 0 0zM58 77.8h.2v.2h.2v-.4h-.2v-.2H58v-.3h-.2v.2h-.3c-.1.1-.2-.1-.3 0h-.1c-.1.1-.2 0-.3.1v.2h1c.2 0 .2.1.2.2zM58.5 57.2v.2h.2c-.1.2.1.3 0 .4h-.2c0 .2-.1.3-.1.4.1 0 .2-.1.3-.1v-.2h.2v-.8l-.1-.1c-.1.1-.1.1-.3.2l.1-.2h-.8v.2h.7c-.1 0-.1 0 0 0zM71.8 82.7c-.1 0-.1 0 0 0-.1.2-.2.3-.2.3-.1 0-.2.1-.2.1v.6h.2c0 .2.1.3.1.3h.3v-.2h-.2v-.2h-.2v-.5c.1 0 .2-.1.2-.1.1 0 .1-.2 0-.3h.3v-.2h-.3v.2zM75.8 66.5h-.2v-.8h.2v-.4h-.2v.3h-.2v1h.2v.3c.1 0 .3.1.3.1h.1v-.2h-.2v-.3zM70.7 70.6h.2c0-.3-.1-.5-.1-.7h-.2c.1 0 .2-.1.3-.1v-.3h.2v-.2h.8v.2h.2v.2h.2v.6h-.2v.2c-.1 0-.1.1-.2.1v.2h-.2c0 .1-.1.3-.1.3h.3v-.2h.4v-.3h.2c0-.3 0-.4.1-.6-.1-.1 0-.3-.1-.3v-.1h-.2v-.2h-.2c0-.1 0-.1-.1-.2h-.5c-.2 0-.3-.1-.5 0v.3h-.2v.2h-.2c0 .2-.1.3-.1.4h-.1v.5c.2-.1.2 0 .3 0 0-.1 0 0 0 0zM61.4 68.6h.2v-.8h-.2v-.1h-.2v.6h.2v.2h-.1c0 .1-.1.3-.1.3h.3c-.1 0-.1-.1-.1-.2zM56.6 90.2c-.1.2-.1.3-.1.4h.2v.3h.2v-1.4h-.2c0 .3 0 .5-.1.7zM87.7 84.5c.1.2-.1.3 0 .3h.3v-.1c.1 0 .1-.1.2-.1v-.4h.2V84h-.2v-.3l-.1-.1h-.3v.2c.1 0 .2.1.2.1v.6h-.3zM85.8 83.1v.8h-.2v.3h.3c0-.2.1-.3.1-.4h.1v-.3h-.2v-.2c.1-.2 0-.2-.1-.2zM72.1 58.3h-.2v.2h.2v.2h.2v-.2h-.2v-.2h.2v-.2c.2 0 .2 0 .2-.1h-.4v.3zM79.5 77.4h-.2c0 .1-.1.2-.1.2-.2 0-.3.1-.1.3h.2v-.2h.2c.1-.2.1-.2 0-.3.1.1.2.1.2 0v-.6h-.2v-.2h-.3c0 .2.1.3.1.3.1 0 .1 0 .2.1v.4c0-.1 0-.1 0 0zM84.5 77.4v-.2h-.2v-1h-.2c-.1.4-.1.8 0 1.2h.4zM61.8 96c.1-.2.1-.4.1-.6h-.2v-.2h-.2v.3h.2c0 .2 0 .3.1.5h-.3v.2h-.2v.2h.3l.2-.4zM58.7 77.1c0 .2-.1.3 0 .4h.3v-.2h.2v-.8c-.1 0-.1-.1-.2-.1v-.1h-.3c0 .1 0 .2.1.2h.2v.6h-.3zM63.2 95v-.6H63v.4h-.2v.6h.2v.3h.2v-.3c-.2 0-.2-.1-.2-.2-.1-.2.1-.2.2-.2zM62 88.8h.2v-.6H62v.3h-.2v.3h-.2v.3c.2 0 .3-.1.4-.1v-.2zM84.5 76c.2 0 .3-.1.4-.1v-.2h.3v-.2h-.6v.2h-.3v.3c0 .1.1.1.2 0-.1.1-.1.1 0 0zM50.6 79.2h.3v.4h.2c0-.2-.1-.3-.1-.4h-.1v-.3h.1c.1-.2.1-.3.1-.6h-.2c0 .2-.1.4-.1.6h-.2c.1.1-.1.2 0 .3zM61.4 73.2v.8h.2v.2h.2v-.3h-.2v-.8c-.1.1-.1.1-.2.1zM86 67.1h-1v.2h1v-.2zM67.5 59.9v-.2h-.2v-.2H67v.1h.2v.1h.2v.2h.1z"/><path class="st1" d="M57.4 89.3c0 .1 0 .1 0 0-.2.2-.4.2-.6.2v.2c.2 0 .4 0 .6-.1v-.1h.2v-.2h-.2zM87.1 84.7v-.8h-.2v.8h.2zM66.2 60h.2v-.3h-.2v.3zM75.7 74h.2v-.8h-.2v.8zM85.1 84v-.8H85c0 .1-.1.3-.1.3v.4l.2.1c-.1 0-.1 0 0 0zM68.1 54.8h.3v-.2H68v-.1h-.2c0 .1.1.3.1.3h.2zM73.6 92.6c.1 0 .1 0 0 0-.1.3-.2.5-.2.8.1.8-.2 1.3-.4 2v-.6h-.2v-.2h-.3v.2c.1 0 .2 0 .2.1.1.2 0 .3.1.5h-.2c0 .2-.1.3-.1.3h.3v-.2h.1c-.5 1.5-1.2 3-2.4 4.1-.8.7-1.8 1.1-2.8 1.2-1.3 0-2.6-.2-3.9-.3-.3-.5-1-.1-1.3-.3-1-.9-2.3-.6-3.3-.9-.8-.3-1.6-.3-2.3-.6-.7-.3-1.3-.4-2.1-.5-2.3-.3-4.1-1.3-5.6-3-.3-.3-.3-.6-.4-.9-.2-.8-.2-1.5-.3-2.3-.2-1-.5-1.9-.7-2.9-.6 1.9.6 3.6.3 5.3.3.6.6 1.2.9 1.7 1.4 1.8 3.5 2.5 5.7 2.8.8.1 1.5.3 2.3.6.5.2 1.1.4 1.6.4.9.1 1.8.3 2.6.4 1.6.3 3.2 1 4.8.9h.2c1.8.4 1.8.4 3 0 2.4-.8 3.8-2.7 4.3-5 .3-1 .3-2.1.7-3.2.1-.3-.1-.7-.1-1-.3.3-.4.5-.5.6.1 0 .1 0 0 0zM82.7 79.6h-.2c0 .3 0 .5-.1.8h.2c.1-.4.1-.6.1-.8zM73.4 59.7c.1 0 .1 0 0 0 0 .1.1.1 0 0 0 .2.1.2 0 .3h.2v-.3c0-.1-.1-.1-.2 0zM67.1 60c-.1 0-.1 0 0 0 .1.1.2.1.3.1v-.2c-.2 0-.2 0-.3.1zM56.1 54.2h-.4v.2h.5s0-.1-.1-.2h.2V54h-.1c-.1.1-.1.2-.1.2zM74.8 67h.2v-.8h-.2v.4c.1.3-.1.4 0 .4zM65.9 76.2h-.6v.2h.6v-.2zM65.2 77.2v-.6H65v.6h.2zM55.8 72.6h.2v-.3c0-.1 0-.2.1-.3h-.3v.6zM58.6 78.5v-.6h-.2v.6h.2zM79.9 90.8h-.6v.2h.6v-.2zM61.4 71c-.1 0-.2 0-.2.1H61c-.1-.1-.2 0-.3 0v.2h.6c.1-.2.1-.3.1-.3zM51.2 60.8H51v.6h.2v-.6zM54.7 89.5v-.3c-.1 0-.2-.1-.3-.1h-.1v.2h.2v.3c0-.1.1-.1.2-.1zM56.8 59h-.2v.6h.2V59zM89.1 82.8v.6h.2c0-.2 0-.4-.2-.6zM60.7 79.7v-.6h-.1c0 .1 0 .2-.1.2v.4h.2zM75.2 83.6v-.5h-.1c-.1.2-.1.4.1.5z"/><path class="st1" d="M54.5 89.8v-.3h-.2v.3h.2zM57.2 91.2V91h-.3v.2h.3zM72.9 58.1c.2.1.3.1.4.1v-.1h-.4zM60.4 68.1h-.2v.4h.2v-.4zM80.6 58.3v-.2h-.2v.2h.2zM61.7 87.8c0 .2.1.3.1.4h.2v-.4h-.3zM61.7 72.9h-.2v.3h.2v-.3zM68.7 54.9h-.2v.3h.2v-.3zM85.2 83c.1 0 .3.1.3.1.1-.1.1-.1.1-.2-.1.1-.2.1-.4.1zM60.6 68v-.2h.2v-.2h-.2c0 .1-.1.1-.1.2h-.1v.2h.2zM60.7 96v-.3h-.1c0 .1-.1.3-.1.4l.2-.1zM57.7 57.4h-.2v.3h.1c0-.1.1-.2.1-.3zM76.1 73c.1 0 .2.1.3.1 0-.1.1-.1.1-.2-.2 0-.3 0-.4.1 0-.1 0 0 0 0zM51 78.2h.4V78c-.2 0-.2.1-.4.2 0-.1 0 0 0 0zM80.7 87.1v.3c.1 0 .2 0 .2-.1s-.2-.1-.2-.2zM50.7 60.7h.3v-.2h-.4c.1.1.1.2.1.2zM56 53.5h-.3v.2h.3v-.2zM70.7 84.7v.3h.2v-.3h-.2zM53.7 89.3v.3h.2v-.3c-.2-.1-.2 0-.2 0zM80.8 86.7v.3h.2v-.3h-.2zM69.3 81h.3v-.2h-.3v.2zM76 59.3h.3v-.1c-.1 0-.2 0-.3.1 0-.1 0 0 0 0zM83.1 72.8h.2v-.3h-.2v.3zM70.5 85v.3c.1 0 .2-.1.2-.1V85h-.2zM79.2 57.1c-.1 0-.1-.1-.2 0v.1c.1-.1.2-.1.2-.1zM57.7 58c0 .1 0 .1.2.1v-.3h-.2v.2zM61.4 95.1v-.2h-.3v.2h.3zM81.3 75.8v-.2h-.2v.2h.2zM85.1 70.1h.2v-.2h-.2v.2zM70.9 70.6v.2h.2v-.2h-.2zM64.6 57.8h.2v-.1c-.1 0-.1 0-.2.1 0-.1 0-.1 0 0zM80.9 87.6h.2v-.2h-.2c-.1.1-.1.2 0 .2zM73.1 57.5h-.2v.1c.1 0 .1 0 .2-.1zM63.2 94.2v.2h.2v-.2h-.2zM72.1 94.7h.2v-.2h-.2v.2zM69.5 57.3c.1.1.1.1.2.1v-.1h-.2zM69.3 57c0 .1 0 .1 0 0 .1.1.1.1.2.1V57h-.2zM80.2 58.3c0 .1 0 .1 0 0 .1.1.1.1.2.1v-.1h-.2zM63.2 95.7h.2v-.2h-.2v.2zM63.4 96h.2v-.2h-.3c.1 0 0 .1.1.2zM64.7 97.1c.1-.1.2 0 .2-.1v-.2h-.2v.3zM83.2 72.2H83v.2h.2v-.2zM72.2 84H72v.2h.2V84zM66.7 54.4v-.2h-.2v.2h.2zM88.9 83.5h.2v-.2h-.2v.2zM70.1 84.7h-.2v.2h.2v-.2zM57 77.5h-.2v.2h.2v-.2zM83.5 81.4h-.2v.2h.2v-.2zM67.2 48.5h.2v-.2h-.2v.2zM72.4 58.7h-.2v.1c.1 0 .2 0 .2-.1zM58 76.8v-.2h-.2v.2h.2zM61.9 74.2h-.2v.2h.2v-.2zM76 73.2V73h-.2v.2h.2zM81.5 75.8h-.2v.2h.2v-.2zM86.1 76.2v.2h.2c-.1-.2-.1-.2-.2-.2zM72 94.8h-.2v.3h.2v-.3zM87.2 83.7h.3v-.2h-.3v.2zM83 79.4h-.3v.2h.3v-.2zM66.5 59.6c-.1-.1-.1-.1-.3-.1l.1.1h.2zM79.7 58.1h-.2v.1c.2 0 .2 0 .2-.1 0 .1 0 .1 0 0zM80 58h-.2v.1c.1 0 .1 0 .2-.1 0 .1 0 0 0 0z"/><path class="st1" d="M57.7 57.2h-.2v.2h.2v-.2zM71.9 95.5h.2v-.2h-.2v.2zM75.4 82.9h-.2v.2h.2v-.2zM83.5 72.5h-.2v.1c.1-.1.1-.1.2-.1zM75.4 83.9v-.2h-.1c-.1.2-.1.2.1.2zM75.8 74.1h.2v-.2h-.2v.2zM58 76.5h.2v-.1c-.2 0-.2 0-.2.1zM83 72h-.2v.2h.2c.1-.1.1-.2 0-.2zM61.9 68.3h-.2v.2h.2v-.2zM83.5 81.7h.2v-.1c-.2-.1-.2-.1-.2.1zM48.9 67.3v-.2h-.2v.2h.2zM62.6 65.4h-.2v.2h.2v-.2zM72.9 59.8h.2v-.1c-.1 0-.2 0-.2.1zM56.2 71.9H56v.2h.2v-.2zM61.7 87.7h-.2v.2h.2v-.2zM75.7 59h.2v-.1l-.2.1zM70.2 57.4c0-.1 0-.1 0 0zM76.1 59s0 .1 0 0c.1.1.1.1.2.1V59h-.2zM61.3 70.6v-.2h-.2v.2h.2zM62.2 68H62v.2h.2V68zM60.8 79.9h.2v-.2h-.2v.2zM58.4 76.3v-.2h-.2v.2c.1.1.1.1.2 0zM56.5 54.5v.2h.2v-.2h-.2zM56 59.2h-.2v.2h.2v-.2zM73.1 92.7h.2v-.2h-.2v.2zM63.7 72.9h-.2v.2h.2v-.2z"/><path class="st1" d="M107.2 49c0-1.4-.4-2.8-.7-4.1-.3-1.7-.8-3.3-1.5-4.8-1.3-2.6-2.7-5-5.1-6.8-2.8-2.2-5.8-3.1-9.1-3.5-2.1-.3-4.3-.1-6.3 0-.2 0-.3.2-.4.3 1.6.1 3.2 0 4.8.3 1.3.3 2.7.4 3.9.8 2.3.6 4.3 1.8 6.1 3.3 1.7 1.4 3.1 3.1 4.3 4.9 1.3 2 2.4 4.1 2.8 6.5.8.8-.1 2 .7 2.8L106 54c-.4 1.3-.8 2.6-1.3 3.9-.3.2-.7.4-1.1.7v.8l.8.8c-.7 1.2-1.3 2.3-2 3.3-.8 1.1-1.2 2.3-2.4 3.3.3-1.1.4-1.9.8-2.7.5-.8.3-1.8.8-2.6.4-.8.3-1.7.6-2.5s.3-1.8.4-2.8c.1-.8.3-1.8.3-2.6.1-.9 0-1.9 0-2.9.5-.1.9-.1 1.6-.2-.4-.4-.7-.6-1-.9.3-.3.5-.6.9-1-.7.1-1.1.2-1.3.3-.2-.6-.3-1.1-.4-1.7-.3-2.2-.8-3.7-2.2-5.8-.5-.9-1.6-1.4-1.8-2.5v.1c.5.2.8.3 1 .3l.9-.9-.3-.3c-.3.1-.5.2-.7.3-.1-.3-.2-.5-.4-.9-.3.6-.3.9-.6 1.4-2.1-1.8-4.2-3.6-6.3-5.2 0-.4-.1-.7-.1-.9-.8.3-.8.3-1.9.3-.2-.3-.3-.5-.5-.8-.3.1-.4.3-.6.3-.9-.1-1.8-.2-2.8-.4-2.8-.8-4.7-.7-6.6-.3-.2.1-.4 0-.7-.1.2-.2.2-.3.3-.3l.1-.1c0-.1-.1-.1-.2-.2-3.6 1.2-6.9 2.9-9.6 5.8.2 1.1 1.3 1.6 1.6 2.8-1.8-.2-3.7.3-5.5.3-2.8 0-5.5-.3-8.3.3-1.5.3-3 0-4.6.3-1.3.3-2.7.4-3.9.7-2.7.7-5.2 1.5-7.5 3.1-1.2.8-1.7 1.7-1.5 2.8l.7 1.4c.3.8.3 1.5.6 2.2.3.8-.2 1.6.4 2.3-.3 1.6.3 3 .3 4.6l.3 4.8v.2c.5.5.3 1.2.3 1.8.1.6.3 1.2.3 1.8.2 1.5.3 3.1.3 4.6v.2c.5.7.3 1.4.3 2.2-.1.8.3 1.4.3 2.2.2 1.7.3 3.3.3 4.9 0 .1-.1.3 0 .3.6.7.2 1.5.3 2.3.1.8.3 1.5.3 2.3.2 1.3.3 2.5.3 3.8v.2c.6.4.3 1 .3 1.5.1.6.3 1.1.3 1.7.1.9 0 1.8.3 2.7.3.7 0 1.5.1 2.3.1.8.3 1.5.3 2.3 0 1.2.3 2.3.8 3.4.5 1.3 1.3 2.5 2.6 3.2 1.7.8 3.4 1.5 5.2 2.1 1.4.5 2.8 1 4.3 1.5 2.4.8 4.9 1.5 7.4 2.1 1 .3 2.1.4 3.1.8.8.3 1.7.3 2.5.2.8 0 1.8-.3 2.6-.5 2.1-.6 4-1.7 5.8-2.9 2-1.3 4-2.7 5.9-4.1.9-.7 2-1.3 2.6-2.4 0-.8.1-1.5.3-2.3.3-1.4.3-2.8.4-4.3 0-.3-.1-.5 0-.7.6-.6.2-1.3.3-2 .1-.7.3-1.3.3-2 .1-1-.2-2.1.3-3.1-.3-1.5.3-2.9.3-4.4 0-.9-.1-1.8.3-2.7.3-.7 0-1.5.1-2.3.1-.8.3-1.5.3-2.3 0-1.6.6-3.2.3-4.8.6-1.1.2-2.3.3-3.4.2-1.2.5-2.3.8-3.7.7.8 1.3 1.3 1.8 1.9.5.7 1 1.3 1.3 2 .3.7.5 1.5 1.2 2 .5-.5.9-1.2 1.4-1.4 1.5-.7 2-2.3 3.2-3.3.4-.4.8-1 1.1-1.5 1-1.6 1.8-3.3 2.6-4.9 1.3-2.9 1.6-6 1.9-9.1-.1-1-.4-1.5-.4-2zm-36.4-8.1c-.3.8-.9.6-1.7.5.6-.8 1.1-.6 1.7-.5zm-2.4-.2c.1.2.2.3.3.6-.3.1-.5.1-.8.2-.2.1-.3.2-.6.3 0-.3-.1-.3-.1-.5.4-.2.8-.3 1.2-.6zm-1.7.5c-.5.3-.8.4-1.5.8.4-.9.8-1 1.5-.8zm-2.1-.1c.1.4.2.8-.7.4.3 0 .4-.2.7-.4zm-1.7-.1c.1.2.1.3.2.6-.3.1-.4.1-.6.2-.2.1-.3.3-.5.4 0-.8.4-1 .9-1.2zm2.2 1.5c1.8.5 3.7.3 5.6.3 1 0 1.9-.3 2.8-.3l.7.7c-1 0-1.8.1-2.9.1 1.3.7 2.4.7 3.6.6.2.2.4.3.8.6-1.5.2-2.8.3-4.1.5 1.4.3 2.9.1 4.3.3l.6.6h-2.2c-.3.2-.4.3-.8.7h3.6l.5.5c-.1.1-.1.2-.2.2-.9 0-1.8 0-2.7.2.7.3 1.3.2 2 .3.7.1 1.3.3 2.2.5-.5.3-.8.6-1.2.8h-3c.8-.1 1.5-.1 2.3-.1h2.4l.6.6c-.7.2-1.2.4-1.8.6.4.1.8.1 1.4.3-1.1.3-1.8.7-2.6.8-1 .2-1.9.4-2.9.4-.8-.1-1.5.3-2.3.3-1.1 0-2.2-.3-3.3-.3-1.1-.1-2.2.1-3.3-.1-.8-.2-1.7-.3-2.5-.3s-1.6-.1-2.3-.3c-1.2-.4-2.4-.3-3.7-.6-1-.3-2.2-.3-3.1-.8-.7-.3-1.4.2-1.9-.5-1.4.1-2.6-.6-3.8-1-1-.3-2-.5-3.1-.8-.3-.3-.7-.8-1.1-1.2.8-.4 1.4-1 2.4-1.2.6-.1 1.1-.5 1.8-.7.6-.1 1.3-.2 1.8-.3.6-.2 1.2-.3 1.8-.3.6 0 1.1-.3 1.7-.3.5-.1 1.1.2 1.5-.3.1-.1.3 0 .3 0 2.1-.1 4.2-.2 6.2-.3 1.4-.1 2.7-.6 3.9-.2zm6.6-1.1c.1-.2.3-.3.4-.7 0 .2.1.3.1.7h-.5zm8.5-.5c-.3-.5.2-1.3-.3-1.9.2-.7-.4-1.5.3-2v-1.1c.3-.3.5-.7 1-.6.2-.3.3-.5.7-.8.3.5.6.8.8 1.2.2-.3.3-.6.7-1.1.1.3.2.5.2.8.1-.1.2-.1.3-.2v.9c.3-.3.5-.6.8-.9h1.2v1.5h.3c0-.2 0-.4.1-.6.1-.3.3-.4.4-.7l.5.5v2l-.6.6v-1.4c-.2.1-.3.2-.3.2.3 1.3-.3 2.5-.7 3.8-.1.3-.3.4-.6.8.1-1.7.3-3.2.3-4.9-.4.3-.6.3-.8.5-.3.4-.4.8-.3 1.3h.8c-.4 1.3-.8 2.4-1.1 3.6-.1 0-.2 0-.3-.1v-1.9c-.5.4-.4 1-.7 1.5-.1.2-.3.3-.3.4v2c-.3.2-.3.2-.5.2-.2-.4-.3-.9-.5-1.5.1-.2.2-.3.3-.6.1-.2.2-.3.2-.5.2.1.3.3.5.3-.2-.5-.3-1.1-.5-1.7-.2.3-.3.5-.3.7h-.4c-.1-.3-.2-.7-.2-1H81c0 .3-.2.6 0 .8.4.8.2 1.7-.2 2.6-.1-.2-.2-.3-.2-.4-.2-.9.1-1.6-.4-2.3zm-.6-1.1c.3.3.3.6.3.9h-.3c.1-.2 0-.6 0-.9zm7 1.9c-.2-.5-.3-1-.6-1.6.3-.5.6-.9.8-1.4.7 1.2-.3 2-.2 3zM84 46h-.4c-.3-1.3.2-2.4.8-3.7.2 1.3.1 2.5-.4 3.7zm-2.5-2.4v3.3c.3-.3.7-.6.7-.7-.1-.8.3-1.3.7-1.9.3-.1.3.4.3.9.1.6-.1 1.3.2 1.9.2.4-.1 1 0 1.6.4-1 .9-2.1 1.4-3.4.1-.8.3-2 .4-3.3.1-.1.3-.3.6-.4.2.2.3.2.3.3.3 2.7-.9 4.8-1.9 7.1-.2.3-.8.7-1.2.8l-1.3-1.3-.2.2c-.2-.7-.3-1.3-.5-2.1s-.2-1.4-.3-2.1c.4-.5.5-.6.8-.9zm5.8 1.3c0 .1.1.2.1.3 0 .1-.1.1-.3.3.1-.3.1-.5.2-.6zm-.1-.2c0 .3 0 .2 0 0zm.3 1c.7-.9.8-2.3 1.7-3-.5 1.4-.8 2.8-1.7 4-.3.5-.6.9-.8 1.5-.2.7-.3.8-1.4.6.8-1.1 1.4-2.1 2.2-3.1zm-.1-1c.1-.2.2-.3.2-.3l.1.1c-.1 0-.2.1-.3.2zm3.3-2.8c-.1 1.5-.7 2.4-1.6 3.1.3-1.1.7-2.1 1.6-3.1zm-.1-3.5c.2 1.2-.3 2-.9 3-.1-1.4.1-2.2.9-3zm1.2-.4c.2.2.3.3.6.5-.4 0-.7.1-1 .1-.1-.1-.1-.2-.2-.2h.8c0-.2-.1-.4-.2-.4zm2.3 1.8c.8-.1.7.8 1.1 1.1-.3.7-.7 1.4-1.7 1.6.1.3.2.5.3.7-.2.3-.3.6-.4.9-1.2 1.5-1.6 2.1-2 2.6 0-.6-.1-1.1-.1-1.8.6-.7 1.3-1.4 1.9-2.2-.4-.5-.4-.5.9-2.9zm-1.5 1.5v-2.1h.9c.2.8-.2 1.4-.9 2.1zm5.3 5.7c.1.3.2.4.3.7.1.2.3.3.5.5-.9.2-1.8.3-2.7.5l.6.6c.6-.1 1.2-.3 1.8-.3 0 .1.1.2.1.3-.3.3-.7.4-.9.7.4.5.8 0 1.3-.1v1.8c-1.3 1-3 1.1-4.7 1l-.4-.4c.1-.8.3-1.6.3-2.4l.8-.8h.8v-.6l-1.2.3s-.1-.2-.1-.3c.2-.8.3-1.8.4-2.8.6-.6 1.2-1.4 2.2-1.7 1.8 1.6 1.8 1.8 1.2 2.9h-2.1c.7.5.7.5 1.8.1zm.2 8.5c-.1.3-.2.6-.3 1.3-.4-.8-.6-1.3-.8-1.7h-1.4c.4.2.7.3.8.4v.4c-.5 0-1 .1-1.5.1-.2.2-.3.3-.6.7.9-.1 1.8.2 2.3-.3l1.4 1.4c-.2.1-.5.2-.8.3l.2.2c-.4-.1-1-.1-1.3-.3-.5-.4-.8.2-1.3.1-.4-.1-.9 0-1.3 0-.3-.2-.4-.3-.6-.5l.6-.6c-.3-.5-.3-1 0-1.4-.5-.5-.1-1.1-.3-1.8 1.6.2 3-.3 4.3.6-.2.3-.3.6-.5.9.6 0 .8.1 1.1.2zm-5 3c1-.4 1.6.1 2.3.4 0-.2.1-.3.1-.5 1.3-.3 1.3-.2 2.6 1-.3.5-.8 1-1.2 1.7-1.1-1.1-2.9-1.1-3.8-2.6zm1.3 2.9c-.7-.3-.9-.5-1.2-.6v-1c.5.5.9.7 1.2 1.6zM93.5 45c-.1-.1-.2-.1-.3-.2l.2-.2c.1-.2.2-.3.3-.4 1.6-.8 1-.1-.2.8zm-.5-.4c.1-.1.2-.1.2-.1 0 .1 0 .1-.2.1.1 0 .1 0 0 0zM91.9 40l-.7.7v-1.3c.2 0 .3-.1.6-.1.1.2.1.4.1.7zm-.6 1.7c0-.2.3-.4.5-.7.3 1.5-.2 2.6-1 3.7-.4.5-.8 1.1-1.1 1.8-2.5 1.4-2.3 1-1.9.7l1.3-1.3c1.2-1.3 2.1-2.5 2.2-4.2zm-4.3 7c1-.6 1.7-1.1 2.2-1.4-.5.7-1.2 1.2-2.2 1.4zm.4 1.4c-.2 0-.3.1-.4.1 0-.3.2-.3.4-.3-.1.1-.1.1 0 .2zm3.2-3.4c-.3.3-.7.5-.9.8-.1-.2-.1-.3-.1-.4 1-.6 1-.5 1-.4zm-3.7 3.5h-.2.2zm-5.4 1c.7-.3 1.6 0 2.1-.4.7-.5 1.5.1 2.1-.6.1-.2.4-.1.8-.1-1 .9-2.2.9-3.2 1.3-1.2.3-2.4.5-3.6.8-1.3.3-2.5.5-3.8.3-1.2.7-2.5.2-3.8.2.2-.1.3-.1.4-.2.8-.1 1.4.1 2.2-.2.6-.3 1.6.2 2-.3.7-.5 1.4-.2 2.1-.5.8-.3 1.8 0 2.7-.3zM63 52.8c.8-.8 1.4-.9 2.4-.2-.8.3-1.6.1-2.4.2zm-.9-.6c-.1.1-.1.2-.2.3h-1.8c.5-.6.5-.7.8-.6.5 0 .8.1 1.2.3zm-2.7-.7c-.6 1-1.4.4-2.3.8.6-1.3 1.6-.5 2.3-.8zm-2.4.2c-.8.1-1.7.4-2.4-.4 1.5-.6 1.6-.6 2.4.4zm-4.3-.5v-.6h2c-.6.9-1.4.4-2 .6zm-.5-1.1-.8.8c-.2-.2-.3-.3-.5-.6.4 0 .8-.1 1.3-.2zm8.9-8.6c-.3.6-.7.7-1.3.5.3-.6.7-.7 1.3-.5zM41.2 46c.8-1.5 2.4-1.8 3.8-2.3 1.5-.6 3.2-.8 4.8-1.1.9-.2 1.8-.1 2.6-.3.8-.3 1.7-.1 2.4-.3.9-.3 1.8-.2 2.7-.3.7-.1 1.3-.3 2.3-.4-.3.5-.5.7-.6.8-.3.2-.7.3-1 .3-.5.1-1 0-1.4 0-.8-.1-1.5.1-2.3.3-.9.3-1.7 0-2.5.3-.7.3-1.5.2-2.3.3-1.3.3-2.5.6-3.7.9-.5.2-1.1.2-1.6.4-.8.3-1.6.4-1.8 1.8.3.8 1.3 1.2 2.3 1.6 1.9.8 3.8 1.1 5.8 1.8v.3c-.1.1-.2.2-.3.2-1.2.3-2.1-.4-3.1-.7-1.4-.4-2.8-1.1-4.2-1.6-.7-.3-1.2-.8-1.8-1.3-.1-.2 0-.5-.1-.7zm51.3 4.1c-.3.4-.3.8-.3 1.3.1 2.9-.6 5.8-.3 8.6-.5 1.4-.3 2.8-.3 4.3 0 .7-.5 1.2-.3 1.8.1.5.2 1.2-.3 1.7-.1.1 0 .3 0 .3l-.3 6c-.1.8-.3 1.7-.3 2.5s.2 1.8-.1 2.6c-.3 1.1-.2 2.1-.3 3.1-.1.8-.2 1.4-.3 2.2s.3 1.5-.3 2.2c-.1.1 0 .2 0 .3-.1 1.8-.2 3.5-.3 5.3-.1.8-.2 1.4-.3 2.2-.1.8.3 1.5-.3 2.2v.2c-.2 1.8-.3 3.5-.4 5.5-.4 1.2-1.7 1.8-2.8 2.5-3.3 2.3-6.8 4.2-10.5 5.9h-.3c0-1-.1-2 0-3s.3-1.9.4-3.2c.5-.3 1.2-.8 1.8-1.3 2.3-1.4 4.7-2.5 7.1-3.7.6-.3 1.4-.3 1.7-1.2-.3-.1-.6.2-.8.3-2.6 1.1-5.1 2.3-7.6 3.6-.6.3-1.2.5-2 .8.3-1.1-.3-2 .4-2.9.1-.1 0-.3 0-.3-.3-2.1.5-4.1.3-6.2-.2-2.6.6-5.1.3-7.7.3-.6.3-1.3.3-1.8h.1c0-.2 0-.3.1-.3.1-.1-.1-.3 0-.3h-.1c0-.3 0-.7.1-1 .2-.7.2-1.4.2-2.1 0-.1.1-.2.1-.2v-.4h.1c.1-.2.1-.4 0-.6h-.1c0-.2.1-.3.1-.4.4-1.8.1-3.6.3-5.4.1-1 .3-2 .5-3.1-.1-.4-.2-.9-.3-1.4.3-.1.5-.2.8-.3-.3-.2-.5-.3-.8-.4-.2.1-.5.3-.9.4.3.3.4.5.8.8-.2.3-.4.8-.7 1.3.1.1.3.2.6.3-.2.3-.3.5-.3.8.2 2.3-.3 4.4-.3 6.7h-.2v-.2h-.3c-.1 0-.1 0-.1-.1v-.1h-1v.1c-.2 0-.3.1-.4.1v.2h-.2v.2h-.2c0 .2-.1.3-.1.4h-.1l-.4-.2v.9h.2v.3c.1.1.2.1.3.1v.2h.2v.2h.3v-.2h-.2v-.2c-.2 0-.3-.1-.4-.1v-.6h-.2v-.1h.1c0-.3.1-.6.1-.8.1 0 .1-.1.2-.1v-.2h.2v-.2h.6V78h.3v.2h.3v.2h.2v.2h.2v.4c.1 0 .1 0 .2.1v.6h-.2v.2h-.2v.2h-.2v.3c-.1 0-.2.1-.3.1v.2h-.2v.2h.2v-.2h.6v-.2s.1 0 .2-.1l-.3 1.5c-.1.3-.1.8 0 1.2h-.6v.2h.6v.2c0 .3-.1.4-.2.7 0 .1-.1.1-.1.2-.1.1 0 .3 0 .3 0 .6-.1 1.1-.1 1.7h-.2v.2h-.2v.6c0 .1 0 .3.1.3h.2v.2h.1c-.1.7-.1 1.3-.3 2-.3 1.5-.1 3-.3 4.4-.2.9-.2 1.8-.3 2.7-.1.8-.3 1.4-.3 2.2-.1.7.2 1.5-.1 2.1-.3.8-.2 1.4-.3 2.3h-2c-.7 0-1.5.2-2-.2-.7-.3-1.4.3-1.9-.5-1.3 0-2.6-.8-3.9-.8 0 0-.1-.2-.1-.3-2.3 0-4.6-.7-6.8-1.1-1.4-.3-2.8-.8-4.2-.8.3.6 1 .2 1.3.7 1.8.3 3.4.9 5.2 1.3 1.3.3 2.8.5 4.1.8 2.2.4 4.4.8 6.5 1.5.1 0 .2.1.3.1 1.2-.2 2.3.3 3.5.4-.1.7.3 1.4-.3 2.1-.1.1 0 .3 0 .3.2 1.4-.4 2.8-.3 4.2l-.5.5c-1.2-.2-2.5.3-3.8-.3-1.8.1-3.5-.8-5.2-1.2-1.9-.5-3.8-1.2-5.6-1.8l-3.9-1.5c-1.6-.7-3.3-1.3-4.8-2-.2-.1-.3-.2-.4-.4-.3-1.3-.7-2.8-.8-4.3 0-.5-.2-1-.3-1.5-.1-.4.3-1-.3-1.3-.1-.1-.1-.3-.1-.4-.1-1.3-.2-2.8-.3-4.1-.1-.6-.3-1.1-.3-1.7-.1-.5.1-1.1-.3-1.5.3-1.1-.3-2.2-.3-3.3 0-.7-.2-1.3-.3-2-.1-.6.3-1.3-.3-1.8v-.2c-.1-1.3-.2-2.8-.3-4.1-.1-.7-.3-1.3-.3-2-.1-.7.2-1.3-.3-2-.1-.1 0-.3 0-.5-.2-.8.2-1.8-.3-2.7-.3-.8.2-1.7-.4-2.4v-.2c.3-1.4-.3-2.8-.3-4.1-.2-1.8-.7-3.6-.6-5.4-.5-.9 0-1.9-.4-2.8-.5-1.2.2-2.4-.6-3.5v-.2c0-.6.1-1.2 0-1.8-.1-.5-.3-1-.3-1.5-.3-.1-.1-.1 0-.1.1.1.3.2.3.3.3 1.8.3 3.8.8 5.6.2.8 0 1.8.3 2.4.3.8 0 1.6.3 2.3.5 1.3.2 2.6.3 3.9.1.6.3 1.1.3 1.7.1.6 0 1.1.3 1.7.3.4.1 1.2.2 1.7.1-1 .4-2-.1-3-.1-.2-.1-.4-.1-.7 0-1.1.1-2.1-.3-3.1-.1-.2 0-.4 0-.7h.9c.7 1.3.3 3 .9 4.5.5.1 1.2.3 1.8.3-.4-.6-1.3-.5-1.7-1.3.3-.2.5-.4.8-.7-.2-.3-.3-.5-.6-.8v-1c.2 0 .3-.1.4-.1 1.8.6 3.5.9 5.2 1.6.2.1.4.2.7.2v.3h-.2v.3h.1c0 .2.1.3.1.3h.2c0 .2.2.3.3.3.1-.1.1-.1.1-.2H53v-.2c-.1 0-.2-.1-.2-.1v-.8c.4.1.9.1 1.3.2 0 .2.1.3 0 .4h-.3v.2h-.2v.3h-.2v.2c.2 0 .4 0 .6-.1 0-.1.1-.2.1-.3.1 0 .1 0 .2-.1v-.6c.7.1 1.3.5 2 .3.7-.1 1.3-.2 2 .3.1.1.3 0 .3 0 1.8.1 3.7.3 5.5.3 1.8.1 3.7 0 5.5 0 1.1 0 2.2-.1 3.3 0 2.5.2 5-.2 7.5-.4 2-.2 4-.5 5.9-1.3 1.2-.5 2.3-1 3.3-2-1 .3-1.9.7-2.9 1-1.1.3-2 .8-3.2 1-1-.1-2 .4-3.2.4-1.1 0-2.2.4-3.3.3-1.2-.1-2.4 0-3.6 0-1.1-.1-2.3.3-3.3-.3-.3.1-.8.3-1.1.3h-7.2c-.6 0-1.2-.2-1.8-.3-.6-.1-1.3.3-1.8-.3-.3-.2-.8-.1-1.1 0-1 .2-2 0-3-.2-.1 0-.1 0-.1-.1-.2 0-.3-.1-.6-.1v.2h-.2v-.2h-.4c-1.9-.4-3.8-1-5.6-1.7-.6-.2-1-.7-1.7-1.2.5-.3.9-.6 1.3-.8.1.1.3.4.5.8.3-.5-.3-1.4.8-1.6.1 0 .3.2.6.3.2-.2.3-.3.5-.4-.1-.4-.2-.8-.3-1.1 1.3-.3 2.5-.3 3.7-.5 1.3-.3 2.6-.2 3.9-.3.1 0 .2-.2.3-.3h1.3c.5 0 .9 0 1.3-.1-.8-.3-1.8-.3-2.6.1h-4.3c-.6 0-1.2.3-1.8.3-.6.1-1.2 0-1.8 0-.2-1.4.3-2.9-.7-4.5v4.8h-1V51l-.7.7V57h-.4c-.4-.6-.5-1.2-.5-1.9V51c-.2-.2-.4-.3-.8-.6-.1.3-.3.3-.3.5.1.7.3 1.3.3 2 .1.6 0 1.2.3 1.8.3.7.1 1.6.1 2.5-.3.3-.5.8-1.3.8-.2-1.2-.3-2.3-.4-3.4-.1-.6-.3-1.2-.3-1.8-.1-.6.1-1.3-.3-1.8-.3-.4-.1-1.1-.1-1.7.8-.2 1.3.3 2 .5 1.4.5 2.8.9 4.3 1.4 1 .3 2 .6 3.1.8 1.4.3 2.8.8 4.2.8.5 0 1 .3 1.5.3.4.1 1-.2 1.3.3h.2c1.3-.3 2.6.3 3.9.3.5 0 .9 0 1.4.1v.2h.1c0-.1 0-.1.1-.2.5 0 .9.1 1.4.1v.3h.2v-.3c.8.1 1.5.1 2.3.1.8 0 1.8-.3 2.6-.3.8-.1 1.8.2 2.6-.1 1.5-.3 3.1-.3 4.6-.7 1.3-.3 2.6-.4 3.8-.8.7-.3 1.5-.3 2.3-.3 1.4-.2 2.7-.5 4-1 .1 0 .2.1.4.2-.6.5-1.2.9-1.7 1.3l.3.3c-.2 0-.4.1-.6.1.1.1.1.3.2.3-.5-.1-1.1-.2-1.8-.3-.2.3-.3.6-.6 1.1.4.1.7.1 1 .2.3.5.8 1.1 1.1 1.6-.8.8-1.8.8-2.5.5-.6-.3-1.1-.1-1.8-.1.3.1.5.1.7.2.3.1.4.3.7.3l3 .3c.1-.2.2-.3.3-.7.3.3.6.4.9.7-.3.3-.6.5-.8.8h1.2c.8.8 1.6 1.6 1.5 3.1.4-.3.7-.4.9-.5-.1-.3-.3-.5-.3-.7-.1-1.6 0-3.1.6-4.6.1-.2.1-.4.1-.6v-4.1h-.7v1.5c-.4 0-.8 0-1.2.2-.3.1-.6.3-1.2.5 1.2-1.6 1.4-1.9 2.3-2.2-.2-.9.8-.8 1.2-1.3.6.3.9.7.6 1.2zM75.6 87s-.1 0 0 0c-.1-.3-.1-.6-.1-.8h.2c-.1.3-.1.6-.1.8zM45 59.3V59h.1s0 .2-.1.3zm8.7 3.7h-.2c.1-.1.2-.1.2 0zm-7.5-4.7v-.5h.2c0 .2.1.3.1.6-.1-.2-.2-.1-.3-.1zm1.2-.9c.3 0 .6-.1.9-.1 0 .2.1.3.1.7h-.9c0-.2 0-.4-.1-.6zm42-.8c-.1-.1-.1-.2-.2-.3.3-.3.5-.5 1-.9 0 .6.1.8.1 1.2h-.9zm.9.7v1.2c-.3-.4-.5-.7-.8-1 .3-.1.5-.1.8-.2zm-1.5-1.6-.8-.8c.8-.6 1.7-.9 2.7-.8-.2 1.3-1.2 1.2-1.9 1.6zm-.9-2.1-.5.5c-.1-.1-.3-.2-.3-.3 0-.6 2.4-1.4 3.5-1.3 0 .1 0 .2.1.4-.9.3-1.7.5-2.8.7zm5.1 7.6c.8.5 1.4 1.1 1.8 1.6-.3.7-.5.7-.8.7-.6-.6-1.3-1.2-1-2.3zm1.5 3c.9.3.9.3 1.3 1.3-1 0-.9-.8-1.3-1.3zm1.6 0c-.4-.3-.6-.7-.7-1.1.3-.4.5-.3.7-.1v1.2zm2.9 1.4c0 .1-.2.1-.3.1v.6h-.3c0-.2-.1-.4-.1-.6-.7.3-.5 1.3-1.3 1.7-.4-.3-1.1-.6-.9-1.5.3-.3.7-.5.9-.7.3-1.8-.9-2.9-1.3-4.3.8.4 1.3.3 1.9.3l.7-.7c.5-1.8.9-3.6.7-5.8-.3-1.2-1.3-1.4-2.6-1.4-.8.1-1.6 0-2.4 0 0-.2-.1-.3-.1-.5l.2-.2c.7.8 1.3-.2 2-.1 1.4.2 2.6-.3 3.4-1.5 0-.9-.1-1.9 0-2.9.1-1.3-.4-2.4-.8-3.6-.3-.9-.9-1.4-1.8-1.8-.3.1-.6.3-1 .4.2-.9.3-1.7.3-2.3-1.1-2.1-3.2-2.8-4.8-4.3h-2c-1.2 1.2-1.3 2.7-1.4 4.3.5-.5.5-1.1.7-1.8.2-.8.3-1.7 1.3-2.3.2.1.3.3.4.3l-.9.9c-.3 1.6-.2 3.3-1.7 4.5-.1-.4-.1-.7-.2-.8-.5.4-.4 1.1-.7 1.6-.1.3-.3.5-.6.7.3-1.4.6-2.8.9-4.3.4-1.5.2-3.1.3-4.7l-.9-.6c-1-.5-2.2-.4-3.3-.8-.5-.2-1.1-.1-1.7.1-.9.3-1.9.4-2.6 1.4.1 1.3.3 2.7.3 4-.7-.6-.9-1.3-1.3-2.1-.3-.8-.8-1.3-1.7-1.7-.3-.1-.5-.3-.9-.4-.7.6-1.7.5-2.1 1.4.5-.1 1-.3 1.5-.4.1 1.1.6 2.1.4 3.2.5.5.1 1.5 1 1.8-.2-.8-.4-1.5-.7-2.3-.1-.2 0-.4 0-.9l.7.7c.8.9.8 1.7 1.1 2.7h-.6c.4.5.6 1.3 1.3 1.6 0-.7 0-.7-.3-1.2.2-.1.4-.2.6-.2-.3-.7-.5-1.3-.8-2.2v-1.2l.4-.4c.1.1.2.1.2.2.2.9.8 1.6 1 2.5.3 1.2.5 2.3.9 3.5.4 1.3.2 2.7.9 3.8.2.3 0 .6 0 1.3-.9-1.1-1.8-1.9-2.4-2.8-.8-1-1.4-2.1-2.2-3.2-1.1-1.4-2.3-2.8-3.4-4.3v-.8c.3-.3.6-.8.9-1.2-.8-.2-.9.6-1.6 1-.2-.4-.3-.8-.5-1.1.6-.3 1.1-.6 1.6-.9.3-.2.6-.3.8-.5.8-1 1.6-1.5 2.8-1.8 1-.3 1.9-.8 3-1 .3-.1.6-.3.8-.3 1.5 0 3.1-.2 4.5 0 1.5.2 3 .3 4.4 1.1.9.5 1.9.8 2.9 1.5h-.9c-.7-.3-1.1-.5-1.7-.8.3.8.7.8 1.3.8.2.1.3.3.4.3.8.1 1.6.2 1.9 1.2.1.3.5.6.9.4-.2-.3-.4-.6-.8-1 .3.1.6.2.8.3 1.1.6 1.8 1.5 2.7 2.3.2.2.2.4.3.7 1 .8 1.9 1.6 2.3 2.8.2.5.6.9.9 1.4.8 1.3 1.1 2.8 1.3 4.3.3 1.8.3 3.5.3 5.3-.2 3.1-.7 6.1-1.8 9-.3 1.8-.8 3.1-1.4 4.2zM77 37v1l-1.3-1.3s0-.3.1-.8c.4.6.9.8 1.2 1.1z"/><path class="st1" d="M103.9 45.3c-.2.3 0 .8.3.9.3.3.7.1 1.2-.5-.3-.1-.6-.1-1-.2.3-.2.6-.3.8-.3v-.3c-.6-.4-1-.2-1.3.4zM103.9 51.7c0 .2.2.3.3.8.3-.6.5-1 .8-1.5-.7-.2-1.1.1-1.1.7zM104.3 53c-.1.3-.3.8-.3 1.2.3-.2.7-.4 1.3-.8-.5-.2-.8-.4-1-.4zM94.6 34v.5h1.3V34h-1.3zM103 45.3h.2c.2-.4.3-.8.5-1.3h-.7v1.3zM103.9 42.1h-.5v.9h.5v-.9zM83.7 30.4c.2 0 .3-.1.4-.1-.6-.1-1.1-.4-1.9.2.7-.1 1.1-.1 1.5-.1zM98.1 36.4v.5h.7c-.1-.3-.1-.4-.1-.6-.3 0-.4 0-.6.1zM101 39.2c.1.4.1.7.2 1.1.2-.5.3-.8.5-1.1h-.7zM104.3 43.5v.5c.3-.2.4-.3.9-.5h-.9zM80.6 30.8h-.7v.2h.7v-.2zM81.8 30.6v-.2h-.5v.3c.2 0 .4-.1.5-.1zM103.3 55.4c.2-.1.3-.1.5-.2V55h-.5v.4z"/><ellipse class="st1" cx="97" cy="35.5" rx=".1" ry=".3"/><path class="st1" d="M86.7 93c-.8 1.7-2.1 3-3.8 3.8-.8.4-1.7.6-2.3 1.1-.8.7-1.8.3-2.6 1-.5-.3-1-.6-1.3-.8-.2-1.3-.3-2.5-.6-3.9-.5 2-.7 3.7.6 5.3.9-.1 2-.1 2.9-.4 1.3-.4 2.6-1 3.7-1.8 1-.7 2.2-1.2 2.8-2.2.9-1.3 2-2.7 2.1-4.5-.2 0-.3-.1-.4-.1-.3 1-.7 1.8-1.1 2.5zM81.2 53.7c-1.3.3-2.3.7-3.2.9-.1 0-.3.1-.3.1-1.4.3-2.8.8-4.3.8h-4.7c-1.5 0-3.1.1-4.6-.3-.9-.3-1.8-.1-2.9-.1-.2-.1-.3-.3-.4-.3h-1.6c.2.1.3.3.4.3H61l.3.3c.8 0 1.7-.1 2.5.3 1.7-.3 3.3.4 5.1.3 1.3-.1 2.5-.1 3.8 0 1.3.1 2.3-.5 3.6-.3.2 0 .3-.1.4-.1 1.3-.4 2.5-.8 3.8-1.2.1 0 .2-.3.7-.7zM87.6 64.5c.9.3 1.6-.7 2.4-.1-.2 1.2-1.6.8-2 1.8.7 0 1.4-.9 1.9.2-.1.3-.3.5-.4.8-.5.2-1 .3-1.5.5v.2h1.6v1.3c-.7-.1-1.3 0-2 .8.7-.2 1.1-.3 1.6-.5.2.2.3.3.5.4-.2.3-.3.3-.3.5 0 1.8-.1 3.8.1 5.8.2-.3.3-.3.3-.4.1-1.7-.1-3.3.3-4.9.3-1.3 0-2.6.3-3.9.3-1-.1-2.1.3-3.1.1-.2 0-.5 0-.9-1.1.3-2 .9-3.1 1.5zM64 62.2c-1.1-.3-2.3-.2-3.4-.3-1.5-.3-3.1-.4-4.6-.7-.3-.1-.5 0-1 .1 4.4 1.3 13 1.8 15.6 1.3l-.2-.2c-2.2.1-4.3.3-6.4-.2zM86.4 61c-.8.6-1.9.5-2.8 1.2-1.6-.1-3.1.8-4.8.7-.3 0-.7-.1-.8 0-.3.3-.5.3-.8.3-.2 0-.3.1-.5.2 3.6-.2 7.2-.3 10.3-2.2.1-.2.1-.2 0-.4-.3.2-.4.2-.6.2zM75.8 108c.1.3.2.4.4.8.3-1.8.5-3.3.8-4.8-.3 0-.4.1-.6.1-.2 1.4-.4 2.8-.6 3.9zM46.8 63.6c1.8.9 3.6 1.4 5.5 1.5 0-.1-.1-.3-.1-.3-1.3-.2-2.6-.5-3.8-1-.4-.1-1-.2-1.6-.2 0-.1 0 0 0 0zM46.4 78.8c-.3 2.7-.3 3.4.3 5.4.5-1.8-.5-3.6-.3-5.4zM50 101.4c-.5-.8 0-1.7-.5-2.7-.3 1.9 0 3.5.4 5.1.2-.1.3-.1.7-.3-.8-.6-.3-1.5-.6-2.1zM51.3 100.5c0-.3-.1-.4-.1-.7-.1 1.5-.6 3.1.4 4.5 0-.3.1-.6 0-.8-.4-.9-.2-2-.3-3zM78.7 106.5c1.3.1 2.3-.6 3.2-1.6l-3.2 1.6zM82.7 64.7l-2.4 1.2c1 .1 1.8-.4 2.4-1.2zM71.7 109.7c-.8-.2-1.7-.3-2.5-.4 1.2.7 1.5.7 2.5.4zM73.8 88.5c-.1-.2-.2-.5-.2-.6-.2.1-.4.1-.5.1v-.2h-.2v-.4h-.2v-.2c-.1 0-.1 0-.2-.1 0-.1-.1-.2-.1-.2h-.2v-.2H72c0-.1 0-.2-.1-.2h.1-.3c0-.1-.1-.2-.1-.2H71v-.2h-1v.2h-.6c0 .1-.1.2-.1.2H69v.2h-.2v.2c-.2 0-.3.1-.3.1 0 .2-.1.3-.1.3h-.1v.2c-.2 0-.3.1-.3.1 0 .1-.1.3-.1.3h.1c-.1.2-.1.3-.1.5v1.5c.1 0 .1 0 .2.1v.3c.1 0 .1.1.2.1 0 .1.1.3.1.3h.2v.2h.2v.2c.2 0 .3.1.3.1v.2h.2c0 .1.1.1.1.2.2 0 .3.1.6.1v.2c.4.1.9.1 1.3 0v-.2c.2 0 .4 0 .5-.1 0-.1.1-.1.1-.2h.2v-.1c.1 0 .3-.1.3-.1V91h.6v-.3h-.4c0-.1.1-.1.1-.2h.1v-.2c.1 0 .1 0 .2-.1 0-.2 0-.3.1-.6h.2v-.4c.2 0 .3-.1.4-.2h-.4v-.8c.1.3.4.3.5.3zm-1.3.7h-.3c.2.1.3.1.4.2v.1h-.2v.2h-.2v.2H72v.2h-.2c0 .1 0 .1-.1.2h-.2v.2c-.1 0-.1 0-.2.1v.2h-.2v.6h-.2v.2c-.1 0-.3.1-.3.1v.2c-.2 0-.4 0-.6.1v-.2c-.2 0-.3-.1-.4-.1v-.2h-.3v-.2H69v-.2c-.2 0-.2 0-.2-.2h-.2v-.4h-.2c0-.3-.1-.5-.1-.8h-.1v-.6h.1c0-.1.1-.3.1-.4h.2v-.8h.2v-.3c.2 0 .3-.1.4-.1v-.2h.3c0-.1.1-.1.1-.2h.3c.3-.1.6 0 .9-.1.3 0 .5.1.8 0v.3c.1 0 .2 0 .3.1v.2h.1c.1.2.1.3.1.6h.2v.2c-.2 0-.3.1-.4.1v.2h.6s-.1.3 0 .5zM52.4 102.5c-.3.8.1 1.3.5 1.8-.1-.6.4-1.3-.5-1.8zM52.4 65.2c.7.4 1.5.4 2.6 0h-2.6zM82.2 55.8H80c.7.2 1.4.3 2.2 0zM87.2 98.1c-.6.3-1 .6-1.5.8 1.3-.1 1.3-.1 1.5-.8zM71.5 108.7c-.7.2-1.2-.7-2-.3.7.3 1.2.9 2 .3zM45.9 78.4c.2-.6.4-1.3 0-1.8v1.8zM77.3 106.8c-.5.5 0 .6.3 1.1v-1.8h-.3c0 .2.1.6 0 .7zM52 72.2v-.6c-.4 0-.8.1-1.3.1v.2c.5.1.9.1 1.3.3zM53.7 95.3c.4.1.8 0 1.3 0-.2-.1-.3-.3-.4-.3-.4-.1-.8 0-1.3 0 .1.1.3.3.4.3zM71.7 104.1h-1.2v.2c.3.1.7.3 1 .3.5.1.2-.2.2-.5z"/><path class="st1" d="M81.8 105.1c.5-.3.9-.4 1.4-.6-.7-.3-1.1 0-1.4.6zM87.1 99.2c-.3.2-.7.3-1.2.5h1.2v-.5zM70.5 62.3v.2h1.3v-.2h-1.3zM49.9 66.3v.4h-.2v.2h-.2v.3h-.2v.2h.3v-.2h.3V67h.2c0-.2.1-.3.1-.3h.1v-.1h.4-.2c0 .2-.1.3-.1.3-.1 0-.2.1-.2.1v.2H50v.2h.3v.2H50v.3h-.2v-.2h-.2v.4h.2v.4h.2v.2h.2v.2c.1 0 .1.1.2.1 0 .1.1.3.1.3h.2v.2h.2v.2h.2v.2c-.2-.1-.3-.1-.7.2h.9c-.1-.1-.1-.1-.2-.1.1 0 .3.1.3.1v.1c.2 0 .3.1.4.1v.1h1v-.2c.2 0 .4 0 .6-.1V70c.2 0 .3-.1.4-.1v-.2h.3v-.2c.2 0 .2-.1.2-.2h.2v-.4h.2c0-.3.1-.4.1-.6v-.7c0-.3 0-.4-.1-.7v-.1h-.2v-.3h-.2c0-.1-.1-.3-.1-.3H54v-.3h-.3v-.2h-.3v-.2c-.3 0-.4 0-.7-.1h-.2v-.2h-.3v.1c-.3 0-.5.1-.8.1v.1c-.1 0-.3.1-.3.1v.2h-.2v.2c-.1-.1-.2-.2-.3-.2h-.3v-.2h-.2v-.3h-.2v-.2c-.2 0-.3.1-.3.1v.1h.2v.2h.2v.3h-.2c0 .3 0 .4.1.5zm.8 1.7v-.2h-.2v-.3c-.1-.2 0-.3-.1-.4h.6v.2h.3c.1.3.1.6 0 .8H51c0-.1-.2-.1-.3-.1zm.5-1.5c.1-.1.3-.2.3-.2v-.2h1.6v.2c.1 0 .2.1.2.1.1 0 .1 0 .2-.1v.2h.2v.2c.1 0 .3.1.3.1 0 .1 0 .1.1.2 0 0 .1 0 .2.1.1.3.1.5.1.8h.2v.3h-.2c0 .3 0 .7-.1.9h-.1v.2c-.1 0-.1 0-.2.1 0 .1 0 .1-.1.2h-.2v.2h-.2c0-.1-.1-.2-.2-.2v.2h-1.5c-.1 0-.2 0-.3-.1v-.3c-.1 0-.1-.1-.2-.1V69h.2v-.2h.2c.3.1.4.2.7.2v-.5h-.7v-.8h-.2v-.2h-.3v-.2h-.3c-.1 0-.2 0-.3-.1v-.1h.2v-.3c.2-.3.3-.3.4-.3zM76 71.7h-1.2v.3c.4 0 .8-.1 1.2-.1v-.2zM85.5 98c.3-.2.6-.4 1-.7-.8-.2-.8.2-1 .7zM49.8 52.9v1.2h.3c0-.4-.1-.8-.1-1.2h-.2zM56.7 54.1s-.1.2-.1.3h1.3c-.3-.5-.8-.2-1.2-.3zM58.7 54.5c-.3-.1-.6 0-.9 0 .2.1.3.3.4.3.3.1.6 0 .9 0-.1-.2-.2-.3-.4-.3zM86.5 101.1c.3-.2.4-.3.7-.4-.9-.4-.8 0-.7.4zM64.2 107H64v.8h.3c0-.2-.1-.5-.1-.8z"/><ellipse class="st1" cx="73.2" cy="87.4" rx=".7" ry=".1"/><path class="st1" d="M48.3 65.8v1.1h.2v.2h.2v-.3h-.2v-.9h.2v-.2h.2v-.2h.6v-.3h-.6c0 .1 0 .2-.1.2s-.2 0-.3.1c-.3-.2-.6 0-.8-.1.2.5.4.4.6.4z"/><path class="st1" d="M49.7 66.1c-.2-.7-.7-.2-1-.3.2.6.7.2 1 .3zM87.7 64.5c-.3.1-.8-.3-1 .3.4-.1.9.3 1-.3zM52 99.2h.9c-.3-.3-.3-.3-.9 0zM52 66.5h-.9c.4.3.4.3.9 0z"/><ellipse class="st1" cx="53.8" cy="91.9" rx=".7" ry=".1"/><path class="st1" d="M63.7 107.5v-.8h-.3c0 .3.1.6.1.8 0 .1.1.1.2 0zM80.8 67.6v-.2H80v.3c.2 0 .6-.1.8-.1zM51 57.6c-.3 0-.6.1-.8.1v.2h.8v-.3zM79.2 67.8h-1v.2h1v-.2zM64.6 105.4h-.2v.8h.3c0-.2-.1-.5-.1-.8zM86.7 57.8v.3c.3 0 .7 0 .9-.1v-.3c-.2 0-.5 0-.9.1zM70.2 107.6h.8v-.3c-.3 0-.6.1-.8.1v.2zM86.7 65v-.3c-.3 0-.4.1-.7.1v.3c.3 0 .5-.1.7-.1zM79.8 66.4v-.3c-.2.1-.3.1-.5.2v.2c.2-.1.4-.1.5-.1zM46.7 66.7c.2 0 .3-.1.4-.2-.2-.1-.4-.1-.8-.3.3.4.4.5.4.5zM47.9 67.1c-.3-.3-.3-.4-.3-.3-.2 0-.3.1-.4.2.1 0 .3 0 .7.1zM47.6 68.7c-.2 0-.3.1-.4.2.2.1.4.1.8.3-.3-.4-.3-.5-.4-.5zM49.4 74.3h-.7v.2h.7v-.2zM51.3 75h-.7v.2h.7V75zM49.9 76.5l-.3-.3c-.2 0-.3.1-.4.2 0 0 .3.1.7.1z"/><ellipse class="st1" cx="71.5" cy="89.6" rx=".5" ry=".1"/><path class="st1" d="M72.4 92c-.2 0-.3.1-.6.1v.2h.5c.1-.1.1-.2.1-.3zM83.5 93.5h-.7v.2h.7v-.2zM54.9 95.5c.2.1.4.1.8.3l-.3-.3c-.2-.1-.3-.1-.5 0zM52.1 96.3c.2 0 .3-.1.6-.1V96h-.5c-.1.1-.1.2-.1.3zM88.1 59v.2h.5v-.3c-.2.1-.4.1-.5.1zM59.7 103v-.5h-.3c.2.2.2.4.3.5zM56.5 103.6v-.2H56v.3c.2 0 .3 0 .5-.1zM55.6 104.6h.7v-.2h-.7v.2zM70.4 105c.2 0 .3-.1.4-.2-.2-.1-.4-.1-.8-.3.2.5.3.5.4.5z"/><ellipse class="st1" cx="55.2" cy="105.2" rx=".5" ry=".1"/><path class="st1" d="M71.2 105c-.2 0-.3.1-.4.2.2.1.4.1.8.3-.2-.3-.3-.5-.4-.5zM74.5 73.6v.3c.2 0 .3-.1.6-.1v-.2h-.6z"/><ellipse class="st1" cx="55.4" cy="103.3" rx=".1" ry=".3"/><ellipse class="st1" cx="51.5" cy="95.8" rx=".1" ry=".3"/><path class="st1" d="M80.2 103.8c-.1.1-.1.3-.1.3h.1v-.3zM56.2 92.2c-.2 0-.3.1-.3.2-.3 0-.8 0-.9.2-.7.6-1.4.5-2 .5-.7.6-1.2 1.1-1.7 1.5.6.4 1.3.5 1.9.4-.3-.2-.5-.4-.8-.8.3-.2.6-.3.8-.4.3-.1.5-.2.8-.2.3 0 .5.2.9.3-.2-.3-.3-.6-.3-.8.4-.2.8-.4 1.3-.6v-.2c.1.1.2 0 .3-.1zM48.8 76l.3.3.1-.1c-.1-.2-.2-.2-.4-.2 0-.1 0 0 0 0zM88 73.1h.3V73c-.1 0-.2 0-.3.1zM79.9 105c.2-.1.4-.1.6-.2v-.3c-.2 0-.4 0-.6.1v.4c-.2 0-.3.1-.3.2l.1.1c.1 0 .2-.1.2-.3zM51.7 70.2l-.3-.3-.1.1c.1.1.2.2.4.2-.1.1-.1 0 0 0zM46.9 68.4c0 .2.1.3.2.3l.1-.1c-.1 0-.2-.1-.3-.2zM88.3 71.3c-.2.1-.4.1-.6.2v.3c.2 0 .4 0 .6-.1v-.4s.1 0 0 0c.2 0 .3-.1.3-.2V71l-.3.3z"/><ellipse class="st1" cx="58.7" cy="106.9" rx=".1" ry=".3"/><ellipse class="st1" cx="48.2" cy="67.2" rx=".1" ry=".3"/><ellipse class="st1" cx="55.4" cy="101.3" rx=".3" ry=".1"/><path class="st1" d="M86.5 102.1c.1-.1.1-.3.1-.3h-.1v.3zM65 43.2v.5h3.2c-1-.2-2-1-3.2-.5zM65.7 44.5c.8.2 1.8.3 2.6.1v-.4c0-.1-.1-.1-.1-.1-2-.1-2-.1-2.5.4zM69.3 45.6l-.7-.7c-.8.1-1.6-.1-2.4.3 1 .2 2 .3 3.1.4zM74.1 47.5c-.1-.2-.2-.5-.2-.5-.8.2-1.5.3-2.1.3.9.2 1.8.4 2.3.2zM46.5 45c-.1.2-.2.3-.3.5.8.1 1 .1 1.9-.5h-1.6zM49.7 44.8h-1.6c.6.2 1.1.2 1.6 0zM47.2 46v.3c.4 0 .8-.1 1.2-.1V46h-1.2zM72.7 46.2V46h-1.2v.3c.4 0 .8 0 1.2-.1zM48.5 46.7v.2h.8v-.3c-.2 0-.6.1-.8.1zM64.6 47.2v-.3c-.2.1-.3.1-.5.2v.2c.1-.1.3-.1.5-.1z"/><ellipse class="st1" cx="68.9" cy="47.5" rx=".5" ry=".1"/><path class="st1" d="M67.3 46.1v.2h.5V46c-.1 0-.3 0-.5.1zM51.7 44.4v.3c.2 0 .3-.1.6-.1v-.2h-.6z"/><ellipse class="st1" cx="68.7" cy="46.5" rx=".1" ry=".3"/><path class="st1" d="M100.1 44.4c-.2-.8-1.1-2.1-1.6-2.6.3 1 .5 2 1.6 2.6z"/><path class="st1" d="M101 46.6c-.1-.6-.2-1.2-.3-1.7-.1-.3-.4-.4-.7-.6.1.6.2 1.2.3 1.7.2.3.5.5.7.6zM97.4 39.8c0 .8.5 1.4 1 1.9 0-.7-.1-1.5-1-1.9zM96.2 38.2c-.4-.6-.8-1.3-1.6-1.3.3.6.7 1.3 1.6 1.3zM101.1 54.4v2.3c.3-.7.4-1.2 0-2.3zM101 56.8c-.4.6-.4.6 0 1.6v-1.6zM100.3 60.5c.1-.3 0-.6 0-.9-.1.2-.3.3-.3.4-.1.3 0 .6 0 .9.2-.1.3-.2.3-.4zM84.7 33.3s.1-.2.1-.3h-1.3c.2.5.7.2 1.2.3zM97.4 39.8v-.7c-.3-.1-.4-.3-.7-.3.1.6.2.9.7 1zM101 47.5c0 .2.2.3.3.4v2.2c-.1.3-.3.6-.3.8 0 .3.3.7.3 1 .1.3 0 .8 0 1.2v1.1h.3V48h-.3v-.9c0-.2-.2-.3-.3-.4v.8zM99.8 61.9c-.7.2-.2.7-.3 1 .5-.2.1-.7.3-1zM99.4 62.9c-.7.2-.2.7-.3 1 .6-.2.2-.7.3-1z"/><path class="st1" d="M99.1 63.8c-.7.2-.2.7-.3 1 .5-.2.1-.7.3-1zM100.1 60.9c-.7.2-.2.7-.3 1 .5-.2.1-.7.3-1zM98.4 65.8h.3v-1c-.6.2-.1.7-.3 1zM87.7 42.1c.7-.2.2-.7.3-1-.6.2-.2.7-.3 1zM100.4 58.6v.9c.4-.3.4-.3 0-.9zM82.7 32.6c.2.3.3.4.3.4.2 0 .3-.1.4-.2-.1 0-.3-.1-.7-.2zM89.4 34.3c.1-.1.1-.3.1-.3h-.1v.3zM95.6 49.8c-.3.2-.8.3-1.2.6.9.1.9.1 1.2-.6zM79.2 46v-2c0-.1-.2-.2-.3-.3l-.3.3c0-.1-.1-.2-.1-.3h-.3c.1.3.2.7.3 1 .2.3.4.6.7 1.3zM78.6 42.7v1h.3c-.1-.3.3-.8-.3-1zM78.3 43.7c-.1-.3.2-.6-.3-.7 0 .3-.2.7.3.7zM78.3 42.1c0 .2 0 .4.1.6h.3c0-.3-.1-.4-.1-.7-.2.1-.2.1-.3.1zM80.2 38.5c.1.4.3.8.5 1.3h.2v-2.3c-.1-.1-.3-.2-.3-.3-.1-.1-.3-.3-.3-.4-.1.7-.1 1.2-.1 1.7zM81.2 36.4l-.3 1.2c.3-.2.4-.3.7-.4v-1.6c0-.1-.2-.2-.3-.3-.1.3-.1.7-.1 1.1zM83.5 40.1c.6-.4.7-1 .7-1.6-.7.4-.7 1-.7 1.6zM83.8 36.4c0-.2-.1-.3-.2-.4-.1.2-.1.4-.3.8.4-.3.5-.3.5-.4zM82.1 38.5c-.1.1-.1.3-.1.4h.1v-.4z"/></svg>