<svg version="1.1" id="圖層_1" xmlns="http://www.w3.org/2000/svg" x="0" y="0" viewBox="0 0 141.7 105.3" style="enable-background:new 0 0 141.7 105.3" xml:space="preserve"><style>.st0{fill:#f0f0ee}.st1{fill:#bc955c}</style><path class="st0" d="M114.9 15.4c-.7.4-1 1.1-1.4 1.7-.4.6-1.2.8-1.7 1.3 0 0-.1 0-.2.1-1.1-.1-2.1-.1-2.7.8-.5 0-.7-.4-1-.4-.9.4-1.5 1.1-2.3 1.6-.2-.4-.7 0-.9-.4-.8.3-1.2 1.1-1.9 1.6-.2-.3-.5-.4-.8-.5-.4.2-.7.4-1.1.6 0 .3-.2.4-.4.6-.5-.1-.5-.1-1-.5-.9.4-1.8.8-2.3 1.7h-.4c-1-.4-1.8-.2-2.3.6-.1.1-.2.4-.4.5-.3.1 0 .5-.4.5h-.2c-.6-.4-1.1-.1-1.6.3s-.8 1-1.2 1.6c-.6-.2-1-.2-1.3.3-.3.6-.6 1.1-1 1.7h-1c-.6.5-1 1.2-1.2 1.9H85c-.9.7-1 1.7-1.4 2.6-1.5.4-1.6 1.6-1.6 2.9-.5.2-1 .5-1.2.9-.4.7-.3 1.4-.3 2.2-1.5.5-1.5 1.7-1.4 3l-1 1V46c-.5.3-.9.9-.6 1.4s.1.8.2 1.2l-.5.5v2.5c-.3.1-.5.4-.8.6-.3.8.5 1.5.3 2.2-.6.7-1 1.3-.5 2.1.1.1 0 .4 0 .6-.6.3-.7.9-.9 1.4.4.6.1 1.3.2 2-.1.1-.3.3-.5.4.1.4-.1.8.2 1.2.1.2.1.6 0 .8-.3.4-.2.9-.3 1.3-.1.4 0 .9.1 1.3 0 .4-.3.6-.3 1v1.1c0 .6 0 1.2-.3 1.7-.2.4-.2.7-.2 1.1v1.1l-.5.5v1.9c.7.6-.2 1.1-.2 1.6v.4c0 .5 0 1.1-.2 1.6-.2.7-.4 1.2-.9 1.7v-.3c0-.2 0-.3-.1-.4h-.2c0-.2.3-.4.2-.6.1-.3.2-.5 0-.8v-.8c.1-.1.1-.3 0-.4v-1.3c.1-1 .1-1.9.2-2.9.1-.6.2-1.2.1-1.9v-4.9c.1-.2.1-.4.1-.6.1-1 .1-2.1.1-3.1v-.1c.1-.4.1-.9.1-1.3v-.4c0-.1 0-.3.1-.4.1-.3.1-.7.1-1.1 0-.3.1-.6.1-.9 0-.2 0-.3.1-.5.2-.4.2-.8.2-1.2 0-.2 0-.3.1-.5v-.2h.1c.1-.4.1-.7 0-1.1 0-.1.1-.3.1-.4 0-.1 0-.1.1-.2l.1-.1c-.1-.5.4-.9.2-1.4 0-.2.1-.4.1-.6l.2-.2c-.2-.5.3-.9.2-1.4v-.3c.1-.4.2-.7.2-1.1 0-.2.1-.3.1-.5.2-.8.3-1.5.4-2.2.1-.4.1-.8.2-1.2.1-.3.1-.5.1-.8 0-.6-.1-1.2.2-1.7-.1-1.2.4-2.4.3-3.7 0-.7-.1-1.3.2-2 .2-.5.1-1.1 0-1.7 0-.6.3-1.1.3-1.7-.1-2.2.2-4.5-.2-6.7-.2-1.3 0-2.6-.2-3.9-.2-1.3-.3-2.6-.5-3.9-.2-1.1-.6-2.2-.8-3.3-.1-.3-.3-.4-.5-.5-.2 0-.3.3-.5.4.2 1.2-.2 2.4-.2 3.6 0 .1 0 .2-.1.3-.5.5-.4 1.2-.4 1.8-.4.4-.5.9-.5 1.4.1.6-.1 1.2-.4 1.6-.3.5-.5 1.1-.7 1.7 0 .3-.1.7-.3.8-.6.6-.6 1.3-.6 2.1v.9c-.4.3-.4.8-.6 1.2-.1.3-.2.5 0 .8.2.4.1.8.1 1.1-1 .9-.5 2.1-.7 3.2-.5.1-.4.7-.7.9v2.1l-.5.5V41c-.4.4-.5.9-.5 1.4 0 .9.2 1.8-.2 2.7-.1.2-.2.7 0 .9.3.4.1.8.2 1.2-.3.2-.5.3-.5.5s-.2.3-.2.4c.4.5 0 1.2.4 1.6v.3c.1.2-.2.3-.2.5-.1.2-.1.5 0 .8.2.7.4 1.4.4 2.2-.1 1.1.4 2.2.2 3.3.3.5.2 1.2.5 1.6-.4.5-.4 1.1-.2 1.6.5 1.6 1.2 3.1 1.1 4.8 0 .1.1.1.1.2.3.7.4 1.5.4 2.3V75c0 .3.1.6-.2.9-.2-.9-.5-1.8-.7-2.6v-.5c0-.1-.1-.1-.1-.2h-.1c-.1-.6-.2-1.2-.2-1.9-.2-.3-.4-.6-.4-.9.1-.8-.2-1.7-.3-2.5l-.4-.4c0-1.9 0-1.9-1.2-3.1V61.6c.1-.5-.2-.9-.7-1.1.2-.7-.3-1.3-.2-2.1-.2-.2-.4-.5-.7-.7v-1.3c.1-.7-.2-1.2-.7-1.7 0-1.1.2-2.2-.7-3.1.2-.8-.2-1.5-.5-2.2-.2 0-.4-.2-.6-.4.2-.7-.3-1.2-.3-1.9 0-.3-.2-.7-.5-.8-.4-.2-.6-.5-.6-.9s-.3-.8-.3-1.3c-.1-.6-.7-.9-1.2-1.2 0-.8-.3-1.5-.6-2.1-.6-.1-.6-.7-.8-1.2s-.4-.9-.7-1.3c-.2-.2-.7-.2-.7-.5-.1-.4-.2-.6-.3-.9-.2-.5-.6-1-1.1-1.4-.7-.1-.7-.1-1.1-.2-.3-.6-.6-1.2-.9-1.7-1-.5-1.1-.5-1.6-1.4-.2-.5-.6-.8-.9-1.2-.1-.1-.3-.1-.5-.1-.4-.3-.4-.9-.8-1.3-.3.1-.4-.3-.8-.3-.1.1-.3.4-.5.2-.3-.6-.6-1.1-.8-1.5-.2-.1-.3-.2-.5-.3l-.1-.1-.1.1c-.3-.1-.6-.1-.8.1-.5-.7-.7-1.5-1.5-1.9-.3 0-.6-.1-.9.2-.5-.8-.7-1.7-1.8-1.9-.3.2-.7.3-1.1 0-.2-.2-.4-.3-.6-.5-.8-.8-.9-.8-2-.5h-.2c-.7-.9-.7-.9-1.7-1.4-.3.3-.6.3-.9.5-.7-.4-1.4-.9-2.1-1.4-.4 0-.9-.1-1.3.4-.1-.5-.5-.3-.7-.6-.4-.6-1.2-.6-1.8-.5-.2 0-.4.3-.7.2-.8-.5-1.4-1.3-2.4-1.2.1.3.1.5.2.7.6 1 .9 2.1.8 3.3-.1.3-.1.7.2.9 0 .9.8 1.6.3 2.6l-.3.3c.1 1.1.6 2.1 1 3.3-.5.2-.2.8-.6 1.1.7.9.9 1.9 1.6 2.7-.3.5-.5 1-.3 1.5.6.6 1 1.4 1.4 2.2-.1.3.1.8-.2 1.1 0 .7.4.9.7 1.3.4.4.7 1 .2 1.5l1.5 2.4c-.4.2-.4.5-.3.8.4.3.6.7 1.1.9.2.1.4.4.6.8.5 1.2.5 1.2 1.6 1.8.2.1.4.2.5.3.3.5-.3.9-.2 1.5.3.3.6.7 1.1.9.6.2.9.7 1.2 1 0 .4-.3.4-.2.8.6.7 1.8.9 2.4 2v.9c.8.7 1.7 1.2 2.6 1.6.1.4.4.7.3 1.1.7.2 1.1.7 1.8.7.3.3.6.5.9.8 0 .4.1.8.6.8.4 0 .6.2.9.3.6.2 1.1.5 1.3 1.1.9.5 1.9.8 2.6 1.4 0 .4-.3.4-.2.8.8 1 2.2.9 3.3 1.7v.7c.9.8 2.4.3 3.1 1.4l-.2.2c.8 1.1 2.3 1 3.3 1.9.1.1-.1.4.1.6.2.2.4.2.6.3.6.3 1.4.5 1.6 1.3.1.1.2.2.4.3.5.1.8.5 1.3.7.6.3.8.9 1.2 1.4 1 1.2 1.9 2.3 2.5 3.7.6 1.3 1.2 2.7 1.1 4.3-.1 1-.1 1.9-.2 2.9-.1 1.3-.3 2.5-.5 3.7.8.8 1.4 1.7 2.5 2.1.5-.3.7-.9.8-1.4.3-1.1.5-2.3.7-3.5s.6-2.3 1.1-3.4c.4-1.1 1.2-2 1.7-3 .6-1.3 1.4-2.5 2.1-3.7.7-1.3 1.5-2.5 2.3-3.8.4-.6.7-1.4 1.2-2 1.1-1.5 1.9-3.2 2.9-4.8.4-.6.7-1.3 1.1-2 .4-.7.8-1.5 1.3-2.1.7-.9 1.1-1.9 1.7-2.8.8-1.3 1.7-2.5 2.4-3.9.6-1.1 1.3-2.2 1.9-3.3.3-.6.6-1.2.9-1.7.5-.9 1.1-1.7 1.6-2.6.7-1.2 1.3-2.3 2-3.4.6-1.1 1.5-2.1 2.2-3.1.6-.7 1-1.5 1.6-2.3.9-1.3 1.9-2.5 2.7-3.9.7-1.3 1.6-2.5 2.4-3.7.9-1.3 1.8-2.4 2.7-3.6.8-1.2 1.5-2.4 2.3-3.6.7-1.2 1.5-2.3 2.2-3.6.8-1.6 1.9-3 2.4-4.7-.2-.1-.3-.4-.5-.3zM151.5-103.4c-.6-1.3-1.3-2.5-2.3-3.6-.9-1.1-1.9-2.2-3.1-3.1-.7-.5-1.4-.9-2-1.5-1.3-1.3-2.9-2.1-4.5-2.8-.8-.3-1.7-.7-2.6-.9-1.1-.2-2.1-.7-3.3-.7-.5-.5-1-.2-1.5-.2-.6-.1-1-.3-1.6-.3-2.6.2-5.1-.2-7.7.3-1-.2-2 .3-3.1.2-.1 0-.2 0-.3.1-.5.5-1.1 0-1.5.3-.5.3-1 .1-1.4.2-.2-.6-.3-1.1-.5-1.5-.8-1.8-2-3.2-3.2-4.7-.9-1.1-2.1-1.9-3.1-2.8-.4-.3-.8-.7-1.2-.9-1.1-.5-2.1-1.2-3.2-1.6-1.8-.7-3.6-1.6-5.6-1.8-.3-.4-.9 0-1.3-.3-.4-.2-.7-.2-1-.1-.2 0-.3-.1-.5-.1h-.4c-.2-.1-.4-.2-.7-.2h-.7c-.9-.1-1.8 0-2.6 0h-1.1c-.2 0-.5-.1-.6 0-.3.3-.6.3-.9.2-.4 0-.5.3-.9.3-.9-.1-1.7.4-2.7.6-.5-.8-.5-1.7-.9-2.6-.4-.8-.4-1.8-.7-2.6-.2-.3-.3-.5-.4-.7h-.5c-.8-.2-1.4.3-2 .5-.5.2-.3.8-.5 1 0 .9.8 1.5 1 2.3-.6.3-1.1-.3-1.6-.2h-1.7c-.1-.2-.3-.3-.3-.5-.1-1-.5-1.8-1.2-2.5-.4-.4-.9-.7-1.4-.9 0 0-.1 0-.1-.1-1.6-.9-3.4-1-5.1-1.3-.2 0-.4-.1-.5 0-.3.4-.7.3-1.1.2-.5-.1-.8.3-1.2.3-.6 0-1.2.3-1.7.4-.9.2-1.7.7-2.6.9-.9.3-1.8.5-2.6 1-.9.5-2 .9-2.8 1.7-1.2.5-2.3 1.5-3.3 2.4-.2.1-.3.3-.4.4-.5.4-.9.8-1.4 1.2-.8.7-1.5 1.4-2.2 2.3-.8 1.1-2 1.9-2.8 3.1v.2c-.2.2-.3.4-.5.6-.6.8-1.1 1.6-1.4 2.6.6 0 1.1 0 1.7-.2.5-.1 1.2 0 1.8-.2.5-.2 1.2-.1 1.8 0 .6.1 1.2-.3 1.8-.3 2.4.1 4.9-.1 7.3-.3.7 0 1.4-.3 2.1-.2.3-.4.8-.2 1.2-.3.4-.1.8-.2 1.3-.2.6-.1 1.1-.1 1.6-.3 1.4-.4 2.8-.6 4.1-1.1 1.6-.6 3.5-1.3 4.9-2.2 1.6-1.1 3-2.2 3.5-4.1 0-.1.2-.2.2-.2 1-.3 1.9.4 2.9.2.7.5.7.5 1 1.3-3.1 1-5.8 2.7-8.1 4.9-2.4 2.2-4.6 4.6-5.6 7.7-1 .4-1.8-.3-2.7-.1-.5-.4-1.2-.1-1.8-.2-.6-.1-1.2-.3-1.8-.2-.7.1-1.3-.1-2 .2-.6.3-1.4-.1-2 .3-1.5.1-3 .5-4.4 1-1.6.4-3 1.1-4.4 1.9-.3.1-.4.5-.9.4-.3-.2-.6-.4-1-.7-1.4-1.1-2.9-2-4.5-2.8-1.6-.8-3.1-1.5-4.9-1.6-.4 0-1 0-1.4-.2-.8-.4-1.6-.4-2.4-.7s-1.7-.4-2.5-.7c-1.1-.4-2.4-.6-3.2-1.5-.6.3-.6.8-.4 1.2.3.4 0 1 .4 1.3.2 1.3.2 2.7.5 4 .1.5.3 1 .4 1.5.6 2.1 1.5 4.1 2.5 6 .8 1.5 1.5 3.1 2.9 4.1 0 .2.1.4-.1.7-.4-.3-.7.1-1.1.2-1.8.2-3.5 1-5.2 1.8-1.9.8-3.6 1.9-5.3 3.1-1 .6-1.9 1.3-2.8 2-1.1.8-2.2 1.7-3.6 2.2v.8c.3.4.6.5 1 .6 1.3.4 2.7.4 4.1.7.5.1 1.1.2 1.6.4.3.1.5.2.8.3.9.3 1.9.4 2.8.7 1.2.4 2.5.6 3.8.8 1.4.2 2.8.4 4.2.3.8-.1 1.8.1 2.6-.1s1.5-.1 2.2-.2c0 .3-.1.5 0 .7.2.4.3.8.2 1.3 0 .4.4.8.3 1.3-.1.6.1 1.2.3 1.8.3 1.2.7 2.5 1.1 3.7.7 2.3 1.9 4.4 3.5 6.2 1 1.2 2 2.3 3.3 3.2.9.6 3.5 2.1 4.9 2.6.6.2 1.2.4 1.8.5.5.1 1.1.4 1.7.4.6 0 1.2.4 1.8.5.8.2 1.6.2 2.3.5-.1.1-.2.3-.3.3-.8 0-1.3.6-2 .8-.6.3-1.2.8-1.9.7-.3.4-.9.2-1.3.6-1.2 1.2-2.4 2.4-3.1 4-.2.5-.4.9-.7 1.5-.1.3.1.8-.2 1.2-.2.3.2.9-.2 1.3-.1.1-.1.4 0 .5.4.4.3 1 .5 1.5.4.7.5 1.6 1.2 2.1.8.7 1.6 1.3 2.5 1.8.8.5 1.6 1.1 2.5 1.2 1.2.2 2.2 1 3.4.8.6.6 1.3.1 1.9.4.6.3 1.3.1 2 .1 1 0 2 .2 2.9-.2.8.2 1.6-.2 2.4-.3.7-.2 1.4-.4 2.1-.7.7-.3 1.4-.5 2.1-.9 1.1-.6 2.3-1.2 3.3-2.1.3-.3.7-.4 1-.7.3-.4.6-.8 1.1-.9.8-.9 1.8-1.7 2.5-2.7.8-1.1 1.4-2.4 2-3.7.7-1.5.9-3 1.1-4.6.1-.6-.1-1.2-.2-1.8-.1-.9-.3-1.7-.6-2.5s-.7-1.6-.6-2.3c.4-.7 1-1 1.3-1.6.2-.5.8-.8 1.1-1.4.4-.8.9-1.6 1.4-2.5.1-.3.2-.5.7-.4 0 .2.1.4 0 .5-.4.4-.4 1-.7 1.5-1 1.8-1.2 3.8-1.5 5.8-.1.6 0 1.3 0 2s-.1 1.3.1 2c.2.6.1 1.3.3 1.9.3 1.3.6 2.5 1.2 3.7 1.2 2.5 2.8 4.8 4.8 6.8.4.5 1 .8 1.4 1.2.6.6 1.4 1.1 2.1 1.5 1.4.8 3 1.6 4.6 2.1 1.6.6 3.2 1.1 5 1.1 1.6 0 3-.5 4.3-1.1.6-.3 1.1-.7 1.7-1.1 1.3-.9 2.5-1.9 3.7-2.9 1-.9 1.8-2.1 2.5-3.3v-1.7c-.3-.3-.4-.7-.6-1.1-.5-1-1.2-2-1.5-3.1-.2-.7-.5-1.2-1-1.6-.4-.4-.6-.6-.7-.9-.3-.7-.3-1.3-.2-2.1.8 0 1.5-.1 2.2-.2.8-.1 1.5-.3 2.3-.5 1.1-.3 2.1-.6 3.1-1 1.1-.5 2.2-1.1 3.3-1.7 1.2-.6 2.3-1.4 3.3-2.2.8-.6 1.5-1.2 2.2-1.9.2-.2.2-.7.5-.7.5 0 .4-.5.7-.7.3-.2.5-.5.7-.7.6-.6 1.1-1.2 1.5-1.9 1.1-1.6 2.1-3.2 2.8-5 .5-1.2.9-2.4 1.3-3.7.3-1.4.6-2.8.6-4.2v-3.1c.7-.4 1.3-.5 1.9-.6.9-.2 1.9-.5 2.7-1 1.2-.6 2.2-1.3 3.3-2 .7-.5 1.5-1 2.1-1.6.6-.6 1-1.4 1.3-2.2.1-.4.3-.6.5-.8.1-1.7-.5-3.2-.8-4.5z"/><path class="st1" d="M67.4 69.4c.1 0 .1-.1.1-.2s0-.1-.1-.2v.4zM65.9 65v-.4s-.1 0-.1.1 0 .1.1.3c-.1-.1-.1-.1 0 0zM67.5 70.5c0-.1.1-.1.1-.2h-.1c0 .1-.1.2 0 .2zM81.3 50s0-.1 0 0c0-.1 0-.1 0 0zM65.9 65c0 .4.3.8.2 1.2.3.2.4.1.6-.1v-.3l-.8-.8zM66.7 67.4v-.3h-.1c0 .2 0 .3.1.3zM65.2 64v-.1c-.1 0-.1 0 0 .1-.1 0-.1 0 0 0zM66.7 67.5c.2.1.2.2.3.4 0-.2-.2-.3-.3-.4 0-.1 0 0 0 0zM86.1 44.2zM86.2 44.5c0-.1-.2-.1-.1-.3-.1.1-.2.2-.2.4.1 0 .3.1.3-.1zM85.3 45.3c.2 0 .3 0 .3-.2.1-.2.2-.3.3-.5-.2 0-.3 0-.3.3-.1-.4-.3-.8.1-1.1 0-.2-.2-.2-.2-.4H85V44.8c.2.2.2.3.3.5zM96 29.5c-.1.1-.1.1 0 0-.1.1-.1.1 0 0zM96.5 29.3v-.2l-.1.1c0 .1 0 .1.1.1zM80.8 46.5z"/><path class="st1" d="M85.6 45.1c.1 0 .2.1.3.1l-.3-.3c.1.2.1.2 0 .2zM87.9 40.3s0 .1 0 0c.1.1.1 0 .2 0-.2-.2-.2-.4-.3-.6 0 .2 0 .4.1.6zM86.1 44.2l.2-.2v-.2c0 .1-.1.2-.2.4zM87.9 41c-.1.1-.1.3-.1.4.4 0 .1.4.5.6v-.1c-.2-.3-.1-.7-.4-.9zM58.6 45.5c.1 0 .1-.1.2-.1h-.1c-.1 0-.1.1-.1.1zM52.2 45.7c0 .1-.1.2-.1.3h.5c0-.3-.5-.3-.5-.7.7-.3.8-.4 1.1-.2l.3-.3c-.2-.4-.4-.9-.7-1.3-.4-.4-.1-1-.5-1.4-.3-.1-.5.1-.7.3.1.3.4.1.6.2s.1.3.1.5c-.1.2-.3.1-.4.2-.2.1-.1.3-.1.4.5.4.2.8.1 1.2 0 .1-.1.3-.1.4.1.1.2.3.4.4zm.2-1.7c.1.2.3.4.5.6h-.5c-.1-.2-.1-.4 0-.6zM54.5 41.4c-.1-.3.1-.5-.2-.6-.1.2-.1.3.2.6 0 .3-.2.6.2.7-.2.2-.5.3-.7.4 0 .2.2.3.3.1.1-.1.1-.2.3-.2 0-.1 0-.2.2-.2v-.6l.3-.3c-.2 0-.4 0-.6.1 0-.1 0-.1 0 0zM52.1 46h-.2v.6c.1-.1.1-.3.1-.4 0-.1 0-.1.1-.2zM70.5 36.4zM98.4 27.4c0 .1.1.1 0 0 .1 0 0 0 0-.1v.1zM49.7 46.3c-.2.1-.3.2-.4.3.1 0 .2 0 .3-.1 0-.1 0-.1.1-.2zM44.6 27.7s.1.1 0 0c.1.1.1.1.1.2l.1-.1c0-.1-.1-.2-.2-.1zM44.6 27.7c0-.1 0-.2-.1-.2 0 .1 0 .1.1.2zM87.2 38.2c0-.1.1-.3-.1-.4-.3-.2-.4.2-.6.2-.1.2.3.3.2.5 0 .4-.3.2-.4.3-.2.3-.1.6.1.8-.2.2-.5 0-.7.1v.3c.4.2.7 0 .9-.3v-.8c.3-.1.4 0 .5-.3-.1-.1-.1-.3.1-.4z"/><path class="st1" d="M51.8 45.3c-.1-.1-.2-.2-.3-.2-.2.1-.3.2-.4.4l.2.2c0-.5.4-.2.5-.4zM49.6 46.9h.4l.1-.1c.1-.2.1-.4.1-.6.4-.1.4-.7.9-.6v-.1l-.1-.1c-.3-.1-.5.3-.8.2-.1.3-.4.5-.5.7l.1-.1c0 .3-.3.4-.2.7zM87.9 40.4c-.2.1-.4.1-.5 0-.1-.3-.1-.5.1-.7l-.6-.6c-.1.2.3.7-.2.9.1.2.3.1.4.2.2.3.1.6.1.9.2.1.3-.3.6-.2 0 0 .1 0 .1.1.1-.2.2-.4 0-.6zM93.4 30.7h.3v-.4c-.1.1-.1.3-.3.4zM63.5 57.3c0 .1 0 .1.1.2v-.3s-.1 0-.1.1zM93.7 31.6c.1-.1.3-.2.5-.3v-.6h-.5v.9zM63.6 57.5v.3h.1c0-.1.1-.1.1-.2.1-.1-.1-.1-.2-.1zM93.7 31.9c0 .2 0 .4.1.6.1-.1.3-.1.4-.1V32c-.1-.1-.3 0-.5-.1zM59 46.1c.1-.3-.4-.3-.4-.6-.3.1-.5.2-.7.4.4.3.8.2 1.1.2zM63.7 57.1l-.1-.1v.2l.1-.1zM93.7 31.6l-.2.2c.1.1.1.1.2.1v-.3zM87.2 38.2c0 .1 0 .2.1.3l.1-.1-.2-.2zM87.1 38.6c.1.1.1.1 0 0 .1.1.1 0 .1 0s0-.1-.1-.1c.1.1.1.1 0 .1zM93.8 32.5c-.1.1-.2.2-.3.4.1 0 .2-.1.4-.1 0-.1-.1-.2-.1-.3zM97.3 40.1c-.4.7-.8 1.5-1.3 2.1-.9 1.1-1.5 2.3-2.2 3.6-.2.3-.5.7-.7 1-.5.7-1 1.4-1 2.3h.1c.5-1.4 1.7-2.4 2.1-3.8.4-.3.6-.8.7-1.2.2-.5.8-.7.9-1.3 1.2-1.5 2-3.2 3.3-4.5.2-.1.1-.3.1-.4-.4.2-.8.6-.9.9-.2.4-.5.5-.8 1V39c0-.1-.4-1.4-.5-1.5-.2.9.4 1.8.2 2.6zM82.5 60c-.2.1-.4.2-.5.3.4 1.3.2 2.7.7 4-.2.3-.5.7-.5 1.1.2-.1.4-.2.7-.3 0-.6.1-1.1.6-1.5.2-.1.2-.3.2-.5-.4.1-.5.5-.9.6-.1-1.2-.4-2.5-.3-3.7zM86.7 58.2c-.1.4-.4.5-.7.9v-1.8c-.1-.5 0-1.1-.2-1.6-.1 1.1-.1 2.3-.1 3.5 0 .2.1.3.2.5.6-.5 1-1.2 1.2-1.9-.3.1-.4.2-.4.4zM96.8 34.4c-.2.7-.3 1.5 0 2.1.1.3-.3.8.3 1 0-.6.2-1.2-.2-1.7-.1-.1-.1-.4 0-.5.4-.6.1-1.3.2-1.9-.4 0-.1.3-.2.4 0 .1-.1.1-.1.2-.1-.1-.2-.1-.3-.2-.1.3-.5.2-.6.4v.4c.3-.2.6-.4.9-.2zM101.6 33.9v-4.1c-.2 0-.2.1-.2.3v2c0 1 .2 1.9-.2 2.8.2.2.3.1.4.1.1-.2.2-.5.3-.7-.3 0-.2-.2-.3-.4zM80.4 68.1c-.3-.3 0-.6.1-.9-.4-.2-.6.3-.9.3v.4h.6c-.3.3 0 .4.1.6-.2.2-.2.4-.2.6.1 0 .2.2.4.3 0-.6.2-1 .3-1.5-.2-.1-.2.2-.4.2zM90 52.3c-.1-.6-.1-1.3-.1-1.9-.2 1.2-.3 2.3-.1 3.4-.1-.7.6-1.1.6-1.7-.2-.1-.2.1-.4.2zM105.1 29.8c.2-.2.5-.3.7-.4-.2-.3.1-.5.2-.8v.1c.3-.3.6-.6.9-.8.1-.2.2-.3-.1-.5-.2.5-.8.5-.8 1.2-.2 0-.2-.1-.2-.2 0-.3.1-.7-.2-1.2v1.7c-.3.3-.6.5-.5.9zM100.7 36c-.7.4-1 1-1.2 1.7.7-.4 1-1 1.2-1.7zM82.7 59.9v-1.7l-.1-.1-.6.6c.2 0 .4.1.5.2 0 .2-.1.5.2 1zM93.3 37.3c.1 0 .2.1.2.2.3 0 .3-.3.2-.3-.2-.3.4-.3.1-.6-.3-.1-.5.3-.8.2 0 .2-.1.5.3.5zM70.6 87.4c-.3.3.3.3.2.6h.7l.1-.1c-.3-.2-.5-.4-.7-.6-.1 0-.3 0-.3.1z"/><path class="st1" d="M70.3 88.1c.2.2.2.4.2.6.3-.1.5.2.7.2.2-.5-.4-.5-.4-.9-.2 0-.4-.1-.5.1zM84.4 62.1c.5-.2.6-.7.7-1.2-.5.2-.6.7-.7 1.2zM71.6 86.4c-.2-.6-.5-.8-.7-1-.2.2-.1.4-.1.6l.8.4zM101.9 27.4c0-.1 0-.3.1-.4.1-.1.3-.3.1-.5-.1.3-.7 0-.6.7.1-.1.2.1.4.2zM80.8 67.9c.6-.2.7-.7.7-1.2-.5.2-.6.7-.7 1.2zM93.1 38.9v1.6c.1-.5.3-1 0-1.6zM89.2 45.6c-.1.6-.3 1.1 0 1.6v-1.6zM101.7 29.8c.4-.4.5-.9.5-1.4-.6.3-.5.9-.5 1.4zM103.8 31.9c.2-.2.4-.4.3-.7-.2 0-.3.2-.3.2-.2-.1-.3-.4-.6-.1l.6.6zM81.6 66.7c.5-.2.6-.7.7-1.2-.5.2-.6.7-.7 1.2zM72.5 53.2c0-.5-.1-1-.5-1.4 0 .6-.1 1.1.5 1.4zM91 49.9c-.1.2-.5.2-.6.4 0 .1 0 .3.1.3.3.3.4-.3.6-.3 0-.1.1-.3-.1-.4zM71.4 87c-.3-.2-.2-.8-1-.6.4.3.5.7 1 .6zM71 84.3c-.1.6.2.7.5.8.2-.1.2-.2.2-.4-.2-.1-.5-.1-.7-.4zM101.2 30c-.1-.3.1-.4.3-.6-.5-.2-.7.1-.8.5.1.2.3.2.5.1zM102.7 33.2c-.3.5-.8.6-.7 1.3.2-.4.7-.5.7-1.3zM80.4 63.8c.3-.1.6.1 1-.1-.2-.3-.5 0-.7-.2-.1-.1-.1-.3-.2-.4-.1-.1-.2.2-.1.1v.6zM95 37.7c.4 0 .5-.2.7-.4-.3-.1-.5-.1-.7 0v.4zM93.8 43.6h.7c.1-.2 0-.3-.1-.4-.3 0-.5.2-.6.4zM97.6 35.7c.1.2.1.4.2.7.1-.5.1-.8-.1-1.1.1.3-.2.4-.1.4zM65.1 69.7c.4.2.5-.1.7-.3-.1-.1-.2-.2-.4-.3l-.3.6zM92.4 46.2c.3 0 .3 0 .6-.6-.6-.2-.3.5-.6.6zM95.3 38.7h-.6c0 .2 0 .4.1.5.3-.2.3-.2.5-.5zM81.1 62.3c.1-.2.4-.4.6-.7-.4.1-.6.3-.6.7zM94.8 42c-.2 0-.4-.1-.6.1 0 .2 0 .3.3.4.1-.1.4-.1.3-.5zM89.5 49.9c0-.4.4-.8 0-1.2v1.2zM86 50.6c-.2.4-.2.8 0 1.2.1-.4.1-.8 0-1.2zM85.8 52.6c-.2.4-.2.4 0 1.2v-1.2zM93.7 45.4c.2-.4.2-.7 0-1.1-.2.4-.2.7 0 1.1zM64.1 70.8c.2.1.5.4.6 0l-.3-.3-.3.3zM96.1 36.7c.1-.2.1-.3 0-.4-.3-.1-.4.1-.3.5.1-.1.2-.1.3-.1zM90.3 45.5c.2.1.3 0 .4-.1v-.2c-.2-.1-.4-.1-.5 0 0 .1 0 .2.1.3zM83.9 62.8c.4-.1.5-.3.5-.7-.3.1-.5.4-.5.7zM78.3 71c.2-.2.2-.3 0-.5-.1 0-.2 0-.3.1-.1.2 0 .3.1.4h.2zM90.6 47.5c-.4-.2-.4-.5-.8-.8.2.4 0 .6.2.8h.6zM65.7 66.6c-.2-.2-.3-.6-.7-.3.2.2.3.5.7.3zM100.5 34c0-.3-.1-.4-.5-.3 0 .2 0 .3.1.4.2 0 .3 0 .4-.1zM98.2 33.1c.3-.4-.1-.5-.3-.7-.2.4.1.5.3.7zM102.6 32.3c-.4-.3-.5.1-.7.3.4.2.5-.1.7-.3zM86.3 50.4c.1-.2.1-.5.4-.7h-.5c.1.2-.3.6.1.7zM91.1 50.8c.4-.1.5-.3.5-.7-.1.1-.3.2-.5.2v.5zM104.6 30.5c-.4.1-.6.4-.5.7.4-.1.5-.3.5-.7zM77.5 73.3c.2-.4.3-.6.5-.9-.3.1-.4.1-.5.1v.8zM79.6 69.8c.4-.1.5-.3.5-.7-.4.1-.5.3-.5.7zM109.1 24.7c-.1-.1-.1-.2-.1-.2-.1 0-.1-.4-.3-.1-.1.1-.1.4.1.6l.3-.3zM93.4 42.6c.2-.4.2-.7 0-1-.1.3-.2.6 0 1zM86.5 54.2c-.2.1-.3.1-.4.1v.4c.6 0 .6-.2.4-.5zM88.7 54.9c-.5.2-.4.6-.4 1 .3-.2.5-.6.4-1 .4-.2.6-.3.4-.6-.3.1-.5.3-.4.6zM71.6 83.4c-.3.5.1.6.3.7.2-.4-.1-.5-.3-.7zM72.3 55.2h-.2c-.2.1-.2.3 0 .5.1 0 .2 0 .3-.1.1-.2 0-.3-.1-.4zM91.9 40.2c0-.1 0-.2-.1-.3-.3-.1-.4 0-.4.3.1.2.3.2.5 0zM90 42.7c-.4.1-.5.3-.5.7.3-.1.5-.3.5-.7zM106.7 26.3c0-.1 0-.2-.1-.3-.2-.1-.3 0-.4.1v.2c.2.2.4.2.5 0zM96.4 40.2l-.4-.4c-.1.3-.1.5 0 .7.2-.1.3-.2.4-.3zM84 57.9c0-.1 0-.2-.1-.3-.2-.1-.3 0-.4.1v.2c.1.2.3.2.5 0zM107.6 23.3c0 .1 0 .1 0 0zM83 57.1c-.3.3-.3.3 0 .7v-.7zM108 24.8c-.1-.1-.2-.3-.3-.4-.1.4.1.4.3.4zM71.8 57.8c.2-.1.3-.2.5-.3-.6-.3-.6 0-.5.3zM104.3 25.8c-.2.1-.3.2-.6.3.5.2.7.1.6-.3zM84.5 58.9c.1.2.2.1.4 0-.1-.1-.2-.3-.5-.5.1.3 0 .4.1.5zM83.3 61c.3.2.5.3.6.3 0-.3 0-.3-.6-.3zM97.2 32.6v.7c.2-.2.2-.2 0-.7zM83.4 62c-.1 0-.3.1-.5.3.4.1.6.2.5-.3zM82.2 64.3c-.4-.1-.5.1-.4.3.1-.1.3-.2.4-.3zM95.3 34.7c-.6-.3-.6 0-.5.3.2-.1.3-.2.5-.3zM99.3 34.7c-.3-.2-.5-.2-.7.1.2-.1.4.1.7-.1zM80.1 66c-.2.3-.2.3 0 .7V66zM71.6 66.9c-.1.3-.1.5.1.7 0-.2.1-.5-.1-.7zM99 37.4c-.1-.2-.2-.3-.4-.4-.1.5.1.5.4.4zM65.7 68.5c-.4-.1-.4-.1-.3.5.1-.2.2-.4.3-.5zM93.5 38.2v-.7c-.2.3-.2.3 0 .7zM94.5 38.8c-.3-.2-.5-.3-.6-.3-.1.3-.1.3.6.3zM66.7 70.6l-.6.3c.5.2.7.1.6-.3zM94.1 40.8c.3-.1.4 0 .5-.1.2-.1.1-.2 0-.4-.1.2-.2.3-.5.5zM65.7 72.4c-.1-.2-.2-.3-.3-.5-.3.6 0 .6.3.5zM92.1 41.9c.2-.1.3-.1.6-.3-.5-.2-.7-.1-.6.3zM90.6 42c.1.1.2.3.3.4.1-.4-.1-.5-.3-.4zM89.5 43.8v-.4c-.3.1-.4.2-.4.4.1.1.2.1.4 0zM91.2 43.9c0-.2-.1-.3-.2-.5-.1.4-.1.6.2.5zM87.8 49.5c.3.2.5.3.6.3.1-.3.1-.3-.6-.3zM71.4 81.6c-.2.3-.3.5-.3.6.3 0 .3 0 .3-.6zM85.9 52.1v.5c.1-.1.3.1.2 0 0-.2-.1-.4-.2-.5zM85.5 54.2c-.2.3-.1.5 0 .8.2-.3.2-.5 0-.8zM72 82.9c.2.1.3.2.5 0-.2-.2-.3-.2-.5 0zM102.4 27.9c-.3 0-.2.3-.2.5.3-.1.2-.3.2-.5zM103.2 28.1c-.1.2-.1.3.1.4-.1-.1.2-.3-.1-.4zM99.2 28.9c.2-.1.5 0 .6-.2-.2-.1-.3-.1-.6.2zM104.2 30c.1-.2.1-.3-.1-.4.1.1-.2.3.1.4zM104.8 30.3c.4-.1.2-.3.2-.5-.3 0-.2.3-.2.5zM103.1 30.1c-.2-.2-.3-.2-.5 0 .2.2.4.2.5 0zM97.6 32.3c-.1-.1.1-.3-.1-.3s-.2.2.1.3zM79.2 70.5c.3 0 .2-.3.2-.5-.4.1-.2.3-.2.5zM100.1 35.3c-.1.2-.1.3.1.4-.1-.1.2-.3-.1-.4zM90.1 42.7c.2 0 .1-.2 0-.4-.1 0-.2.1-.1.1.1.1-.1.3.1.3zM93.3 44c-.2-.1-.3-.1-.5 0 .2.2.3.2.5 0zM88.2 45.5c-.1-.1.2-.3-.1-.4-.1.1-.1.3.1.4zM89.3 48.2c.2-.1.2-.3 0-.5-.2.2-.2.3 0 .5zM91.3 48.7c.2-.2.2-.3 0-.5-.2.2-.2.4 0 .5zM91.9 49.7c.3 0 .2-.3.2-.5-.4 0-.2.3-.2.5zM91.7 50.2c.3 0 .2-.3.2-.5-.4 0-.2.3-.2.5zM87.5 51.1c-.1-.2.2-.4-.1-.4-.1.1-.1.3.1.4zM90.9 51.3c-.4.1-.2.3-.2.5.3 0 .2-.2.2-.5.3.1.2-.2.2-.4-.3 0-.2.2-.2.4zM88.3 52.2c.2.1.3.1.4-.1-.1.1-.3-.2-.4.1zM72.6 53.8c0-.2.2-.5-.2-.5.1.1-.1.4.2.5zM72.1 53.9c0-.1.3-.3-.1-.4-.1.1-.1.3.1.4zM84.8 53.5c-.2.2-.2.3 0 .5.2-.2.2-.3 0-.5zM88.3 53.6c-.2-.2-.3-.2-.5 0 .1.2.3.2.5 0zM83.9 55.7c-.2-.1-.3-.1-.4.1.1 0 .3.3.4-.1zM87.3 56c-.2 0-.4-.3-.4.1.2.1.3.1.4-.1zM83.1 56.6c-.1.1 0 .1 0 0z"/><path class="st1" d="M83.1 57c.2 0 .2-.2 0-.4 0 .2-.2.4 0 .4zM86.6 57.5c-.2-.2-.3-.2-.5 0 .2.1.3.1.5 0zM87.1 57.8c.3 0 .2-.3.2-.5-.4.1-.2.3-.2.5zM83.9 59.8c-.1.1-.3-.2-.4.1.2.1.3.1.4-.1zM85.6 60.2c.4 0 .2-.3.2-.5-.3 0-.2.3-.2.5zM85.1 60.9c.4 0 .3-.3.2-.5-.3 0-.2.3-.2.5zM77.4 73.1c-.3 0-.2.3-.2.5.4 0 .2-.3.2-.5zM80.6 66.4c.2-.1.4.2.4-.1-.2-.1-.3-.1-.4.1zM78.7 71.2c.3 0 .2-.3.2-.5-.3.1-.2.3-.2.5zM78.4 68.2c-.1 0-.2 0-.2.2.2 0 .2-.1.2-.2zM79.4 68c.2.1.2 0 .2-.1-.1 0-.2 0-.2.1zM109 24.1c-.1 0-.1.1-.1.2.1 0 .2-.1.2-.1l-.1-.1zM104.6 24.5c-.2 0-.3.1-.2.2.1 0 .2 0 .2-.2zM106.4 25c-.1 0-.1.1 0 .2.1 0 .1-.1 0-.2zM104.8 26.2c.2 0 .4 0 .5-.2-.2-.1-.3-.1-.5.2-.1 0-.1 0 0 0-.1 0-.2 0-.2.1l.1.1c.1 0 .1-.1.1-.2zM103.2 27c-.1 0-.1.1-.1.2.1 0 .2-.1.1-.2zM101.4 27.2c-.1 0-.2 0-.2.2.2 0 .2-.1.2-.2zM103.1 27.2c-.1-.1-.2 0-.2.2.1 0 .2 0 .2-.2zM102.8 27.4c-.1 0-.2 0-.2.2.2 0 .3 0 .2-.2zM102.6 27.6c-.1 0-.2.1-.2.2.1 0 .2 0 .2-.2zM104.6 30.5c.1 0 .2 0 .2-.2-.2 0-.3 0-.2.2zM98.5 31.1c-.2-.1-.2 0-.2.1.1 0 .2 0 .2-.1zM98.3 31.2c-.1 0-.2.1-.2.2.1 0 .2 0 .2-.2zM98.1 31.5c-.2 0-.3 0-.2.2.1 0 .2 0 .2-.2zM97.8 31.7c-.1 0-.2 0-.2.2.2.1.3 0 .2-.2zM100.1 31.7c-.1.1-.1.2 0 .2s.1-.1 0-.2zM100.9 35.9l-.1-.1c-.1 0-.1.1-.1.2.1 0 .2 0 .2-.1zM99.5 37.7c-.1 0-.2 0-.2.2.2 0 .2 0 .2-.2zM92.5 40.2c-.2-.1-.2 0-.2.1.2 0 .2 0 .2-.1zM92.3 40.4c-.1 0-.2 0-.2.2.2 0 .2-.1.2-.2zM92 40.8c.1 0 .1-.1.1-.2-.1-.1-.2 0-.1.2zM93.9 47.1l-.1.1c0 .1.1.1.2.1 0-.1 0-.2-.1-.2zM78.4 71.4c-.3 0-.2.3-.2.5.3 0 .3-.2.2-.5.2 0 .3-.1.2-.1-.1 0-.2 0-.2.1zM88.1 47.6c-.1 0-.1.1-.1.2.1 0 .2-.1.2-.1l-.1-.1zM88 47.8c-.1-.1-.2 0-.2.1l.1.1c.1 0 .1-.1.1-.2zM90.5 52c.1 0 .2 0 .2-.2-.2 0-.3.1-.2.2zM84.8 54.3c-.1 0-.1.1-.1.2.1 0 .2-.1.2-.1l-.1-.1zM84.7 54.5c-.2 0-.3 0-.2.2.1 0 .2 0 .2-.2zM84.4 54.7c-.1 0-.2.1-.2.2.1 0 .2 0 .2-.2zM84.1 55c-.1 0-.2 0-.2.2.2 0 .3-.1.2-.2zM83.9 55.2c-.1 0-.1 0-.2.1l.1.1c.1 0 .1-.1.1-.2zM88.1 56l.1.1c.1 0 .1-.1.1-.2-.2 0-.2 0-.2.1zM83.4 56.2c-.1 0-.1.1 0 .2.1-.1.1-.2 0-.2zM84.9 56.6c.1 0 .2 0 .2-.1l-.1-.1c-.1 0-.1.1-.1.2zM88 56.5l-.1-.1c-.1 0-.1.1-.1.2.1 0 .2 0 .2-.1zM84.7 56.7c.2.1.2 0 .2-.1-.1 0-.2 0-.2.1zM87.8 56.6c-.1 0-.2 0-.2.1l.1.1c.1 0 .1-.1.1-.2z"/><path class="st1" d="M87.5 57.2c-.2-.1-.2 0-.2.1.1.1.2 0 .2-.1zM85.4 60.4c.1 0 .2 0 .2-.2-.1 0-.2.1-.2.2zM72 61c-.1-.1-.2-.1-.2 0s.1.1.2 0zM77.6 72.1l.1-.1c0-.1-.1-.1-.2-.1 0 .2 0 .2.1.2zM78.1 72.1c.1 0 .1-.1.1-.2-.1 0-.2.1-.1.2zM71.6 70.3c.1-.1.1-.2 0-.2s-.1.1 0 .2zM79.4 70c.2 0 .2 0 .2-.2-.1 0-.2 0-.2.2zM66.2 69.9c-.1-.1-.1-.1-.2 0 0 .1.1.1.2 0zM79 70.7c.1 0 .2 0 .2-.2-.2 0-.3.1-.2.2zM83.7 63.1c.2 0 .3-.1.2-.2-.1 0-.2 0-.2.2zM74.4 79.7c0 .1.1.1.2.1 0-.1 0-.1-.1-.2l-.1.1zM80.8 62.6c-.1 0-.2 0-.2.1l.1.1c.1 0 .1-.1.1-.2zM71.7 69c-.1-.2-.1-.2-.2 0 0 .1.1.1.2 0zM79.4 68.5c-.1-.1-.2-.1-.2 0s.1.1.2 0zM55.7 65.1c.5.5 1 1.1 1.8 1.2.5.1 1 .5 1.2 1.2.5-.2.7.2 1 .4.2-.2.5-.3.3-.7h-.9c.3-.7-.7-.3-.6-.9.1-.1.3 0 .4-.2-.5.1-.6-.4-1-.5 0 .2.1.4-.1.5-.3-.4-.8 0-1.1-.3.1-.3.4 0 .5-.3-.3-.2-.6.1-.9-.1-.1-.3-.3-.6-.4-.9-.4.1-.6-.3-.9-.2v.1c.5 0 .5.5.7.7zM32.2 24.9c.1.3.2.4.5.5-.1-.1 0-.2.1-.2l.1.1c0 .1-.1.1-.2.1.1.3.4.6.7.7 0-.1.1-.2.2-.2.3.1.5-.1.7-.2.1.2 0 .3.1.5h1l.1-.1v-.3c0-.1-.1-.1-.1-.1h-1c-.3-.5-.6-.1-1.1-.2-.1-.2-.5-.3-.2-.6.2.1.4.2.8.3-.4-.5-.7-.6-1.5-.8 0 .2.2.5-.2.5zM52.2 61.9c-.3.1-.3-.4-.6-.1-.2.2-.4-.4-.7 0 .1.2.5.3.8.5.2.1.4.3.6.4.2.1.3.5.5.7.1.2.1.6.5.6v-.1c-.1-.7-.8-1-.8-1.7 0-.1-.2-.3-.3-.3zM44.6 55.1c.1.2.2.3.4.3.1 0 .1-.1.2-.1V55c-.6-.1-1.2-.3-1.6-.8 0-.1-.2 0-.3 0 .2.2.3.5.5.7-.1.2-.2.3-.3.5.4.1.7-.2 1.1-.3zM47.1 58.2c-.1.1 0 .3-.2.4-.1-.3-.3-.3-.4-.3.3.3.7.7 1 1.1v-.9c-.1-.1-.2-.3-.4-.3zM30.5 30.7c0 .3.1.5.3.6-.2.2-.4.3-.1.6.3.1.5-.3.8-.2-.3-.5-.6-.8-1-1zM30.1 29.6c-.2-.1 0-.4-.2-.6-.3.6 0 1 .3 1.6.2-.4.4-.7.5-1.1-.3-.2-.4.2-.6.1zM32.9 42.1c.7.5.4 1.4.6 2.3.2-1.9.1-2.1-.6-2.3zM50.2 61.4c-.1-.3.3-.2.4-.3.1-.1.1-.2.1-.3-.2-.3-.4-.1-.6.1-.2-.2-.4-.2-.6-.2.1.3.4.6.7.7zM31.1 22.9c-.4.2-.6.7-1.1.8.8.1 1.1-.1 1.1-.8zM28.5 27.6c.6-.1.7-.4.8-1.3-.4.4-.4.9-.8 1.3zM48.3 59c0 .2-.2.2-.2.4l.4.4c-.1-.6.5-.1.5-.5-.2-.1-.3-.4-.7-.3zM34.8 43.2l.6.6s0-.1.2-.2c-.3-.1-.6-.3-.8-.4zM35.5 45v.3h.7c0-.1 0-.3-.1-.4-.2 0-.4-.1-.6.1zM32.4 23c-.3.1-.5-.1-.7.1v.5c.3-.2.8.2.7-.6zM29.3 25.5c0-.5 0-.9-.5-1.2 0 .5 0 .9.5 1.2z"/><path class="st1" d="M32.4 24.5c-.1-.5-.4-.2-.7-.2 0 .4.2.6.5.7 0-.2-.1-.5.2-.5zM46.4 54.9c.2-.1.4.2.6-.1v-.2c-.2-.2-.4-.2-.8-.1.1.2 0 .3.2.4zM45.1 57.9c.1.3.5 0 .5.4h.7c-.3-.4-.7-.6-1.2-.4zM50.9 58.3h-.7v.4h.7v-.4zM30.2 25.8c-.1-.2.2-.4-.1-.6h-.2c-.2.3-.2.5-.1.8.2-.1.3 0 .4-.2zM55.2 61.4c-.1-.2-.2-.2-.4-.2l-.4.8c.5-.2.8-.3.8-.6zM55.8 62.6c.3-.2.3-.2.5-.5h-.6c0 .3-.1.5.1.5zM38.6 48c.1-.2.2-.3 0-.5h-.8c.3.3.4.5.8.5zM32 34.9c0-.3-.2-.4-.4-.6-.1.3-.1.5 0 .7.2.1.3 0 .4-.1zM44 48.4c.1-.1.3-.2.5-.2-.3-.2-.5-.2-.7-.4-.2.4.1.5.2.6zM39.1 50.9c0 .4.3.6.4 1.1.2-.6 0-.9-.4-1.1zM46.3 52.3c.1-.2.2-.3 0-.5h-.8c.3.3.4.5.8.5zM33.7 41.3v.7c.2.1.3 0 .4-.1 0-.3-.2-.5-.4-.6zM45.7 53.1v.7c.2-.2.4-.4.4-.6-.1-.2-.2-.2-.4-.1zM43.9 53.5c.2-.1.4.1.6-.2-.4 0-.7-.1-1 0 0 .2 0 .3.1.4.1-.1.2-.2.3-.2zM42.1 54.7c-.2-.4-.3-.7-.4-1-.2.4-.2.8.4 1zM42.4 54.3c-.1.1-.2.2 0 .4h.5c-.1-.2-.2-.5-.5-.4zM31.7 27.7l-.7.7c.5-.1.7-.3.7-.7zM53.8 57.2c-.1-.1-.2-.2-.4-.3-.2.2-.5.3-.2.7.1-.4.4-.1.6-.4zM31.6 25.7c0-.1.3-.1.3-.4h-.6c-.1.3 0 .4.3.4zM44.3 45.6c.2-.2.2-.3-.1-.4-.1 0-.2-.1-.3.1 0 .2.1.3.4.3zM60.1 65.6c-.4.2-.6 0-.8.2v.6c.2-.4.5-.4.8-.8zM38.3 39.8c.2-.4-.1-.5-.3-.7-.1.3-.1.4 0 .5.1.1.1.3.3.2zM57.5 62.8c.1-.2 0-.3-.1-.4h-.2c-.1.1-.1.3 0 .5.1 0 .2 0 .3-.1zM36.3 47.1c.1.3.3.5.7.4-.2-.3-.3-.6-.7-.4zM45.2 47.8c.2-.3.6-.4.3-.8-.2.2-.5.3-.3.8zM32.7 41.5c.2-.3.3-.6 0-1.1v1.1zM37.8 48.4c-.1.4-.2.7 0 1.1.1-.4.2-.7 0-1.1zM31.5 33.2V33c-.2-.2-.3-.2-.5 0 0 .1 0 .2.1.3.2.1.3 0 .4-.1zM39.5 49.2c-.1.2-.2.4-.3.7.2 0 .3.1.4-.1v-.5c0-.1-.1-.1-.1-.1zM52.4 58.7c0 .1-.1.2.1.3.2 0 .3-.1.3-.4-.2-.1-.3-.1-.4.1zM35.5 31.8c.1-.3-.1-.4-.5-.3.1.2.1.3.1.3.2.1.3.1.4 0zM38.5 50.4c0 .2.1.3.2.5h.5c-.1-.4-.3-.5-.7-.5zM52.7 61.6c.3 0 .5-.2.6-.4-.5.1-.5.1-.6.4zM44.9 51.1c-.2 0-.4 0-.4.1-.1.2 0 .3.1.4.2-.1.2-.1.3-.5zM41.7 52c.1-.2 0-.3-.1-.4-.2.1-.2.1-.3.5.2-.1.4 0 .4-.1zM33.5 29.1c.2 0 .3.1.4-.1v-.4c-.6 0-.6.2-.4.5zM59.2 64.8c-.5-.1-.5.1-.4.5.2-.1.3-.1.4-.1v-.4zM33.5 28.1c.1 0 .2 0 .3-.1.1-.2 0-.3-.1-.4h-.2c-.2.2-.2.4 0 .5zM48.8 54.5c-.1.2 0 .3.1.4h.2c.2-.1.2-.3 0-.5-.1 0-.2 0-.3.1zM35.3 42.7c0-.2.1-.3-.1-.4h-.4c0 .5.2.5.5.4zM30.1 28c0-.1 0-.2-.1-.3-.2-.1-.3 0-.4.1v.2c.1.2.3.2.5 0zM40.8 42.2c-.2.1-.3 0-.4.1 0 .2 0 .3.1.4.3 0 .4-.1.3-.5zM57.3 64.4c.3.1.3.5.7.3-.2-.2-.3-.6-.7-.3zM45.3 56c-.2-.1-.3 0-.4.1.1.2.1.2.5.3 0-.3 0-.4-.1-.4zM52.1 58.1c.2 0 .3.1.4-.1v-.4c-.5 0-.5.2-.4.5zM35 40.3c.1 0 .2.1.3-.1 0-.2-.1-.3-.4-.3-.1.1-.1.3.1.4zM44.2 56.2c0 .4.1.6.4.7 0 .2-.1.3.2.4.1-.2.1-.3-.1-.5 0-.3-.1-.6-.5-.6zM29.4 23.3c-.1.3-.1.5 0 .8.2-.3.2-.5 0-.8zM31.8 23.9c-.2-.1-.4-.2-.5-.3 0 .4 0 .4.5.3zM32.9 23.9c-.3-.2-.5-.1-.8 0 .3.2.5.2.8 0zM33.9 24.1c-.5-.1-.5.1-.4.4.2-.1.3-.2.4-.4zM31 24.4c-.1.1-.3.2-.4.3.4.1.5 0 .4-.3zM34.7 24.7c-.2-.2-.3-.3-.4-.5-.2.2-.2.3 0 .5h.4zM47.8 60.2h.7c-.3-.3-.5-.3-.7 0zM32.5 30.2l.3-.3c-.3-.1-.3-.1-.3.3zM34.3 30.7c.1-.5-.1-.5-.4-.4.1.2.2.4.4.4zM34.5 33.2c-.2 0-.3.2-.4.4.5.1.5-.1.4-.4zM30.5 35.6c.1.2.3.4.5.4 0-.1 0-.3-.1-.4-.1-.1-.3-.1-.4 0zM39 35.8c-.2.2-.2.4 0 .7.2-.2.2-.5 0-.7zM32.9 36.4c-.3-.2-.5-.3-.6-.3-.1.3-.1.3.6.3zM59 66.6h.7c-.3-.2-.3-.2-.7 0zM62 68.1c-.1-.1-.2-.3-.3-.4-.1.4.1.5.3.4zM37.7 37.8c-.2.1-.4.1-.6.3.5.2.7.1.6-.3zM40.2 41.8c-.1-.1-.1-.3-.2-.5-.1.4-.1.6.2.5zM39.4 42.4c-.3-.2-.5-.2-.8 0 .3.2.5.2.8 0zM43 42.6c-.3-.1-.5-.1-.7.1.2 0 .5.1.7-.1zM42.8 44.5c.1.2.2.3.3.5.3-.7 0-.6-.3-.5zM38.5 45.7c-.6-.2-.6 0-.5.3.2-.1.3-.2.5-.3zM42.7 45.7c-.1.1-.3.1-.5.2.5.2.7.1.5-.2zM39.9 46c-.5-.2-.6-.1-.5.2.1-.1.3-.1.5-.2zM41.5 46.6c-.2 0-.5-.1-.7.1.3.1.5.1.7-.1zM43.6 46.7c-.1 0-.3.1-.6.2.7.1.7.1.6-.2zM42.5 47.7c0-.1-.1-.3-.2-.6 0 .6 0 .6.2.6zM40.2 48.3c-.1.4-.1.4.5.3-.2-.1-.4-.2-.5-.3zM43 49.6c.2 0 .5.2.7-.1-.3-.1-.5-.1-.7.1zM42.5 51l.3-.3c-.3-.1-.3-.1-.3.3zM39.8 51.2l.5.5c0-.5-.1-.7-.5-.5zM43.9 52c-.1-.1-.2-.3-.3-.5-.1.4-.2.6.3.5zM42.1 52.7c.1-.1.3-.2.5-.3-.4-.1-.6-.2-.5.3zM47.9 53.9c0-.1-.1-.3-.3-.5-.1.4-.2.6.3.5zM29.5 25.9c.1-.2.1-.3-.2-.6.1.3-.1.5.2.6zM30.8 26.2c0-.1-.1-.2-.1-.2l-.1.1c0 .1.1.1.2.1-.1 0-.1 0 0 0-.1.3.2.2.4.2 0-.3-.2-.2-.4-.2zM29.8 26.6c.2.2.3.2.5 0-.2-.2-.3-.2-.5 0zM32.3 28.1c-.2.2-.2.3 0 .5.2-.2.2-.3 0-.5zM34.8 29.6c-.1-.1-.3-.1-.4.1.1 0 .3.3.4-.1zM36.8 34.2c-.2-.2-.3-.2-.5 0 .2.2.3.2.5 0zM34.6 34.3c0 .2-.1.3.1.5.2-.2.2-.3-.1-.5zM32.9 34.6c0 .2-.1.3.1.5.2-.2.3-.4-.1-.5zM34.1 36c0-.2.1-.3-.1-.5-.2.2-.2.4.1.5zM31.2 36.3c.1.1-.1.4.2.5 0-.2.2-.5-.2-.5zM38.5 36.7c0 .2-.1.3.1.5.1-.2.2-.3-.1-.5zM33.3 39.9c.2-.2.2-.3 0-.5-.2.2-.3.3 0 .5zM32.4 40.1c0-.2.2-.5-.2-.5 0 .2-.1.5.2.5zM38.9 40.4c-.2-.2-.3-.2-.5 0 .2.2.4.3.5 0zM37.1 40.5c-.2.2-.2.3 0 .5.2-.1.2-.3 0-.5zM42 40.7c-.2-.2-.3-.2-.5 0 .2.2.4.2.5 0zM36.5 41.9c-.2-.2-.3-.2-.5 0 .2.2.3.2.5 0zM37.6 42.5c.2-.2.2-.3 0-.5-.2.2-.2.4 0 .5zM39.9 43.3c-.2-.2-.3-.2-.5 0 .1.2.3.2.5 0zM35.9 43.9c.4.4.7.2 1 .2v-.6c-.2.5-.6.4-1 .4.1 0 .1 0 0 0 .1-.3-.2-.2-.4-.2 0 .3.2.2.4.2zM41.1 44.8c-.2-.2-.3-.2-.5 0 .2.1.3.2.5 0zM45 46.1c-.2.1-.2.3 0 .5.2-.2.2-.3 0-.5zM39.4 47.6c.2.2.3.2.5 0-.2-.1-.4-.2-.5 0zM37.5 48c0 .2-.2.5.2.5 0-.2.1-.5-.2-.5zM45 48.7c-.2.2-.2.3 0 .5.2-.2.2-.4 0-.5zM37.7 50c.1.1.1.1 0 0 .2 0 .4.2.4 0s-.2-.1-.4 0zM48.4 50.6c.2-.2.2-.3 0-.5-.2.2-.2.4 0 .5zM46.7 50.4c-.2.2-.2.3 0 .5.2-.2.2-.4 0-.5zM48 51.5c-.2-.2-.3-.2-.5 0 .2.1.4.2.5 0zM48.9 51.3c-.2.2-.2.3 0 .5.1-.2.2-.3 0-.5zM39.7 52.8c.3-.1.5.1.6-.2-.2-.1-.3-.1-.6.2zM49.1 53.5c.2-.2.2-.3 0-.5-.2.2-.2.4 0 .5zM50.2 53.6c-.2-.2-.3-.2-.5 0 .2.2.3.2.5 0zM42.5 55.3c.1 0 .1.1 0 0 .2 0 .4.2.4 0s-.2-.1-.4 0zM43.5 55.4H43c0 .4.3.2.5.2v-.2zM43.7 55.9c0 .3.3.2.5.2 0-.3-.3-.2-.5-.2zM49.5 56.5c-.2-.2-.3-.2-.5 0 .1.2.3.2.5 0zM52 56.4c-.2.1-.2.3 0 .5.2-.2.2-.3 0-.5zM51 56.9c-.2.2-.2.3 0 .5.2-.3.2-.4 0-.5zM47.9 57.1c-.2.2-.2.3 0 .5.2-.2.2-.3 0-.5zM49.1 58.5c.2-.2.2-.3 0-.5-.2.3-.2.4 0 .5zM55.1 58.7c.1-.2.1-.3-.1-.4.1.2-.2.4.1.4zM54.3 59.1c-.2-.2-.3-.2-.5 0 .1.2.3.2.5 0zM48.5 60.2v.2h.5c-.1-.3-.3-.2-.5-.2zM60.4 67.3c.2.2.3.2.5 0-.1-.2-.3-.2-.5 0zM55.7 63.2c-.2-.2-.4-.2-.5 0 .2.2.3.2.5 0zM56.7 61.3c-.2-.2-.3-.2-.5 0 .1.2.3.2.5 0zM29.3 26.4c.1.1.2 0 .2-.1l-.1-.1c-.1 0-.1.1-.1.2zM30.3 30.5c0 .2.1.3.2.2 0-.1 0-.2-.2-.2zM32.1 30.7c-.1.1-.1.2 0 .2s.1-.1 0-.2zM31.7 31.9c0-.1-.1-.2-.2-.2 0 .1 0 .2.2.2zM32.6 33.3c.1 0 .1-.1 0-.2-.2.1-.2.2 0 .2zM37.6 35.3c-.1 0-.1.1 0 .2.1 0 .1-.1 0-.2zM35.7 35.5c-.1.1-.1.2 0 .2s.1-.1 0-.2zM31 36c0 .2.1.3.2.2 0-.1 0-.2-.2-.2zM36.6 36.5c.1 0 .1-.1 0-.2-.1 0-.1.1 0 .2zM34 37c.1-.1.1-.2 0-.2s-.1.1 0 .2zM32.4 37.3c-.2 0-.2.1-.2.2h.3c0-.1-.1-.2-.1-.2zM32.7 37.7c0-.2-.1-.3-.2-.2 0 .1 0 .2.2.2zM35.8 37.6c-.1-.1-.2-.1-.2 0s.1.1.2 0zM40.3 39.7c0-.1-.1-.1-.2 0 .1.1.2.1.2 0zM32.6 40.2c0-.1-.1-.1-.2-.1 0 .1.1.2.1.2l.1-.1zM34.5 44.7c-.1.2 0 .2.1.2 0-.1 0-.2-.1-.2zM34.6 44.9c0 .1.1.2.2.2 0-.1 0-.2-.2-.2zM34.9 45.2c0 .1 0 .2.2.2 0-.2-.1-.3-.2-.2zM37 47.5c0 .2.1.3.2.2 0-.1 0-.2-.2-.2zM37.3 47.8c0 .1 0 .2.2.2 0-.2-.1-.3-.2-.2zM41.7 48.4c0-.1-.1-.1-.2 0 .1.1.2.1.2 0zM46.8 48.4c0-.1-.1-.1-.2 0 .1.1.1.1.2 0zM38.5 49.2c-.1 0-.1.1 0 .2.2 0 .2-.1 0-.2zM40.7 49.5l-.1.1c0 .1.1.1.2.1 0-.1 0-.2-.1-.2zM38.2 50.2c0 .1 0 .2.2.2 0-.2 0-.3-.2-.2zM47.8 52.7c0 .1.1.1.2 0-.1-.1-.2-.1-.2 0zM57.6 65.5c0-.2.1-.4-.2-.5-.1.2-.1.3.2.5 0 .1 0 .1 0 0 0 .1 0 .2.2.2 0-.1 0-.2-.2-.2zM40.7 52.8l-.1.1c0 .1.1.1.2.1 0-.1 0-.2-.1-.2zM40.9 53.1c0 .1 0 .2.2.2 0-.2-.1-.3-.2-.2zM41.1 53.3c0 .1 0 .2.2.2 0-.2-.1-.2-.2-.2zM41.3 53.5c0 .1 0 .2.2.2 0-.1 0-.2-.2-.2zM43 54c0-.1-.1-.2-.1-.2l-.1.1c0 .1.1.1.2.1zM43.2 54.2c0-.1-.1-.2-.2-.2 0 .1 0 .2.2.2zM43.5 55.7c0 .1 0 .2.2.2 0-.2-.1-.2-.2-.2zM46.5 57.2c0-.1-.1-.1-.1-.1l.1.1c-.6-.6-.8-.3-1.1.1.4.2.6 0 .9-.2 0 .1.1.2.1.2l.1-.1zM48.1 58.8c-.1.2 0 .2.1.2.1-.1 0-.2-.1-.2zM50.3 61.6l.1-.1c0-.1-.1-.1-.2-.1-.1.1 0 .2.1.2zM73.8 40.2c.2.4.3.7.5 1 .2.4.2.8-.1 1.1 0 0 0 .1.1.2.3-.1.5-.2.6-.5-.5-1.4-1.5-2.7-1.6-4.3-.3.9 0 1.8.5 2.5zM72.3 44.8c1.1.2 1 1.6 1.9 2.1-.3-.6-.5-1.2-.8-1.7-.4-.6-.6-1.2-.6-1.9 0-.1-.1-.1-.2 0-.2.4.1 1-.3 1.5zM73.9 35.2c.2.2.5 0 .6.1.1.2 0 .5.3.5 0-.5.2-1-.4-1.2-.1.3-.4.3-.5.6zM74.7 33.7c-.7.2-.4-.5-.8-.5 0 .5.1 1 .5 1.4 0-.3-.1-.7.3-.9zM75.5 28.3c.1-.5 0-.8-.5-.9-.4.6.6.5.5.9zM72.7 49.3c0 .1 0 .1.1.1l.1-.1c0-.1-.1-.1-.2 0 0-.2.1-.3-.1-.5-.3.2-.7.4-.6.9.2-.2.4-.3.7-.4zM72.3 48.4c.2-.1.3-.2.4-.3-.2-.1-.4-.2-.7-.3-.1.4.1.5.3.6zM73.7 36.4c0-.2.1-.3-.1-.4h-.4c-.1.6.1.6.5.4zM74.9 35.7c-.1.4.1.6.4.7.2-.4-.1-.5-.4-.7zM72.9 49.8c0 .1 0 .2.1.3.3.1.4 0 .4-.3-.2-.2-.3-.2-.5 0zM72.6 41.3c-.1 0-.2 0-.4.1-.1.2 0 .3.1.4.3 0 .4-.1.3-.5zM73.1 36.7c-.1.4-.2.7 0 1.1.1-.4.1-.7 0-1.1zM75 24.3c.1.1.1 0 0 0zM75 24.3c0-.2-.1-.4-.1-.6l-.1.1v.5h.2zM75.5 26.4c.1-.5-.1-.5-.4-.4.1.2.2.3.4.4zM75.1 30c0 .2.1.4.1.6l.1-.1V30c-.1.1-.3-.1-.2 0zM73.6 34.2c-.1-.1-.2-.1-.4 0v.4c.2-.1.3-.2.4-.4zM74.3 36.5c.1.1.2.3.3.4.1-.4-.1-.5-.3-.4zM72.3 42.3c0 .2-.2.4.1.7.1-.3.1-.5-.1-.7zM73.3 43.5c.2-.3.1-.5 0-.8-.2.3-.2.5 0 .8zM72.5 51.4c.1.1.2.3.3.5.1-.4.2-.6-.3-.5zM75 25.5c.1-.2.1-.3-.2-.6.1.3-.1.5.2.6zM74.6 31.1c-.2-.2-.3-.2-.5 0 .2.2.3.2.5 0zM75.1 32.5c-.2-.1-.3-.1-.4.1.1-.1.3.2.4-.1zM74.8 34.5c.2.1.4.2.5 0-.2-.2-.3-.2-.5 0zM74.6 37.8c-.2-.2-.3-.2-.5 0 .2.2.4.2.5 0zM74.5 40.3c0-.1.3-.3-.1-.4-.1.2-.1.3.1.4zM73.6 42.2c.1-.2.1-.3-.1-.4 0 .1-.3.3.1.4zM73.9 44.8c-.2-.2-.4-.3-.5 0 .2.2.3.2.5 0zM72.1 46.3c.2-.2.2-.3 0-.5-.2.2-.2.4 0 .5zM73.1 47.7c.1-.1.1-.3-.1-.4.1.1-.2.3.1.4zM75.2 20.7c-.1.1-.1.1 0 .2.1 0 .1-.1 0-.2zM75 29.3c.1 0 .1-.1 0-.2-.1.1-.1.1 0 .2zM75.5 29.9c-.2-.1-.2 0-.2.1.1 0 .2 0 .2-.1zM75.4 30.9c0 .1.1.1.2.1 0-.1-.1-.2-.2-.1zM75.1 31.8c.1.1.1.1.2 0 0-.1-.1-.1-.2 0zM74.4 38.8c0 .1.1.1.2 0 0-.1-.1-.1-.2 0zM73 40.1c-.1 0-.1.1 0 .2.2-.1.2-.1 0-.2zM71.8 42.9c.1 0 .1-.1 0-.2-.1.1-.1.2 0 .2zM74.1 43.8c0-.1-.1-.1-.2 0 .1.1.1.1.2 0zM73 46.6c-.1 0-.1.1 0 .2.2-.1.2-.2 0-.2zM71.8 47.5c.1 0 .1-.1 0-.2-.1.1-.1.1 0 .2zM73.4 48.8c.1.1.2.1.2 0s-.1-.1-.2 0zM51.6 39.3c.4.3.5-.4.9-.1.2.8-.2 1.6-.4 2.4 0 .2.2.2.2.4.3-.1.5-.4.7-.6l-.2-.2c0-.1.1-.2.2-.3-.3-.7-.3-1.2-.1-1.2 0 .1.1.1.2.2.4-.5-.2-.8-.1-1.2-.1-.1-.3 0-.4-.1-.1-.1 0-.3-.2-.4-.3.1-.1.4-.2.6-.2.1-.5.1-.6.5zM50.7 43.7c-.2-.2 0-.5-.2-.7-.8.1-1 .3-1 1.2l.9-.9v.9c-.2.3-.4.1-.4.4.1.1.2.3.5.3.2 0 .1-.2.2-.3 0-.1.2-.2.3-.3s.2-.2.1-.4c-.1-.3-.3-.1-.4-.2zM46.7 30.3c.4-.5-.2-.8-.1-1.2-.2 0-.3-.1-.3-.2-.6-.1-1.1.4-1.7.3.4.1.8.3 1.1.7.1-.3.1-.4.1-.4.2.1.3.1.5.2-.1.1-.1.2-.2.3.2.2.3.4.6.3zM49 31.9c.1 0 .1.1.2.2.2 0 .2-.2.4-.2v-.2c-.1 0-.2 0-.2-.2-.4-.1-.4-.5-.8-.7h-1c-.1.2-.1.3.1.4.3.1.3-.1.5-.2.5.4.5.4.6.9h.2c-.5.2-.6-.3-1-.5 0 .1-.1.3-.1.4-.5.1-.5.1-.8.5.4.1.6-.4 1-.2 0 .1.1.1.1.2-.1.1-.3.1-.4.2 0 .1 0 .3.2.4.3-.3.9-.2 1-1zM49.3 42h-.5c.7.7-.8.9-.2 1.6.4-.1.2-.8.9-.7-.1-.3 0-.6-.2-.9z"/><path class="st1" d="M47 31.5c.2-.1.4.1.5-.2-.2-.1-.3-.1-.5.2-.2-.1-.4 0-.5.2-.2-.1-.3-.4-.6-.1v.3c.2.1.3.1.5.2-.3.2-.3.4-.3.6h.4c.1-.6.1-.6.5-1.2zM49.5 34.4c-.3-.1-.5 0-.7-.1 0-.2.3-.3.1-.6-.1-.2-.3-.1-.4-.1 0 .3 0 .5-.2.6.2.2.2.4.3.6.4.1.7 0 .9-.4zM49.9 39.7c1.1-.6 1.1-.6 1.2-1.1-.5.3-1.1.2-1.2 1.1zM45.4 37c.3.1.1.6.4 1 .7-.5-.1-.9.1-1.2-.2 0-.3-.1-.5.2zM53.1 38.7c.4 0 .6-.1.7-.5h.4c.2-.3-.2-.5-.3-.7-.2 0-.4-.1-.5.2-.1.2.3.3.3.5h-.4c0-.2-.1-.4-.1-.5-.2 0-.3 0-.4.2 0 .3.4.5.3.8zM51.2 42.2c.3-.2-.1-.2-.2-.5 0-.2.1-.4-.1-.5-.1 0-.2 0-.3.1.1.6.1.6.6.9zM47 32.6c-.3.3-.3.5 0 .8.2-.1.5.1.6-.2 0-.3-.2-.5-.6-.6zM46.3 35.8c-.5-.2-.8.2-1.4.4h1.4v-.4zM51.3 39.4h-.4c0 .4-.1.8.1 1.2l.4-.4c-.1 0-.1-.1-.2-.2 0-.2.2-.2.2-.4 0-.1-.1-.1-.1-.2zM49.3 33.6c.1 0 .2-.2.3-.2l-.6-.6c-.2.3 0 .6.3.8zM50.1 35c.2.2.3.5.3.7.2-.1.3-.2.4-.3-.1-.1-.2-.2-.2-.3s0-.3-.2-.3c-.1 0-.2 0-.3.2zM49.4 36.2c.1.4 0 .7.2 1.2-.2-.5.4-.7.2-1.1-.1 0-.2-.1-.4-.1.1 0 .1 0 0 0-.2-.3-.6-.2-.9-.2v.4c.4.2.6 0 .9-.2zM49.7 40.3c-.7.3-.7.3-.6 1 .3-.2.3-.6.6-1zM45.3 35.5h.6c-.1-.2 0-.3-.1-.4-.2.1-.4-.1-.6.1 0 .1-.1.2.1.3zM49.9 38.2h.4s.1-.1.1-.2c0-.3-.2-.4-.3-.5 0 0-.2 0-.6-.1.4.3.5.5.4.8zM51 38.4c.4-.2.8-.1.8-.7-.2.4-.9.1-.8.7zM45.4 39.8c.3 0 .5-.2.6-.4l-.3-.3c-.1.2-.5.4-.3.7zM49.9 42.1c0 .3.2.5.4.6l.3-.3c-.2-.2-.3-.6-.7-.3zM46 38.2c-.2.3-.2.5 0 .7h.3c.1-.3-.1-.6-.3-.7zM51.6 39.8v.6c.2.1.3.1.4 0 .1-.3-.1-.4-.4-.6zM44.6 31.4c.5.1.6-.1.8-.4.1-.1 0-.2 0-.2-.2.2-.5.3-.8.6zM49.7 41.7c.2-.3.2-.5 0-.7h-.3c0 .4.1.6.3.7zM49.7 39.5c-.2-.2-.5-.1-.7-.1.1.2.2.3.3.5l.4-.4zM51.1 44.7c0 .2-.1.3.1.4h.4c0-.5-.2-.5-.5-.4zM45.5 40.4l-.1.1c0-.3-.1-.5-.4-.6-.2.4 0 .5.3.6 0 0 0 .1.1.2s.4.1.6-.1l-.3-.3c0 .1-.1.1-.2.1zM49.7 45.3v.3h.5v-.3c-.2-.1-.4-.1-.5 0zM46.7 34.7c-.1 0-.3-.1-.4.1v.3h.5c0-.2 0-.3-.1-.4zM45.8 34.5c.1-.2 0-.3-.1-.4-.3 0-.4.1-.3.5.2 0 .3 0 .4-.1z"/><path class="st1" d="M49.9 33.8c-.3.1-.4.2-.5.5.2 0 .3.3.5.1v-.6c.2 0 .4.1.5 0 0-.2-.2-.2-.2-.4h-.5c0 .2.1.3.2.4zM46.6 33.7v-.3h-.5c0 .1 0 .3.1.4.1 0 .3.1.4-.1zM48 33.3v.3h.5c0-.1 0-.3-.1-.4-.1 0-.3-.1-.4.1zM48.9 38.3v-.4c-.5 0-.5.2-.4.5.2 0 .3.1.4-.1zM46.9 37.9c-.2 0-.3.1-.3.4.1.2.3.2.4-.1 0-.1.1-.2-.1-.3zM49.9 39.9c.2.2.3.5.8.3-.3-.1-.4-.6-.8-.3zM51.3 42.7l-.4.4.4.4c.1-.3.1-.5 0-.8zM50.7 37.6c.1 0 .3.1.4-.1v-.3h-.5c0 .2.1.3.1.4zM46.4 37.4c.2.1.3 0 .4-.1-.1-.2-.1-.2-.5-.3 0 .2.1.3.1.4zM51.9 37v-.3h-.5c0 .2 0 .3.1.4.1 0 .3.1.4-.1zM46.8 28.6c-.2 0-.5-.2-.5.2.2 0 .3.1.3.3.3 0 .2-.3.2-.5zM45.4 30.4c.2-.1.3-.1.6-.3-.5-.2-.7-.1-.6.3zM46.2 30.6c-.1.2-.1.3 0 .4.2.1.3 0 .4-.1-.2-.1-.2-.3-.4-.3zM46.6 30.6c.1.1.2.3.4.3.1-.2.1-.3 0-.4-.2-.1-.3 0-.4.1zM49.6 34.7c-.1.2-.2.4-.3.5.3.1.3.1.3-.5zM44.5 36.7c.4.1.5-.1.4-.3-.1.1-.3.2-.4.3zM50.5 37.2c.1-.1.3-.2.3-.4-.2-.1-.3-.1-.4 0-.1.2 0 .3.1.4zM52.7 36.7c-.2.3-.2.5 0 .7.2-.2.2-.4 0-.7zM48.9 37.3c0 .1.1.3.2.6.1-.7.1-.7-.2-.6zM49.8 38.1c-.2.2-.2.3 0 .5h.4c-.2-.2-.3-.3-.4-.5zM48.8 38.9c.5 0 .7-.1.5-.5-.1.1-.2.3-.5.5zM46.3 38.9c.1.2.2.3.4.4.1-.1.1-.2 0-.4h-.4zM51.4 40.9c.1.3 0 .4.1.5.1.2.2.1.4 0-.2-.1-.3-.2-.5-.5zM51.4 44.2c.2-.1.4-.3.4-.5-.1 0-.2 0-.4.1-.1.1-.1.3 0 .4zM48.3 35c0 .2-.1.3.1.5.1-.2.2-.3-.1-.5zM50 35.5c-.1.2-.1.4 0 .5.2-.2.2-.3 0-.5zM47.1 34.2l.1.1c.1 0 .1-.1.1-.2-.1 0-.2 0-.2.1zM49 35.7c0 .1.1.1.2 0 0-.1-.1-.1-.2 0zM50.2 36.4c0 .1.1.1.2 0-.1-.1-.2-.1-.2 0zM51.4 36.7c0-.1-.1-.2-.1-.2l-.1.1c0 .1.1.1.2.1zM50.5 40.8c-.1 0-.1.1 0 .2.1 0 .1-.1 0-.2zM91.6 31.1c.3-.3 0-.4-.1-.6.2-.2.7.2.9-.2 0-.2 0-.3-.2-.4-.3.4-.9.3-1.3.6 0 .4.1.7.7.6zM85.1 40.2c-.2.1-.5.3-.7.4v.4c.4-.1.8.3 1.2.2v-.7c-.2-.1-.3-.2-.5-.3zM91.6 29.4l-.3.3c.2.1.3.1.4.1.1-.1.3-.2.4-.3-.3-.3-.2-.9-.6-.9-.3.1-.5.2-.6.3.2.3.5.4.7.5zM90.7 32.8c.1-.4-.2-.5-.3-.6h-1.1c.4.2.7.6 1.2.7.1 0 .1-.1.2-.1zM82.7 45.5c0-.2 0-.4.2-.5.2-.1.1-.3.1-.4-.4.2-.7.7-1.2.5.3.1.5.5.9.4zM91.4 32.8c.1.2.4.3.1.6-.3.2-.4-.3-.6-.2-.1.1-.1.2 0 .3 0 .1.1.1.1.1h.8v-.9c-.2-.1-.3-.1-.4.1zM89.2 31.1c-.9.3-.9.3-.8 1 .3-.4.7-.5.8-1zM91.9 31.1c0 .2 0 .3.1.4.4 0 .6-.2.9-.5-.1-.1-.1-.2-.2-.3-.3.1-.5.3-.8.4zM90.9 32.3c.1 0 .2-.1.3-.1v-.4c-.3 0-.3-.3-.5-.4-.3-.2-.4-.2-.5.1.4 0 .3.5.7.8zM82.8 47c-.2 0-.2.1-.3.1.1.7.1.7.7.9v-.2c-.5-.1 0-.6-.4-.8zM89.9 33.5V33c-.2.3-.8.3-.6.9.1-.3.4-.3.6-.4zM82.7 40.5v-.9c-.4.1-.4.4-.4.8.1.2.2.2.4.1zM86 36.7h.4c-.1-.3 0-.6-.1-.9-.4.2-.4.5-.3.9zM90.1 33.8c-.1.1-.3.2-.5.5.3 0 .4.1.6 0 .2 0 .3.3.5.2 0-.5-.3-.6-.6-.7zM90.9 30.5c0-.5-.3-.7-.7-1 0 .4.3.7.4 1h.3zM90.5 30.9c-.2-.2-.2-.4-.5-.4-.2-.1-.3.3-.5.2.5.3.7.4 1 .2zM86.3 35.2c-.1-.2-.2-.3-.3-.4-.2.2-.6.4-.3.7.3.1.4-.2.6-.3zM84.9 35.4v-.3h-.7v.4c.3 0 .5.1.7-.1zM84.9 36.5h-.7c.1.3.4.5.7.9v-.9zM83.3 43.3c0-.2 0-.3-.3-.4-.1.2-.4.2-.3.5.2 0 .4.1.6-.1zM84.2 36.5v-.4c-.3-.1-.5-.2-.7 0 .1.3.4.5.7.4zM86.7 32.8c-.2 0-.4-.1-.6.1v.3h.5c-.2-.3.3-.3.1-.4zM92.3 31.5c.1.2-.4.3-.1.7h.4c-.1-.3.2-.6-.3-.7zM92.8 28.1c.1-.2.1-.3-.1-.4-.3-.2-.3.3-.7.2.3.3.5.3.8.2zM85.2 36h-.3v.5h.3c.1-.2.1-.4 0-.5zM86.5 33.8c-.2.3-.1.6 0 .8l.2-.2c-.1-.2-.1-.4-.2-.6zM89.8 31.8c.1-.1.3 0 .4-.3-.2.1-.6-.2-.7.2 0 .1 0 .2.1.3 0-.1.1-.2.2-.2zM86.6 41.5V41c-.2 0-.3.1-.3 0-.1.2-.1.4 0 .5h.3zM85.9 37.7v-.5h-.5v.5h.5zM86.3 34.3c-.3-.2-.5-.3-.6-.3-.1.3-.1.3.6.3z"/><path class="st1" d="M91.6 31.5c-.2-.1-.3-.1-.6.2.3 0 .5.1.6-.2zM83.9 37.1c0-.2-.2-.1-.4 0 .2 0 .4.2.4 0zM83.5 37.1s.1.1 0 0zM82.4 41.3c.1-.2.1-.3-.1-.4.1.1-.2.3.1.4zM85.2 41.6c-.3-.1-.4-.2-.5 0 .2.2.3.2.5 0zM93.8 27.4c0-.1-.1-.2-.1-.2l-.1.1c0 .1.1.1.2.1zM92.6 32.2c0 .1 0 .2.1.2l.1-.1c0-.1-.1-.1-.2-.1zM91 32.4c-.1.1-.1.2 0 .2s.1-.1 0-.2zM86.6 33.1c0 .2 0 .2.1.2l.1-.1c0-.1-.1-.1-.2-.1zM91.2 34.2c0 .1.1.1.2 0-.1-.1-.2-.1-.2 0zM86.7 35c.1 0 .1-.1.1-.2-.1 0-.2.1-.2.1l.1.1zM85.4 37.2c0-.1 0-.2-.1-.2l-.1.1c0 .1.1.1.2.1zM85.6 40.6c.1 0 .2-.1.2-.1l-.1-.1c-.1 0-.1.1-.1.2zM60.2 55.5c-.3.1-.7-.3-.9.2.2-.1.2.1.1.2 0 .1 0 .1-.1.2 0-.1 0-.3-.1-.5-.1 0-.2.1-.2.2 0 .2 0 .3.2.3 0 .1-.1.3.2.5.2.2.3-.3.5-.2.2.2-.1.5.2.7.2-.3.4-.7.6-1.1-.3 0-.4-.2-.5-.5zm-.4.5c0-.1.1-.1.2 0-.1.1-.2.1-.2 0zM64 59v.2s.2-.2 0-.2zM63.7 61.8c-.1-.2-.2-.4-.5-.2v1.1c.2.1.3.1.4-.1.2-.2-.4-.3-.2-.5h.6c.1.2 0 .4.2.5.1-.3.2-.6.1-.9-.4-.2-.4.1-.6.1zM57.8 52.2c0 .2-.1.4.2.4.1-.3.4-.4.5-.6-.1-.2-.4 0-.4-.2 0-.3.1-.5-.1-.7h-.4v.7c.2 0 .2.2.2.4zM60.2 61.9v.8l.5.5c-.2-.5.2-.6.2-.9-.1-.2-.2-.5-.7-.4zM62.1 60.7c0 .5.4.7.7 1.1v-1.3c-.2 0-.4.3-.7.2zM58.9 53.7c-.4.1-.7.4-1 .3.1.2.2.4.4.5.3-.1.5-.3.8-.4 0-.2 0-.3-.2-.4zM59 49.7c0 .1-.1.4.1.4.2.1.3 0 .4-.1-.1-.3-.1-.7-.6-.8-.3.3.1.3.1.5zM59.5 51.5c.1.1.3.1.4 0 0-.2.1-.4-.1-.6h-.3v.6zM59 52.4c0 .1 0 .3.1.4.2 0 .5.1.7-.3-.3-.3-.5-.3-.8-.1zM57.9 53c.3 0 .6.1.9-.1-.2-.1-.3-.4-.7-.3.1.1-.4.2-.2.4zM60.8 60.3l-.3.6c.3 0 .5.1.7-.1 0-.2-.2-.3-.4-.5zM60.9 59.4c.1-.2.1-.3-.1-.4-.3-.2-.3.3-.7.2.3.4.5.4.8.2zM58.3 48.4c-.1-.2-.2-.3-.4-.3-.1.1-.3.2-.3.4l.3.3.4-.4zM59.3 51.5c-.1-.2-.2-.2-.4-.1-.2.2-.2.4 0 .7.2-.2.4-.3.4-.6zM57.3 52.2h.3v-.4c-.2.1-.2-.3-.4-.2.1.2-.1.4.1.6zM63.6 60.7c-.1.2-.1.4.2.4.3.1.3-.2.5-.4-.2.1-.5-.2-.7 0zM57.9 55.5c.3-.1.2-.3.1-.5h-.6c0 .2.2.4.5.5zM61.1 55.7c.1.2.3.2.5.2 0-.2.2-.5-.1-.7-.2.2-.4.3-.4.5zM57.7 55.7c-.2.1-.2.2-.1.4h.7c-.1-.3-.3-.5-.6-.4zM57.3 55.9c-.3.2-.5.3-.4.6.1.2.2.2.4.1v-.7z"/><path class="st1" d="M61.9 60.3c-.3-.1-.4.2-.7.4h.9c0-.2.1-.4-.2-.4zM63.5 60.4c-.1-.1-.2-.3-.3-.4-.1.1-.2.3-.5.5.4-.1.4.1.4.3l.4-.4zM57.9 46.5c-.1-.2-.1-.3-.1-.4-.2-.1-.3 0-.4.1 0 .3.1.4.5.3zM56.8 49c.1.2.1.3.1.4.2.1.3 0 .4-.1 0-.3-.1-.4-.5-.3zM61.4 61.6v.2c.2.1.3.1.5 0 0-.1 0-.2-.1-.3-.2-.1-.3 0-.4.1zM58.3 50c.2.2.3.2.5 0 0-.1 0-.2-.1-.3-.2-.1-.3 0-.4.1v.2zM59 50.6v.3h.5v-.3c-.2-.1-.4-.1-.5 0zM61.9 58.9c0-.3-.1-.4-.5-.3 0 .2.1.3.1.4.2.1.3 0 .4-.1zM62.1 59.1c0 .3.1.4.5.3 0-.1 0-.2-.1-.4-.2-.1-.3 0-.4.1zM61.4 59.7c.6 0 .6-.1.4-.5-.2.1-.3.1-.4.1v.4zM56.9 52.9c.2 0 .3-.1.5-.3-.3-.2-.6-.1-.8 0l.3.3zM56.2 53.8c-.1.5.1.5.5.4-.1-.2-.1-.3-.1-.4h-.4zM57.3 54.1c0-.3-.1-.4-.5-.3.1.2.1.3.1.4.2.1.3 0 .4-.1zM56.9 54.6v.3h.5c0-.1-.1-.2 0-.3-.2-.1-.4-.1-.5 0zM58.4 55.2c.2-.1.3-.1.4-.1v-.4c-.6 0-.6.2-.4.5zM62.6 55.9v-.5h-.3c-.1.2-.1.4 0 .5h.3zM58.4 57.1c-.1-.2-.1-.3-.2-.4-.2.1-.3.2-.4.3.3.2.5.2.6.1zM61.2 57.3c-.1-.2.1-.5-.2-.7-.1.2-.2.4-.3.7h.5zM59 57.2c.2.2.4.2.5 0 0-.1 0-.2-.1-.3-.3-.1-.4 0-.4.3zM58.2 57.3c-.1 0-.2 0-.3.1-.1.2 0 .3.1.4h.2c.2-.1.2-.3 0-.5zM61.6 58.3h.3v-.5h-.3c-.1.2-.1.4 0 .5zM56.7 57.1c-.1-.1-.2-.3-.3-.4-.1.4.1.5.3.4zM61.9 57.8h.7c-.2-.3-.5-.3-.7 0zM60.5 58.7c.2-.1.3-.2.5-.3-.6-.2-.6 0-.5.3zM58.7 59c-.1-.2-.2-.3-.3-.6-.2.5-.1.7.3.6zM60.2 61.5c.1-.1.3-.2.4-.3-.4-.1-.4.1-.4.3zM58 47.4c.1-.4 0-.4-.3-.4.1.1.2.3.3.4zM57 47.9c.7.2.6 0 .5-.3-.2.1-.3.2-.5.3zM56.3 51.7c.2.1.4.2.5.3.1-.4.1-.4-.5-.3zM59 53.4c.1.2.2.2.4.1 0-.2-.1-.4-.2-.5-.3.2-.2.3-.2.4zM59.7 48.5c-.2-.1-.3-.1-.4.1.1 0 .3.3.4-.1zM58.3 49.3c-.1-.2-.3-.2-.5 0 .2.2.3.2.5 0zM58.2 50.8c.1-.2.1-.3-.1-.4.1.2-.2.4.1.4zM56.4 53.4c.2 0 .4.3.4-.1-.2-.1-.3-.1-.4.1zM58 53.7c.1-.1.1-.3 0-.5-.2.2-.2.3 0 .5zM61.4 54.8c-.2-.2-.3-.2-.5 0 .2.2.4.2.5 0zM60.6 55.4c.1-.2.1-.3-.1-.4.1.1-.2.3.1.4zM57.5 57.9c-.1.1-.3-.1-.3.1s.2.1.4 0c-.1-.1-.1-.2-.1-.1zM58.2 59.3s-.1.1 0 0zM61.8 56.4c-.1 0-.1.1 0 .2.1-.1.1-.1 0-.2zM57.4 57c0 .1.1.1.2 0-.1-.1-.2-.1-.2 0zM62.5 57.1c.1-.1.1-.2 0-.2s-.1.1 0 .2zM61.3 57.5l.1-.1c0-.1-.1-.1-.2-.1 0 .2 0 .2.1.2zM61.1 61.4c.1-.1.1-.2 0-.2s-.1.1 0 .2zM54.5 50.1c0-.1 0-.2-.1-.3-.2.4-.9 0-1 .6l.3.3c.1-.2.3-.3.5-.2.3.3 0 .7.2 1.1.2 0 .4.1.6-.1v-.2c-.1-.3-.4-.1-.5-.3.3-.2.4-.7.9-.6 0-.2.1-.3 0-.4-.3.2-.6.5-.9.1zM55.3 43.6c-.1-.1-.2-.2-.2-.4.1-.4.4-.4.7-.6l-.3-.3c-.1.2-.4.2-.6.2 0 .1 0 .2-.2.2 0 .3 0 .5.1.6 0 .1-.1.2-.2.3.2.2.5.2.7 0zM53 49.4c-.2.1-.2-.1-.4-.2-.4.4-.5-.1-.6-.3-.2 0-.3.2-.4.4.4.4.8.7 1.4.5v-.4zM54.6 48c.3-.1.6.1.8.2.1-.2.4-.3.4-.6-.3-.1-.5-.3-.8-.4-.2.3-.6.4-.4.8zM54.1 45.2v.4c.4 0 .9-.1 1.3.2l.3-.3c-.6.2-1.1-.6-1.6-.3zM54.6 48.9c.3.4.5.3.7.3l.6-.6-.3-.3c-.4.2-.7.4-1 .6zM52.9 46.5c-.1.2-.1.2-.1.6h.2c.2-.2 0-.7.3-.9l-.1-.1h-.6c-.1.2.1.2.3.4zM53.8 48.4h-.4c-.2.4-.1.7-.4 1 .2 0 .3.2.7.2-.4-.5.2-.7.1-1.2zM55.1 46.9c.1-.3.4-.3.3-.7-.3-.1-.5-.2-.7.2 0 .2.2.3.4.5zM54.4 44.6c.1-.5-.2-.6-.8-.8.2.6.4.9.8.8zM53.2 51c.2.6.3.8.8.8.1-.5-.2-.6-.8-.8zM53.9 43.7c-.3-.6-.3-.6-.7-.7.1.4.3.7.7.7zM54 48.6c0 .3.2.4.6.7-.2-.4 0-.6-.2-.8-.2-.1-.3 0-.4.1zM53.8 45.7v.8c.3.1.5 0 .4-.4 0-.1-.2-.2-.4-.4zM52.9 42.2c-.2.3-.2.5 0 .7.2-.2.4-.3.4-.5-.1-.2-.2-.2-.4-.2zM53.3 45.8c.1 0 .2.1.3-.1 0-.2-.1-.3-.4-.3-.2.1-.2.3.1.4zM53.3 47.1c0 .3.1.4.5.3-.1-.1 0-.2-.1-.4-.2 0-.3 0-.4.1zM53.7 39.4h.3v-.5H53.7c-.1.2-.1.4 0 .5zM53.4 41.4c.1.1.2.1.4 0V41c-.3.1-.4.3-.4.4zM53.6 42.1c-.1.1-.1.2 0 .4h.4c0-.2-.2-.4-.4-.4zM56.1 44.6h-.4c0 .2.1.3.2.5.3 0 .3-.2.2-.5zM54 46.9c.1.1.2.3.5.5 0-.5-.1-.7-.5-.5zM52.6 48.2c.5.1.5-.1.4-.3-.1.1-.3.2-.4.3z"/><path class="st1" d="M52.1 48.5v.5c.1-.1.3 0 .5-.2-.2 0-.2-.3-.5-.3zM54.7 38.3l-.1-.1c-.1.1-.3-.1-.3.1s.2.2.4 0zM54.5 38.7c-.2-.1-.3-.1-.6.2.3-.1.5.1.6-.2zM53.9 48.3c.1-.3.2-.4 0-.5-.2.2-.2.3 0 .5zM52.8 50.7c.2.2.3.2.5 0-.2-.2-.3-.2-.5 0zM53.2 40.1c-.1 0-.1.1 0 .2.1-.1.1-.1 0-.2zM55.7 45.3c.1 0 .2 0 .2-.2-.2 0-.2.1-.2.2zM37.1 25.4c-.2.4-.1.8.1 1.1-.2.1-.5 0-.6.1-.1.1 0 .4-.3.4.1.4.4.2.7.1-.1-.1-.1-.2-.2-.3.3-.4.4.1.7.1 0-.3-.1-.6 0-.8 0-.3-.1-.6-.4-.7zM41.5 30.8h-.3c-.2.3-.1.5.1.8-.4.3-.4-.2-.7.1 0 .3.3.5.6.6.1-.2.2-.3.4-.5-.1-.3.1-.7-.1-1zM42.5 29.1c-.1-.3-.3-.6-.3-1-.2.1-.2.3-.4.3v.8c.2.1.5.2.7-.1zM39.3 27.5c0-.5.4-.6.3-1.1-.4 0-.7.3-1 .4.1.5.6.3.7.7zM41.6 32.5c.7.1.7.1.8-.6-.2.4-.9 0-.8.6zM40.2 27.6c.1 0 .2.3.4.1-.4-.7-.4-.7-1-.3.2.3.4.2.6.2zM42.2 29.9c.3.1.5.2.6.3.2-.2.5-.3.3-.6-.2-.2-.4-.1-.5.1-.1.2-.3-.5-.4.2zM42.3 36.1c.3-.4 1-.4.9-1-.4.2-.9.2-.9 1zM38 28.9c.4.1.4.5.7.4s.1-.5.4-.6l-.1-.1c-.3-.2-.5.4-1 .3zM41.3 34l.3.3c.2 0 .2-.2.4-.2 0-.3-.2-.4-.5-.5.1.2-.2.3-.2.4zM41.2 35.7c.1.1-.1.4.1.5.2-.1.3-.2.5-.3-.1-.5-.3-.4-.6-.2zM41.3 28.4h-.5v.7c.4-.1.5-.3.5-.7zM39 27.9c-.2.1-.2.3-.1.4.3.1.5.1.7-.1-.2-.1-.3-.4-.6-.3zM38.3 26.6c.2-.2.2-.4 0-.7-.2.2-.5.3-.4.6.1.2.2.2.4.1zM41.4 36.8c.4-.2.3.1.6.2 0-.2.3-.2.2-.5-.3.1-.5-.1-.8.3zM42.4 34.9c-.1 0-.3-.1-.4.1v.3h.5c0-.1 0-.3-.1-.4zM43 33.9c.2-.1.3 0 .4-.1.1-.2 0-.3-.1-.4-.3 0-.4.1-.3.5zM41.3 28v.4h.5c-.1-.5-.1-.5-.5-.4zM40.5 26.5c0-.1.1-.2-.1-.3-.2 0-.3.1-.3.4.2.1.3.1.4-.1zM42.4 27.8c-.1-.2-.2-.3-.3-.5-.2.7 0 .6.3.5zM40.1 28.5c.2-.1.4-.1.6-.3-.5-.2-.7-.1-.6.3zM41.8 31.6l.3-.3c-.3-.1-.3-.1-.3.3zM42.4 34.5c.1-.1.1-.2 0-.4H42c.1.2.2.3.4.4zM43.1 36.6c-.1.2-.2.4-.3.5.4.1.4.1.3-.5zM42.8 31.7c-.1.2-.1.3.2.6-.2.1-.3.3-.3.5.2.1.3.2.5 0 0-.2.1-.4-.1-.6l-.1.1c-.1-.3.1-.5-.2-.6zM42.8 33.3c-.3-.2-.4-.3-.5 0 .2.2.3.2.5 0zM39.5 28.6l-.1.1c0 .1.1.1.2.1 0-.1 0-.2-.1-.2zM40.5 30.6c0-.1-.1-.1-.2-.1 0 .1.1.2.1.2l.1-.1zM80 49.9c-.1-.2-.1-.3-.3-.6-.2.5-.1.7.3.6zM62.4 64.7c.2.1.3.4.6.3.1-.1.1-.3 0-.5-.2.1-.4-.1-.6.2zM63.6 64.6c.2.2.3.2.5 0-.2-.1-.4-.1-.5 0zM63 64.3c0-.2.2-.4 0-.4s-.1.2 0 .4z"/><path class="st1" d="M63 64.3c.1-.1 0-.1 0 0zM63.9 65.4c0 .1.1.1.2.1 0-.1-.1-.2-.2-.1zM105.9 21.6c-.1-.1-.2-.3-.2-.5-.3.2-.2.3-.2.4.1.2.3.2.4.1zM61 52.3c.2-.3.3-.5.3-.6-.3-.1-.3-.1-.3.6zM82.3 49.3c0 .1-.1.2-.1.4.4-.1.7.1 1.2-.2-.5.2-.7-.4-1.1-.2zM69.7 40.3c.2-.2.4-.3.3-.7-.2 0-.5-.2-.7.1 0 .3.2.5.4.6zM107.1 21.1c.2 0 .2-.2.4-.2v-.5h-.5c0 .3-.2.6.1.7zM96.9 28.4c.3-.1.3-.3.2-.3-.1-.2-.3-.2-.4.1.1 0 .2 0 .2.2zM110.6 19.7h.4c0-.2-.2-.3-.4-.4-.1.1-.1.2 0 .4zM36.1 23c.1.1-.1.3.1.3s.2-.2 0-.4c-.1 0-.2.1-.1.1zM82.3 52.3c.3 0 .2-.3.2-.5-.3 0-.2.3-.2.5z"/><path class="st1" d="M115.6 15.2c-.3-.3-.6-.4-.9-.2-.7.4-1 1-1.3 1.5-.1.1-.2.3-.2.4-.2.2-.5.4-.8.6-.3.1-.5.3-.7.5h-.1c-.8-.1-2-.1-2.8.8l-.1-.1c-.2-.1-.4-.2-.7-.2h-.2c-.6.3-1.1.6-1.5 1-.2.1-.4.3-.6.4-.2-.1-.4-.1-.5-.1l-.2-.3-.4.2c-.6.2-1 .6-1.3 1l-.4.4c-.2-.2-.5-.2-.7-.3l-.2-.1-.2.1-.6.3c-.2.1-.3.2-.5.3l-.3.1v.3l-.1.1c-.2 0-.2-.1-.5-.3l-.2-.2-.3.1c-.8.4-1.8.8-2.4 1.7-1.2-.4-2.2-.1-2.8.8-.1 0-.1 0-.1.1 0 0-.1.1 0 .1-.2.1-.4.2-.4.4-.9-.4-1.6.2-1.9.5-.5.4-.8.8-1 1.3 0 0 0 .1-.1.1-.5-.1-1.1-.1-1.5.7-.2.5-.5.9-.8 1.4h-.9l-.1.1c-.5.5-1 1.1-1.2 1.8h-1l-.1.1c-.8.6-1 1.4-1.3 2.1-.1.2-.1.3-.2.5-1.6.5-1.7 2-1.7 3-.6.3-1 .6-1.1 1-.7.7-.7 1.3-.7 2-1.5.7-1.5 2.1-1.4 3.1l-1 1v2.3c-.6.5-.9 1.2-.5 1.9.1.2.1.3.1.5v.3l-.5.5v2.4l-.3.3c-.1.1-.2.2-.3.2l-.1.2-.1.1c-.2.6 0 1.1.1 1.6.1.2.2.4.2.6-.5.6-1.1 1.4-.5 2.5v.1c-.5.3-.7.8-.8 1.2 0 .1-.1.2-.1.3l-.1.2.1.2c.2.3.2.6.2 1v.6l-.2.2-.4.2.1.4v.3c0 .3 0 .7.2 1v.3c-.3.4-.3.8-.3 1.1v.3c-.1.5 0 1 .1 1.5 0 .1 0 .1-.1.2-.1.2-.2.4-.2.7v1.1c0 .5 0 1.1-.2 1.5-.3.5-.3.9-.3 1.3v.9l-.5.5v2.3l.2.1.1.1c0 .1-.1.2-.2.3-.1.2-.3.5-.3.8v.4c0 .4 0 .8-.1 1.2v-.7c.1-.2.1-.5 0-.7v-1.1c.1-.5.1-1.1.1-1.7v-1c.1-.6.2-1.3.1-2V65.1c.1-.2.1-.4.1-.6 0-.7.1-1.3.1-2v-1.1c.1-.4.1-.8.1-1.1v-.6c0-.1 0-.2.1-.3.1-.4.2-.8.2-1.2 0-.3.1-.7.1-.9l.1-.4c.2-.4.3-.8.2-1.3l.1-.5c.2-.4.2-.9 0-1.3 0-.1 0-.1.1-.2v-.1l.1-.1.2-.2v-.3c0-.1 0-.2.1-.4s.2-.6.1-.9v-.3l.3-.3-.1-.6c0-.1 0-.2.1-.4s.2-.6.1-.9v-.2c.1-.4.2-.8.2-1 0-.2.1-.3.1-.5v-.1c.2-.7.3-1.4.3-2.1.1-.3.1-.7.2-1v-.1c.1-.3.2-.6.1-.9v-.4c0-.4 0-.7.2-1l.1-.1v-.2c0-.5 0-1.1.1-1.7.1-.6.2-1.3.2-2v-.4c0-.5 0-.9.2-1.4.2-.6.1-1.3 0-1.9 0-.2.1-.5.1-.7.1-.3.2-.6.2-1V30c0-1.4.1-2.9-.2-4.4-.1-.6-.1-1.2-.1-1.9s0-1.3-.1-2c-.1-.6-.2-1.3-.2-1.9-.1-.7-.2-1.3-.3-2-.1-.6-.3-1.1-.4-1.7-.1-.5-.3-1.1-.4-1.7-.2-.5-.5-.7-.8-.8l-.1-.1h-.1c-.3 0-.6.2-.7.4 0 0 0 .1-.1.1l-.3.2.1.4c.1.6 0 1.3-.1 2-.1.5-.1 1-.1 1.5-.5.6-.5 1.3-.5 1.9v.1c-.3.4-.5.9-.5 1.7.1.5-.1.9-.3 1.3-.3.5-.5 1.2-.7 1.8v.2c0 .2-.1.4 0 .4l-.3-.3c-.7.7-.7 1.6-.7 2.5v.7c-.2.3-.3.6-.4.8 0 .1-.1.2-.1.3l-.1.1c-.1.3-.2.7.1 1.1.1.2.1.4.1.6-.7.7-.7 1.6-.7 2.4v.7c-.3.2-.4.5-.5.7 0 .1-.1.1 0 .1l-.2.1v2.2l-.5.5v2.6c-.3.4-.5.9-.5 1.6v.7c0 .6.1 1.2-.2 1.8-.2.3-.3 1.1 0 1.4.1.1.1.2.1.4v.2c-.2.2-.5.4-.5.7-.1.1-.2.2-.2.5v.2l.1.1c.1.1.1.3.1.5 0 .3 0 .6.2.9v.4c-.1.1-.2.2-.2.4-.1.3-.1.7 0 1.1.2.7.4 1.3.4 2-.1.6 0 1.1.1 1.6.1.6.2 1.1.1 1.6v.2l.1.2c.1.2.1.4.2.6 0 .2.1.4.2.7-.3.5-.3 1.2-.1 1.8.1.3.2.7.3 1 .4 1.2.8 2.4.7 3.6 0 .2.1.3.1.4.2.6.4 1.3.4 2.1v5.2-.4h-.2c-.1-.5-.1-.9-.1-1.4v-.2l-.1-.1c-.1-.2-.3-.5-.3-.6.1-.6 0-1.3-.2-1.9-.1-.3-.1-.5-.1-.8v-.2l-.4-.2c0-1.8-.1-2-1.2-3.1v-1.9c.1-.6-.1-1.1-.6-1.5 0-.3-.1-.6-.1-.9-.1-.3-.1-.6-.1-.8v-.2l-.2-.3-.2-.2c-.1-.1-.2-.3-.4-.4v-1c.1-.9-.3-1.5-.7-2v-.3c0-.9.1-1.9-.7-2.8.1-.7-.2-1.4-.5-2l-.2-.6h-.3s-.1 0-.1-.1c0-.4-.1-.8-.2-1.1-.1-.2-.2-.4-.2-.7 0-.5-.3-1.1-.8-1.2-.3-.1-.3-.3-.3-.5 0-.3-.1-.5-.2-.7.1.1 0-.1 0-.4-.1-.7-.7-1.1-1.2-1.4-.1-.8-.4-1.5-.6-2l-.2-.3h-.3c-.1 0-.2-.1-.3-.5 0-.1-.1-.3-.1-.4-.2-.6-.5-1-.8-1.5-.2-.2-.3-.2-.5-.3h-.1c-.1-.3-.1-.4-.2-.6 0-.1-.1-.2-.1-.3-.2-.6-.7-1.1-1.3-1.6V35h-.1c-.5-.1-.6-.1-.8-.1-.3-.5-.5-1.1-.8-1.5l-.1-.1-.3-.2c-.8-.4-.8-.4-1.2-1-.2-.4-.4-.7-.7-1-.1-.1-.2-.2-.3-.4-.2-.2-.4-.2-.6-.2-.1-.1-.1-.2-.2-.3-.1-.2-.2-.6-.5-.8l-.3-.4-.2.1c-.1-.1-.4-.3-.7-.3h-.2l-.1.1c-.1-.2-.2-.3-.3-.5l-.3-.6-.1-.1-.1-.1c-.1-.1-.3-.2-.4-.2l-.4-.7-.3.4h-.5c0-.1-.1-.2-.1-.2-.3-.5-.6-1.1-1.3-1.5l-.4-.1h-.6v-.1c-.4-.7-.8-1.4-1.9-1.6h-.2l-.2.1c-.3.2-.4.1-.5.1-.1-.1-.2-.2-.4-.3-.1-.1-.2-.1-.2-.2-.9-.9-1.2-1-2.3-.7-.6-.8-.7-.8-1.7-1.3l-.3-.2-.3.3c-.1.1-.2.1-.4.2-.1 0-.1 0-.2.1L33 20.5l-.1-.1h-.3c-.3 0-.7 0-1 .2-.1-.1-.3-.1-.4-.2-.3-.5-.9-.9-2.2-.7-.2 0-.4.1-.5.2h-.1c-.2-.1-.3-.2-.5-.3-.6-.4-1.2-.9-2.1-.9l-.6.1.2.6c0 .1.1.2.1.3 0 .1.1.3.2.5.6.9.8 1.9.7 2.9-.1.5-.1.9.2 1.2 0 .3.1.6.3.9.2.5.3.8.1 1.2l-.4.4v.2c.1.9.4 1.6.7 2.4.1.2.2.4.2.6-.2.2-.2.5-.2.6 0 .1 0 .2-.1.2l-.4.3.3.4c.3.4.5.8.7 1.2.2.4.4.8.7 1.2-.2.5-.4 1-.2 1.6l.1.2c.5.5.9 1.2 1.2 1.9v.6l-.1.1v.2c0 .7.3 1.1.6 1.4.1.1.1.1.2.3.2.2.3.3.3.5 0 .1 0 .2-.1.3l-.3.3 1.5 2.4c-.2.2-.3.6-.1 1.1v.1l.1.1.3.3c.2.2.5.5.8.6 0 0 .1.1.4.5.5 1.3.6 1.4 1.8 2.1.1 0 .2.1.3.2 0 0 0 .1-.1.3-.1.2-.3.6-.2 1v.2l.3.3c.3.3.6.6 1.1.8.3.1.5.4.8.6-.1.1-.2.4-.1.8v.1l.1.1c.3.3.7.6 1.1.8.5.3.9.5 1.2 1v1l.2.1c.7.6 1.5 1.1 2.5 1.6 0 .1.1.2.1.2.1.2.1.3.1.4l-.1.5.5.1.6.3c.3.2.6.4 1.1.4l.3.3c.1.1.2.2.3.2.1 1 .8 1.1 1.1 1.1.1 0 .2 0 .4.1.1.1.2.1.3.2.6.2.9.4 1 .8l.1.2.2.1c.3.2.7.3 1 .5.4.2.9.4 1.2.6-.1.1-.2.4-.1.7l.1.2c.5.7 1.3.9 2 1.2.4.1.8.3 1.2.5v1l.2.1c.5.5 1.1.6 1.7.7.5.1.8.2 1.1.3l-.2.2.3.3c.5.7 1.3 1 2 1.3.5.2.9.3 1.2.6 0 .2 0 .5.2.7.2.2.4.3.6.3h.1c.1.1.2.1.4.2.5.2.9.4 1 .8v.1l.1.1c.1.1.3.3.5.4h.1c.2 0 .3.1.5.3.2.1.4.3.6.4.3.1.5.4.7.7.1.2.2.4.4.5.9 1.1 1.8 2.2 2.4 3.6.6 1.3 1.1 2.6 1.1 4-.1.5-.1 1-.1 1.5s0 .9-.1 1.4c-.1 1.3-.3 2.5-.5 3.7v.3l.2.2c.2.2.4.4.5.6.6.6 1.2 1.3 2.2 1.7l.2.1.2-.1c.5-.3.9-.9 1-1.7.3-1.1.5-2.4.7-3.5.2-1 .5-2 1.1-3.3.2-.6.6-1.1.9-1.7.3-.4.5-.8.7-1.3.4-.9 1-1.8 1.5-2.6.2-.3.4-.7.6-1 .5-.9 1-1.8 1.6-2.7.2-.4.4-.7.7-1.1.2-.3.3-.5.5-.8.2-.4.4-.8.7-1.1.7-1 1.3-2 1.8-3 .3-.6.7-1.2 1.1-1.8.3-.4.5-.8.7-1.2.1-.3.3-.5.4-.8l.3-.5c.3-.6.6-1.1 1-1.6.4-.6.8-1.1 1.1-1.7.2-.4.4-.8.7-1.1.3-.4.5-.8.8-1.3.6-.8 1.1-1.7 1.6-2.7.3-.5.6-1.1.9-1.6.3-.6.7-1.1 1-1.7.3-.6.6-1.2.9-1.7.2-.4.5-.9.8-1.3.3-.4.6-.9.8-1.3l.6-1c.5-.8.9-1.6 1.4-2.4.4-.7.9-1.3 1.4-2 .3-.4.5-.7.8-1 .4-.4.7-.9.9-1.3.2-.3.4-.7.7-1 .3-.4.6-.9.9-1.3.6-.8 1.3-1.7 1.8-2.7.5-.9 1.1-1.8 1.7-2.7.2-.3.5-.7.7-1 .6-.9 1.2-1.6 1.8-2.4l.9-1.2 1.2-1.8c.4-.6.7-1.2 1.2-1.8l.9-1.5c.4-.7.9-1.4 1.3-2.2.3-.5.6-1.1.9-1.6.6-1 1.2-2 1.5-3.2l.1-.5-.2-.1zM84.9 63.3l-.2.4c-.2.3-.3.6-.4.8-.2.4-.4.8-.6 1.1-.4.6-.7 1.3-1.1 1.9-.5.8-.9 1.6-1.4 2.3-.2.3-.4.5-.6.8 0 .1-.1.2-.1.3-.2.3-.3.5-.5.8-.1.3-.3.5-.4.8-.2.4-.4.7-.7 1.1-.6.9-1.1 1.8-1.6 2.8-.2.3-.4.7-.6 1-.5.9-1.1 1.8-1.5 2.7 0 .1-.1.1-.1.2l-.1.1-.6.9c-.4.6-.8 1.2-1 1.8-.1.2-.1.3-.2.5-.5 1.1-.8 2-.9 3-.2 1.1-.4 2.3-.7 3.4 0 .1-.1.2-.1.3-.3-.2 0-.5-.2-.7-.1-.1-.4-.2-.4-.5-.3 0-.4-.4-.7-.2-.1.4.4.4.4.7.1-.1.2 0 .2.1l-.1.1c-.1 0-.1-.1-.1-.2-.5.1-.6-.4-.9-.6.8-2.8.8-5.7.7-8.3-.3-.9-.8-1.5-1-2.3-.1-.7-.6-1.3-1.1-1.9-.7-.9-1.2-1.9-2.1-2.6 0-.5-.6-.5-.8-.8s-.7-.5-.4-1c-.4 0-.1.4-.4.4-.4-.1-.4-.1-.8-.8l.4-.4-.4-.4c-.1.3-.2.5-.2.6-.6-.2-.9-.4-1.3-.6 0-.2.3-.3.2-.5-.1-.1-.2-.1-.5 0-.1.1.1.3-.1.4-.3 0 0-.5-.3-.5-.1-.2.1-.2.1-.3 0-.1.1-.3.1-.4.1.2.3.3.3.4h.5v.2h.6V70c.5 0 .9 0 1.3.3.8.6 1.2 1.5 1.8 2.4 0 0 0 .1.1.1-.1.1-.3.1-.4.3.4 0 .7.1 1 .3v-.1c.1.7.6 1 .9 1.4 0-.6-.3-1.1-.9-1.4 0-.2 0-.4-.2-.5v-.2c-.1.1-.2 0-.2-.1l.1-.1c.1 0 .1.1.1.2.3.3.7.4 1.1.5-.3.6 0 .5.3.5-.1-.2-.2-.3-.3-.5.2.1.3.1.5.2.1-.1.1-.1.1-.2h.1V73.4l.3.9c.2.5.3 1.1.5 1.7l.2.9.3-.3c.1.2.1.3.3.4.5.5.4 1.2.8 1.8.1.2-.2.2-.2.3 0 .4.5.4.4.8 0-.1.1-.1.1-.2.1-1.8.4-3.5.3-5.2-.1-1.8-.1-3.5 0-5.3 0-.8-.2-1.5-.3-2.2 0-.2-.2-.4-.2-.7.1-.5.2-1.1 0-1.4-.3-.4 0-.9-.5-1.1.2-.2.3-.2.4-.2.5.4.3 1.1.9 1.5-.1-.8-.3-1.6-.4-2.5.1 0 .2-.1.2-.1 0-.2-.1-.3-.3-.3v-.3c.1-1.1.2-2.1.4-3.1.1 0 .1.1.1.1 0 .2-.1.5.2.5-.1-.1-.1-.2 0-.3h.2v-.4c0-.4-.6-.1-.7-.5 0-.4.1-.9 0-1.3-.1-.2 0-.4 0-.6 0 .1.1.2.2.3.1.1.2.1.2.1l.3-.6-.6-.3h-.1c-.2.1-.3.1-.4.2-.2-.3-.1-.5.1-.7.1.1.1.3.2.5 0-.3.2-.7-.1-1.1-.3-.3 0-.6.1-.9h-.4v-.2c.1 0 .1 0 .2-.1.1-.3-.1-.6-.2-.8.2-.4.3-.7.3-1.2V51c.1 0 .2.1.2.2 0 .3.2.4.5.5.1-.4-.2-.7-.3-1.1.2 0 .3-.1.5-.2-.4-.2-.3-.5-.3-.8-.2-.1-.3.5-.7.1v-.2c.2-.2.3-.3.5-.4v-.5s.1 0 .1-.1c-.2-.9-.3-1.6-.5-2.6 0-.1.1-.1.1-.2.1-.1.2-.1.4-.2-.1 0-.1 0-.2-.1l.1-.1v-.2c0-.1 0-.3-.2-.4-.1-.3-.2-.5-.2-.8.1-.1.2-.2.2-.4-.1-.1-.2-.2-.2-.3.1-.4.1-1 .7-1.2-.1-.4-.1-.7-.1-1.1.1-.3.2-.6.5-.8-.1-.1-.2-.2-.2-.3.1-.2.2-.5.4-.7-.1-.1-.1-.2-.2-.3v-.3c0-.3.1-.7-.2-.9v-.2l-.1.1c0-.1 0-.2.1-.3v.2h.2v-.1c.1.3-.1.5.2.5.1-.2.1-.3-.2-.6 0-.2 0-.3-.1-.4.1-.2.3-.4.4-.5V36c.2-.7.5-1 .4-1.5h-.4v-.8c.1-.1.1-.1.1-.2.1-.2.2-.4.3-.5h.7v-.4c-.2.1-.4.2-.7.3.1-.5.1-1 .1-1.4.1.3.2.6 0 1 .4-.3.5-.4.7-.6-.2-.3-.3-.6-.5-.9.1-.1.2-.3.2-.4l.1-.1v-.1c.1-.3.2-.6 0-1v.1c0-.4-.1-.7-.3-1.1l.6-.6c.1.1.1.2.1.3v1.3c.1.1.3.1.5.1-.1 0-.1.1 0 .2.1-.1.1-.2 0-.2h.2v-.2c-.3-.4-.4-.9-.4-1.3.1 0 .1-.1 0-.2.1-.4.2-.8.5-1.1.1-.1.2-.2.2-.4l-.1-.1c-.6.2-.4 1-1 1.2-.2-1.2-.2-1.2.6-2.1v-.4h.1v-.7h-.1c0-.7 0-1 .1-1.3.1 0 .2 0 .2-.3.1-.1.1-.2.2-.3-.4-.8-.3-1.6-.3-2.5.1-.2.3-.4.5-.6v-.7c.1.4.1.8.2 1.2.1.7.2 1.3.3 2v.3c-.1 0-.2.1-.2.1.1.1.2.1.3.1v1.3c0 .7 0 1.3.1 2 .1.5.1 1 .2 1.5-.2 0-.2.3-.1.4.1.1.1.1.1.2v3.7h-.1c0 .2 0 .3.1.4v.5c0 .2-.1.5-.1.7-.1.3-.2.6-.2 1.1.1.5.2 1.1 0 1.4-.3.7-.3 1.2-.2 1.8v.4c0 .6 0 1.2-.1 1.8-.1.6-.2 1.2-.2 1.8-.2.5-.2 1-.2 1.4v.4c0 .2 0 .4-.1.6l-.2.5c0 .3-.1.6-.2 1 0 .7-.2 1.3-.3 2v.2c0 .1-.1.3-.1.5 0 .3-.1.6-.2 1V49.4c0 .1 0 .2-.1.4s-.2.5-.2.8l-.1.2-.1.8v.1c0 .1 0 .2-.1.4s-.1.4-.1.6l-.2.4c-.1.1-.1.3-.1.5v.1l.1.1c0 .1 0 .1.1.2l-.2-.1v.9l-.2.5v.1c.1.4 0 .6-.1.8l-.1.8c0 .3 0 .6-.1.9 0 .4 0 .7-.1.9-.1.2-.1.4-.1.5v.8c0 .3 0 .6-.1.8v1.3c0 .7 0 1.3-.1 2 0 .1 0 .3-.1.5v1.2c-.2.1-.1.3-.1.4 0 .2 0 .3.1.5V70c0 .6 0 1.2-.1 1.8 0 .4 0 .7-.1 1.1 0 .6-.1 1.2-.1 1.9v2.3l-.1.2.1.2c0 .1.1.2 0 .4l-.1.2v.1c-.1.1-.2.3-.2.6v.3l.3.1v1.6l.4-.4v1.5c-.2.1-.6.1-.7.5h1.2c.6-1.6 1.8-3 2.2-4.8.1.1.2.1.3.2.4-.2.3-.8.8-1-.1-.3-.6 0-.5-.4-.3 0-.3-.2-.5-.3V76c.2-.2.5-.3.7-.4-.2-.1-.3-.2-.4-.3.2-.1.4-.1.6-.1.1-.1.1-.2.1-.3-.1-.3-.3-.1-.7-.3h.1c.4 0 .7-.2 1-.7.1.3.1.6.1.9-.1 0-.1.1-.1.2 0 .2-.1.3-.2.5.4.4.3.9.3 1.4.3 0 .2-.3.2-.4V76c0-.2.1-.3.2-.5-.1 0-.2-.1-.2-.1l.3-1.2c.1 0 .1-.1.1-.2h-.1c.1-.6.1-1.2.2-1.8h.1v-.4h.1c0-.2-.2-.5.2-.5v-1l.1.1c0-.5.3-.9.4-1.4v-.5c-.1.1-.1.2-.2.3.1-.3.3-.4.5-.5v.1c.3 0 .4-.4.6-.5-.2-.6-.2-1.2-.1-1.8.3-.1.3.2.6.2v-1.2c.1 0 .2-.1.3-.1.2.2.1.4.1.5h.1v.7c.3-.4.3-.9.1-1.6v-1.4c.2-.3.4-.5.7-.4v.1c.1 0 .2 0 .2-.2h-.2v-.8c-.3 0-.4-.1-.5.2-.1.5-.6.9-.5 1.5-.5-.7.3-1.2 0-1.8.4-.2.7-.3 1-.5.1-.8-.1-1.7.2-2.5v1.6l.3.3c-.3-1.3.1-2.1.9-2.8.1-.1 0-.2-.1-.3.1-.2.1-.4 0-.6-.1-.3 0-.5.1-.8 0 .3.1.6.2 1-.1-.6.5-.6.6-1 0 0-.1-.1-.1-.2-.1.1-.3.1-.4.2v-.7c-.1.1-.1.1-.1.2v-.2c.2-.1.3-.2.4-.3h.3c0-.3.3-.3.5-.8 0-.2.1-.6 0-1.1.1 0 .2 0 .3-.1-.2-.1.1-.4-.2-.6 0 .1-.1.2-.1.3 0-.3.2-.6.3-.9 0 0 0-.1.1-.1v.1c.1-.1.2-.2.4-.3h.4c-.2.3-.3.5-.3.6.3.1.3.1.3-.6.2-.4.4-.9.5-1.4v-.2c0-.2.1-.5.1-.7.1 0 .1-.1.1-.1.1-.2.1-.4.2-.6.1 0 .1-.1.1-.2.1.1.2-.1.3-.1.1-.1.2-.1.2-.1.2 0 .2.3.4.2l.3-.3c-.2-.2-.3-.3-.5-.3h.4c0-.2.1-.5.1-.7l.1.1c.2-.2.2-.4 0-.7v.1c.1-.7.1-1.3.3-2 .2-.5.4-.8.8-.9l-.6.6c.2.7-.1 1.1-.2 1.4 0 .4.2.5.4.6v-1.5l1-1c-.1-.1-.1-.2-.2-.3.3-.3.5-.7.6-1.1 0 .1.1.3.1.6V42c0-.1.1-.3.1-.4v.2c.4-.1.5-.4.5-.9.2-.1.4-.3.6-.5.1-.1.1-.2.1-.3.3 0 .5-.2.6-.5 0 0 0 .1.1.1v-.2c.1-.1.1-.2.2-.2 0-.3.1-.5.1-.8.2 0 .2-.3.2-.5.5-.1.4-.7.7-1h.5c0-.1-.1-.2-.2-.2.2-.1.4-.2.6-.2 0-.3 0-.6.2-.8.1-.1.2-.2.1-.3.1-.1.1-.3.1-.4.1-.1.1-.2.1-.4.3-.1.4-.2.5-.5h-.1l.1-.1v.1c.1 0 .2-.1.2-.1l-.1-.1h.7c.1-.1.1-.2.2-.3.1-.1.2-.1.1-.1.1-.1.2-.3.2-.4.1 0 .1-.1.1-.2s.1-.2.1-.3c.1 0 .1-.1.1-.3 0-.1.1-.1.1-.2.2 0 .3.5.8.1-.1-.4 0-.7.1-1 .1 0 .2 0 .2-.1h.3c.1-.1.2-.1.3-.2v.1c.1 0 .2-.1.3-.2.1.1.3.3.5.2.1-.1.3-.2.3-.4-.2-.2-.4-.1-.6-.1 0 0 .1 0 .1-.1 0-.2-.2-.5.2-.5v-.2c.2-.2.4-.4.5-.6H99c.1-.1.2-.2.2-.4h1.2c.1-.1.3-.2.4-.3v.1c.1 0 .2-.1.1-.1v-.2c0-.1.1-.1.1-.2v.1c.3 0 .2-.3.2-.5.2-.4.3-.9.8-1.1h1.1c.5-.3.7-.9 1-1.4l.1.1c.1 0 .1-.1.1-.2h-.1c.2-.2.3-.4.6-.6.1.2.4.1.6.3-.1.3-.6 0-.5.4h.9c.1-.2-.1-.2-.1-.4l.1-.1.1.1c.1 0 .1-.1.1-.2.1 0 .2-.1.3-.1 0-.1 0-.2.2-.2 0-.2 0-.3.1-.4.1 0 .1-.1.1-.2 0 0 0-.1.1-.1.4.1.6 0 .9-.2v.1c.2 0 .4-.1.6-.1l-.1-.1h-.4c0-.2-.1-.3-.2-.3-.2.1-.4.1-.6.2.1-.2.3-.3.4-.4.3.3.8.2 1.1.3l.1.1c.1.1.3.2.4.3.5-.3.8-.6 1-1-.1 0-.2-.1-.2-.2s.1-.1.2-.1v-.4c.1 0 .1-.1.1-.1l.1-.1c.1 0 .2 0 .2-.2l.1-.1c.2 0 .4.1.4-.2-.1 0-.1-.1-.2-.1l.1-.1c.7.1 1.2-.2 1.7-.7.2-.2.2-.3.4-.4-.1.2-.2.3-.3.5-.4.7-.8 1.4-1.3 2.1l-.9 1.5-1.2 1.8c-.4.6-.7 1.2-1.1 1.8l-.9 1.2c-.6.8-1.2 1.6-1.8 2.5-.2.3-.4.6-.7 1-.6.9-1.2 1.8-1.8 2.8-.5.9-1.1 1.8-1.7 2.6-.3.4-.6.9-.9 1.3-.3.4-.5.7-.7 1.1-.3.4-.5.8-.9 1.3-.2.3-.5.7-.8 1-.5.7-1.1 1.4-1.4 2.1-.5.8-.9 1.6-1.4 2.4l-.6 1c-.2.4-.5.9-.8 1.3-.3.4-.6.9-.8 1.3-.3.5-.6 1.1-.9 1.7-.3.5-.6 1.1-.9 1.6-.3.6-.7 1.1-1 1.7-.5.9-1 1.8-1.5 2.6-.3.4-.6.9-.8 1.3-.1.1-.1.2-.2.4-.4.6-.6 1.2-1.1 1.8-.3.4-.6.9-.9 1.3-.3-.2-.5.2-.7.5zM42.5 25.9h.1s0 .1.1.1v.3c.2 0 .3.1.1.2h.2l.2.3.3-.3c.2 0 .3-.1.4-.2.2.2.5.3.4.6-.1.3-.4.1-.6.2 0 .1-.1.3-.1.4-.5-.1-.3-.8-.9-.9.1-.1 0-.1 0-.3-.3.1-.2-.2-.2-.4h-.6c-.4-.4.1-.5.1-.7-.2 0-.5-.1-.7.1 0 .1.1.2.2.3-.2.1-.5.2-.7 0-.1-.3.2-.4.3-.6.3 0 .7-.2 1 .2.1 0 .1 0 .2.1s.2.2.2.4v.2zm7.4 5.5h.4l.3.3c.2.2.4.4.5.7.3.5.4.7.7.9v.1h.2c.2.1.4.3.7.4h.1s0 .1.1.1c-.1.1-.2.2-.2.3-.1-.2-.2-.4-.2-.5-.2-.1-.2.1-.3.1-.2 0-.3-.2-.4-.4-.4-.2-.5-.7-.6-1-.2-.6-.7-.9-1.3-.9v.4c.3.1.5.2.7.5-.2.1-.2.4-.2.6h.6c.2.2 0 .3-.1.4.1 0 .1.1.2.2-.1.2-.4 0-.5.2.1.1 0 .2.1.3.3.2.4-.1.6-.1.3.3 0 .4-.1.6.2.1.5.2.7.3v-.4h.3c.1.2.1.3 0 .5h-.4v.4c-.2 0-.3.1-.5.2.4.4.8.7 1.4.6.2-.4-.1-.5-.4-.4.1-.3.4-.4.2-.9.6.9.5 2 1.7 2v.4c.2 0 .5.1.6-.4.2.7.4 1.2.6 1.7-.1.3-.4.1-.5.3.2.2.2.3.2.5-.2-.1-.4-.2-.4-.3-.2.2-.5.3-.7.4 0 .4.1.7-.2 1 .1.1.2.1.2.3.4-.2.1-.6.2-.8 0-.1.2-.3.3-.4.1.2.3.3.5.2.1-.1.1-.2.1-.3h.2v-.1c0 .2.1.3.2.2 0-.1 0-.2-.2-.2 0-.1 0-.2.1-.3.1.1.2.1.4.2 0-.9-.7-1.6-.5-2.3.3.1.3.5.4.7.1.4.3.7.5 1-.1 0-.1.1-.2.2.2.2.4.1.6-.2.1.2.2.3.1.2.2.2.2.3.1.3-.4.2-.9.3-1.3.5 0 .4-.6.4-.4.9.3 0 .4-.3.7-.2.1-.1-.1-.3.1-.4.3-.2.4.1.6.3l-.3.3c-.2 0-.2-.2-.4-.2v.7h-.6c.2.2.5.1.7.4.3.3-.1.9.5 1.2-1-.1-.7 1.5-1.8 1.1.4.1.6.5 1 .4-.1-.5.4-.6.7-1v1.7c-.1.1-.3.2-.4.2 0 .4-.1.6 0 .8.2.2.2-.2.5 0 .1.1 0 .3 0 .4.1-.1.2 0 .2.1l-.1.1c-.1 0-.1-.1-.1-.2H56c-.2.2-.1.4-.1.6.1.3.4 0 .6.2.2.1.1.3.1.4-.1-.1-.3-.4-.5-.2s-.2.5 0 .7c.1.1.2.1.4.1v1.2c-.2 0-.3-.1-.5-.2-.2.2-.3.4.1.5.3 0 .3.2.2.4-.2.2-.5.1-.7.1.1.2 0 .4-.2.6.1.3.4.1.6.2 0 .5 0 .5-.3.9-.1 0-.2-.1-.3-.2l-.3.3c0 .4.2.5.5.6-.1-.1 0-.2.1-.2l.1.1c0 .1-.1.1-.2.1 0 .4.2.8-.2 1.1.2.5-.7.3-.5.8.1 0 .3.1.4.1-.2.3 0 .9-.5 1.1-.1-.1-.2-.1-.3-.3 0-.2.3-.5.1-.8-.2-.2-.3-.1-.5.1-.3-.1-.4-.3-.4-.6.2 0 .3 0 .4-.2l-.1-.1 1-1c-.4-.1-.7.2-.8.7-.2.2-.4-.1-.6.2v.3c-.2 0-.2-.3-.4-.3 0-.4.2-.6.4-.6.4 0 .3-.3.4-.5.3 0 .6-.1.9-.1v-.3c-.4-.2-.8 0-1.1-.1-.2.3-.2.5-.5.7h-.8c0-.4-.3-.5-.5-.8.2-.1.3-.2.4-.3 0 .4.1.6.4.7.3-.4.3-.4.2-.9-.3-.2-.4.1-.5.2 0-.2-.1-.3-.2-.4.1 0 .2 0 .3-.1.2-.4 0-.4-.3-.4-.4-.3-.6-.5-1-1.5.3-.3.3-1 1-.9-.1-.3-.3-.4-.5-.6.1-.2-.2-.5.1-.7 0 .2.1.2 0 .2.2.1.4.1.5 0v-.3H52v-.4c-.3.3-.6.4-1 .5 0-.1-.1-.2-.1-.3.1-.1.2-.1.3-.2-.2-.1-.3-.4-.7-.3.1.2 0 .3 0 .4-.2.2-.3.5-.4.8.2 0 .2-.2.4-.3.3.1.6.4 1 .3.1.7-.6.7-.7 1.2.1-.1.2 0 .2.1l-.1.1c-.1 0-.1-.1-.1-.2-.5-.1-.1-.6-.2-.8-.1-.3-.5 0-.5-.4-.4-.1-.5-.3-.5-.7-.1 0-.2-.1-.3-.2h-.1c-.1-.1-.1-.2-.2-.3 0-.1.1-.1.1-.2h.3c.1-.3.2-.5 0-.7 0 0 0-.1.1-.1-.4-.1-.5.2-.7.4l-.6-.6c0-.1.3.1.2.1.4-.2.3-.4.4-.5h.1c.2.1.3.3.5.2.1-.1.1-.3 0-.5h-.2c0-.1 0-.2-.1-.3-.5.1-.6.8-1.3.6-.1-.1.1-.2.2-.4.2 0 .3 0 .5-.1 0-.1 0-.2-.1-.3-.2.2-.2.2-.4.2-.1-.1-.4 0-.4-.2v-.5c.2-.2.4-.1.5-.1v-.3c0-.1-.1-.1-.1-.1s0-.1-.1-.1h-.3c0-.2.1-.4.2-.6.2.1.4.1.4.2.1-.1.5-.3.5-.7-.1-.1-.3-.1-.4 0-.1.1 0 .3-.2.4h-.3c.1-.2.1-.3.1-.5.2-.2.4-.1.5-.1v-.1c.1 0 .2 0 .3-.1.1-.2 0-.3-.1-.4-.2-.3-.5 0-.7-.2-.1-.3-.1-.6 0-.9.3 0 .1.3.3.4.2-.1.3-.2.4-.3-.2.2-.2.3 0 .5.2-.2.2-.3 0-.5 0-.2-.1-.4-.2-.5h.2c-.4-.3-.4-.6-.4-.9.1-.2 0-.4-.1-.5v-.7c.2 0 .3 0 .4-.2-.2-.2-.1-.6-.4-.8V36h.4c-.2-.1-.3-.2-.4-.2v-1.1c-.1-.2-.2-.3-.3-.4l.3-.3c-.3-.1-.3-.5-.7-.3-.2.1-.1.3-.1.4.1 0 .2.1.3.2h-.2c0 .2-.1.5.1.7.1-.1.2-.1.2-.2h.1c.4.5-.6.4-.4.8 0 .4.4.1.5.4v.2c-.1 0-.1.1-.2.2.1 0 .1.1.2.2v1.1c-.1 0-.1-.1-.2-.1 0 .1.1.3.1.4-.1.4-.2.8-.5 1.2-.1-.1-.2-.1-.3-.2-.2.1-.1.3-.1.4.1.3.4 0 .6.2.1.2 0 .3-.1.4-.1-.1-.2-.1-.3-.2-.2.3 0 .5-.2.8.3-.1.4-.1.5-.2.2.3.1.5.1.8-.1.2-.4 0-.5.3.1.3.4.7.2 1.1-.2.3-.5.4-.7.3l.1-.1c-.1 0-.2-.1-.3-.1-.1-.2 0-.4 0-.6V42c-.2 0-.4-.1-.6-.1.1-.1.1-.2.2-.3h-.1c.3-.1.4 0 .5-.2-.2-.1-.3-.1-.6.2-.2 0-.4-.1-.5 0-.2-.2-.3-.4-.4-.7v-.4l-.1.1c-.1-.1-.2-.3-.3-.4.5-.3.8-.7.7-1.2.1 0 .2 0 .3-.1v-.3H45c.2-.4.3-.7.1-1.1h-.4c-.1.3 0 .6-.3.9.2.1.3.3.5.3v.2h.1c-.3.1-.3.5-.5.7l-.4-.4v-.3c.1 0 .3-.1.4-.1-.2-.1-.3-.1-.4-.1 0-.3 0-.7.2-1v-.1c.3-.2.3-.3-.1-.6v.3c-.1-.1-.1-.2-.1-.3.1-.3.2-.5.4-.9 0-.1-.3-.1-.2-.4.2-.2.6-.2.7-.5l-.2-.2.1-.1c0-.1-.1-.1-.2 0-.1-.1-.2-.1-.2-.2V34c.4-.3.9-.3 1.1-.8.1.2.2.2.5.3-.1-.2.1-.3.2-.4 0-.2-.2-.2-.2-.4-.2 0-.4-.1-.5.3-.4-.2-.5.5-.9.4-.3-.1-.2-.2-.2-.4.1-.1.3-.1.4-.2 0 0 .1 0 .1.1l.4-.4c.1-.1.3 0 .4-.2-.1-.1-.2-.3-.4-.3v.4h-.5c-.1-.1-.2-.1-.3 0-.2-.2-.1-.4 0-.6.2.2.3.2.5 0-.2-.1-.3-.2-.4 0 0-.1.1-.2 0-.3 0-.1-.2 0-.4-.1.1-.2.3-.5.4-.8-.1 0-.3-.1-.4-.1 0-.4.4-.3.6-.5v-.1h.4c-.2-.1-.4-.2-.5-.3v.3c-.1 0-.4.1-.6-.1v-1.1c-.2 0-.3-.1-.5-.1.1-.2.4-.5.1-.7.1-.2.3-.4.5-.6l.2.2v-.1c.2 0 .3 0 .4.1 0 .1.1.2.2.3v.2c-.2.1-.3 0-.4-.1-.1 0-.1-.1-.1-.2-.2 0-.5-.1-.5.3.1.3.5.1.7.1.3 0 .3.4.6.2l.2.3.4-.3c.1-.1.2-.1.4 0h.1c.1 0 .2.1.3.2.1.1.2.3.3.5l.3.6-.3.3c.2.2.3.5.6.4.1 0 .1 0 .1-.1.1.1.2.1.3.1.2 0 .3-.1.5-.2.1.1.2.2.4.2.1.1.1.2.2.4s.2.4.3.5v.1h.1l.1.1v.1h.1l.1-.1zm18.8 10.7c.2-.4 0-.9.6-1v-.3c-.1-.2-.3-.1-.4-.2V40c.2-.3.1-.7.1-1h-.1v-.2c.1 0 .1.1.1.2h.4c.1.2.1.4.2.5.3.2.4-.2.6-.2v-1.1l-.3-.3c-.3.2.1.6-.2.9l-.3-.3c-.2-.2.2-.2.2-.4-.1-.1-.1-.3 0-.4.1-.1.4 0 .4-.3h-.6v-.7c.1-.1.3-.2.3-.4.1-.2-.1-.3-.2-.5 0-.1.1-.2.1-.2v-.1c.4.2 1 .2.9.9.1 0 .2.1.3 0l.1.1c-.2 0-.3 0-.4-.1.2.2 0 .2 0 .1v-.1H70v.4c.2.2.6-.1.7.2-.1.2-.7-.2-.7.3.6.3.5.8.5 1.3.2.3.5 0 .7.2 0 .1-.1.2-.1.2-.3-.1-.5.1-.8.2.1.5-.1 1 .3 1.4-.2.2-.1.5-.4.6-.1-.3-.1-.5-.1-.7-.3.1-.4.5-.7.5 0 .3 0 .5-.3.6.2.2.5.3.5.6.1 0 .2.1.2.1l-.1.1c-.1 0-.1-.1-.1-.2-.2 0-.4 0-.7.2-.3.1-.4.4-.5.6v-.8c.1-.1.2-.1.3-.1zm36.5-21.3.2.4.5-.3.3.3c.1.4-.4.8-.3 1.2-.2.2-.7-.1-.8.3-.2-.1-.1-.3-.2-.4-.2 0-.2.3-.4.3.2.5.7.5 1 .5 0 .3 0 .4-.2.5-.4-.4-1-.1-1.3-.7-.3.7-.9.8-1.2 1.3l.2.2c.1.3-.3.5-.3.8-.3 0-.5.1-.9-.1.3-.1.4-.1.6-.2 0 0 .1 0 .1.1.4-.5-.3-.9-.1-1.4-.2 0-.3.1-.4.2-.2.2-.3.2-.3.1-.1 0-.1.1-.2.1 0 .1.1.2.2.3 0 .4-.2.6-.5.6-.4 0-.6.3-.7.4-.2-.2-.5-.4-.7-.5 0-.3.2-.3.3-.5.2.2.4.2.7.2.2-.2.4-.4.4-.7h.8c-.1-.1-.2-.3-.1-.6.2-.1.4-.1.4.2h.6c.3-.2.6-.4.7-.9.6-.2 1.1-.8 1.8-.5.1-.4-.2-.4-.2-.6-.4.1-.7.3-1 .5l-.2-.2c-.2 0-.2.2-.2.4-.2.2-.8 0-.9.6.1-.1.2 0 .2.1l-.1.1c-.1 0-.1-.1-.1-.2-.3-.1-.3-.2-.3-.3l.4-.3c.3-.2.6-.5.8-.8.1-.1.1-.2.2-.2.1.1.2.1.3.2.3 0 .4-.2.6-.3-.1-.1-.1-.2-.2-.2h.5zm3.3-.9c.2.1.4.2.6-.1l.1-.1c.2.1.5.2.4.6-.2.1-.2-.2-.3-.2-.4 0-.6.4-1 .2-.2-.2-.3-.5-.4-.7l.1-.1c.1.1.2.1.4.2 0 .1.1.1.1.2zm3.4-1c0 .1 0 .1 0 0zm-.5.4c.1.1.1.1 0 .2-.3.2-.5.6-1 .4-.1-.1-.1-.3-.2-.4-.1.1-.2.1-.3.2-.1-.1-.1-.2-.1-.3.1-.3.3-.3.5-.4h.6c.3 0 .4.1.5.3zm-2.4 2.1c-.1.1-.2.3-.3.4-.3.1-.4-.1-.5-.2-.1 0-.2.1-.3.2-.4.1-.5-.2-.7-.4-.2 0-.2.1-.3.2-.2-.2-.3-.5-.4-.7.1-.3.2-.4.5-.5-.1-.2.2-.2.5-.5.2.2.5.4.6.7-.1.3-.3.2-.5.2v.4c.2.2.4.1.6.1.2-.2.2-.6.5-.7.3 0 .5 0 .8.1 0 .2-.2.3-.3.4 0-.1-.1-.1-.2-.2-.3.3-.1.4 0 .5zm-9.8 5.4c-.1.1-.3 0-.4.1-.2.2 0 .5-.2.7l-.1-.1c0 .2-.1.3-.2.2l-.1-.1c0-.1.1-.1.2-.1v-.1c-.2-.2-.2-.4-.1-.7.1.3.1.5.2.6.3-.8.7-1 .8-1.4-.1 0-.1-.1-.2-.2.4-.2.7.1 1 .2.2-.1.3-.1.4-.2.2.1.1.2.1.3 0 .1-.1.2-.2.2-.5.1-.8.4-1.2.6zm1 .3c0 .1-.1.1-.2.1v.4c-.4.2-.5-.2-.7-.3.2-.4.5 0 .7-.3l.2.1zm-2-3.9.2-.2c.1 0 .1-.1.2-.1.1.5.1.5-.3 1 0 .2 0 .2-.1.2l-.1-.1c0-.1.1-.1.2-.1 0-.3-.2-.1-.4-.3-.1-.1-.1-.1 0-.2.1.1.2-.1.3-.2zm1.5 2.2c-.4.2-.5-.4-.9-.3.1-.2.2-.4.4-.4.4.1.3.3.3.4 0 .1.3.1.2.3zm-.9-.9c0 .1 0 .2-.1.2l-.1-.1c0-.1.1-.1.2-.1 0-.1 0-.3.1-.4.1-.1.3-.1.4 0-.1.2-.3.4-.5.4zm-.2 1.1c0-.1.1-.1.2 0-.1.1-.2.1-.2 0zm.2.7c-.1.3-.3 0-.4.1.1-.2.2-.2.4-.1zm-.6-1.1c-.1 0-.1-.1 0-.2.1 0 .1.1 0 .2zm4.1-3.3c-.2.3-.1.6-.2.9-.1.3-.4 0-.6.2-.2.1-.3.3-.4.4-.3-.2-.1-.4-.2-.6.3-.5.8-.7 1.4-.9zm-2.5.8c.1.2.1.5.4.5 0-.1.1-.1.2-.2.2.2.4.3.3.7-.6.2-1.2 0-1.6-.5.1-.2.2-.4.3-.7h.1c.1.1.2.2.3.2zM96.4 24c0 .1.1.2.1.2.5.1.8.1 1 0v.3c-.1.2-.3.2-.4.1-.7-.4-1.2-.1-1.7.4-.2.2-.3.4-.3.4h-.6c-.1-.1 0-.1 0-.2.2-.4.5-.7.8-1 .1 0 .2.1.3.2.3 0 .4-.2.6-.5 0 0 .1.1.2.1zm.7 1.4c-.1.1-.1.1-.2 0 0-.1.1-.1.2 0zm-6.2 2.3c.1-.1.1-.1 0 0 .4 0 .5-.3.7-.3.1-.8.6-1.2 1.1-1.7.4 0 .5.4.8.5.3-.1.6-.3.9-.5.1.2.2.3.3.4l-.3.3c-1.7 0-1.7 0-2.8 1v.3c-.4.1-.6.6-1.2.3.1-.1.2-.3.3-.4l.2.1zm-1.4 1.4c0-.5.3-.9.6-1.2.1.6.1.6-.6 1.2 0 .4-.1.6-.5.7v.3c-.3.2-.6.1-.9.1-.2-.1-.1-.2-.1-.3.3-.3.5-.1.6.1.2 0 .2-.2.4-.2-.1-.4.1-.6.5-.7zm-1.6 1.2c-.4.4-.6.8-.9 1.2 0-.6 0-1.2.9-1.2zm-1.3 1.6c-.2 0-.3.1-.5.2-.1-.3.1-.3.5-.2zm-1.7 1.3c-.3-.7 0-1.2.5-1.6.6.9-.5 1.1-.5 1.6zm-1.5 1.7c-.1.3-.6.4-.5.9-.3-.6.1-.8.2-1.2l.3.3zm-2 3.9c0-.3-.2-.6.2-.9 0-.5.2-.6.7-.7 0-.1 0-.2.2-.2 0-.1 0-.2.1-.2l.1.1c0 .1-.1.1-.2.1 0 .1-.1.2-.2.2 0 .5-.2.6-.7.7v.9c-.1.1-.2.1-.2 0zm.1.5c0 .1-.1.1-.2 0 .1-.2.2-.2.2 0zm-.5.2c.3.5.1 1 .2 1.4.2.1.3.4.6.3 0-.1.1-.2.1-.2-.2-.5-.5-1.1 0-1.6-.6-.6 0-1.1.4-1.5.2-.2.4.4.7.2s0-.4-.2-.6c.4-.4.2-1 .3-1.6.6 0 .5-.7 1-.8v-.2c-.1-.1-.3 0-.5-.2.3-.4.4-1.1 1.2-1.3-.2.5-.4.8-.5 1.2-.1 0-.1 0-.1.2.1 0 .2 0 .2-.1.1.1.2.3.5.2 0 0 0-.2.1-.4-.2-.2-.1-.5-.1-.9.4-.3.4-.8.8-1.1h.7c.4-.3.5-1 1-1.2.1 0 .2.1.3.2v-.6c.2-.1.5-.2.7-.3.2 0 .4.3.7.2.1-.2-.1-.2-.2-.4.2-.2.3-.4.6-.4s0-.5.4-.5v-.2c-.1.1-.2 0-.2-.1l.1-.1c.1 0 .1.1.1.2h.4c.3-.3.1-.6.2-.9.3-.2.5 0 .8-.1.2-.2.3-.5.6-.5-.1-.6.6-.7.8-1.1.6.2 1.2.4 1.7.5.5-.4.6-.9.7-1.4.2-.2.4-.1.6-.1 0-.2.1-.3.2-.5.3.1.4.4.5.7.3-.2.8.2 1.1-.3-.1.1-.2 0-.2-.1l.1-.1c.1 0 .1.1.1.2.1 0 .3-.1.4.1.1.3-.2.4-.4.6-.2.1-.3-.3-.7-.2-.1.1-.2.3-.3.5-.3-.1-.2-.3-.3-.5-.3.1-.6.4-.8.7-.3.3-.6.5-.8.8-.1 0-.2-.1-.2-.1-.1.3 0 .5-.1.7-.2.2-.3 0-.5-.2-.1.7-.9.6-1.1 1 .1.4.4.1.6.3.1-.2.1-.4.2-.5.2-.1.4 0 .6 0 .1.1.1.2.1.3.1.1 0 .3-.1.4-.1.1-.1.3-.2.5-.2-.2-.3-.4-.4-.6-.4.3-.2.5-.2.7.1.1.3.1.4.2.1-.2.1-.3.3-.3.4.2.1.5.2.7.2.1.3.2.5.3.1-.4-.1-.8.1-1.2.5-.1.5.5.9.5 0-.2 0-.4.1-.7h.1c-.1 0-.1-.1-.1-.2H95l-.6-.6c.4-.2.9-.4.7-1 0-.2.3-.3.4-.5.1.4.3.8.8.7-.1-.2 0-.4.2-.6-.1-.1-.3-.2-.2-.5.1-.2.7.2.8-.3.3.4 0 1 .4 1.2.1.2-.2.3-.2.5-.1.2.1.3.2.4-.1.1-.2.5-.6.3-.2-.2-.1-.5-.1-.7-.1 0-.2 0-.2-.2h-.2c-.1.1-.1.1-.1.2-.1-.1-.3-.1-.5-.1v.5h-.5c.1.3.5.4.5.7.1-.1.2 0 .2.1.2-.1.3-.2.4-.3V29c.1-.1.1 0 .1.1.1-.1.1-.2.1-.3.1.4.3.7.6.9-.3.2-.4.1-.6-.1-.3.2-.6.5-.9.8-.3.3-.5.6-1 .6 0 .2.3.2.2.6-.2.2-.4.5-.7.8-.1.2.2.3.2.4-.3.3-.6 0-1 .2 0-.1.1-.1.1-.1h-.3v.3c.1.3.4.1.5.3v.5c-.3 0-.5.1-.7 0-.1-.1-.3-.1-.5-.1.1.2-.1.2-.2.4.4.2 1-.2 1.2.5.1.2-.2.3-.3.5-.6.1-1.2.1-1.7-.2l-.1.1.6.6.2-.2c.2-.1.2.3.4.2.1 0 .3-.1.4.1-.3.1-.6.3-.8.6-.5-.5-1.1-.1-1.6-.3-.1-.2-.1-.4.2-.4.3 0 .3-.2.2-.4-.2-.2-.4-.1-.5.1-.5.1-.2-.9-.9-.6 0 .6.5 1 .5 1.6h1.2c-.2.6.4.9.2 1.4l-.7-.7c-.3.6-.8.3-1.1.4-.2.4.1.5.3.7.3 0 .4-.3.7-.5.2.3.1.6.1.9l-.3.3c-.4-.4-1.4-.1-1.1-1.1-.4-.2-.8-.4-1.2-.4-.2-.4 0-.7.4-.9.3 0 .4.2.6.4.3.2.7-.1 1 .3.2-.1.1-.2.1-.3-.2-.2-.4-.1-.6-.1-.1-.3-.4-.6-.4-.9-.4-.1-.5.1-.6.2-.1-.1-.1-.2-.1-.3.1-.3.6-.4.5-.9-.3.1-.6.2-.9.4 0-.3-.3-.6.2-.9 0-.1 0-.1-.1-.2.2 0 .4 0 .5-.1-.1-.1-.1-.3 0-.4h.1s0-.1-.1-.1c.1-.2.3-.5.1-.8h-.4v.2c-.1-.1-.2-.1-.3-.1 0-.2.2-.1.4-.2l-.3-.6h-.1c-.1.2-.4.5-.3.7.2.6-.7 1.1-.1 1.7-.1.2-.5.3-.5.6h.4c.2.1.1.4.1.6-.1.2-.4 0-.4.3-.1.4.5.1.5.5s-.4.1-.5.4c-.2.4.4.7.2 1.2l-.2.2c0 .1 0 .1-.1.2.1.2.2.5.5.5v.6c.1-.2.2-.3.4-.5.2.2.1.4.1.6l.5.5c-.3 0-.4.1-.5 0-.1.2.1.2.2.4-.1.3-.2.7-.2 1.2 0 .1.1.2.2.2-.2.2-.3.2-.5.1-.2-.2.1-.5-.2-.7-.4.3-1 .4-1.4.3l-.3.3c0 .2.2.4.4.4.3 0 .1-.3.3-.4.3 0 .2.2.2.3.2.2.2-.1.3-.1l.6.3c-.2.1-.4.3-.8.6h-.7c-.3.3-.1.4.1.6l-.2.2v1.4c-.1 0-.2-.1-.3-.1.2.2.4.4.6.4-.4 0-.8.3-1.2.4-.3-.4-.6-.8-.4-1.4-.2.2-.3.1-.3.1 0-.4-.1-.8-.3-1.2.2-.2.4-.1.5-.1v-.1c.4-.1.5-.4.4-.8l-.1-.1-.3.3v.1c-.1-.2-.4 0-.6-.1-.2-.3.1-.7-.4-.8.1-.1.2-.1.3-.2v.3c.2.2.3.5.7.3-.2-.2-.4-.4-.5-.6.1-.1.2-.1.3-.2 0-.2.1-.3.2-.5H84c0-.3-.1-.5-.1-.8.1.1.2.2.5 0 .1-.4-.4-.6-.1-1.1.3-.1.8.2 1.1-.1.1-.4-.2-.5-.5-.8l-.3.6c-.3-.1 0-.5-.4-.4 0-.1.1-.2.1-.3 0-.1.3.2.5 0 .2.1.4 0 .6-.1l-.3-.3c-.1.1-.2.1-.4.2-.1-.1-.1-.2-.1-.3.1-.1.1-.4-.2-.4-.4.5-.6 1.1-.8 1.6-.4.2-.8-.1-1.3.2.5 0 .9.2 1.3.4 0 .3 0 .6-.3.8.5.5.3 1.1.3 1.8-.5-.2-.9-.4-1.3-.6-.3.2-.1.5-.2.7-.1.2-.7-.1-.5.4.1.2.3.1.5.2V44c.2.1.3.4.4.6v-1.5c.3-.2.5-.4.7-.6.3 0 .5.2.5.3 0 .5.4.9.3 1.5-.5.1-.3-.6-.8-.6-.4.4 0 .7.1 1 .2-.1.5 0 .6.2.2.2.3.5.4.7-.1.3-.5.2-.6.5 0-.1-.1-.3-.1-.4-.1-.2-.3-.1-.4-.1 0 .3.4.5.2.8.1.2.5.1.6.4.1-.2.3-.4.4-.6.4.3.6.5.4.9-.3.2-.4 0-.6-.2-.2.2-.5.4-.6.7h.8c.1.2.1.3.2.5.3-.1 0-.4.3-.5.2.2.1.4.1.6-.1.4-.5 0-.7.3 0 .2.2.1.4.2.1.3.1.6 0 1-.2-.6-.9-.9-.6-1.6-.2-.2-.4-.1-.5-.1v.4c-.5.3-.8-.1-1.1-.4-.1 0-.2.1-.3.2-.4-.7-.4-.7-1.1-.6v.2c0 .1.1.2.2.3-.1.1-.2.1-.3.1 0-.1-.1-.1-.1-.1 0-.5-.5-.9-.3-1.5 0-.1.1-.1.2-.1 0-.1.1-.2 0-.3l.1-.1c0 .2-.1.3-.1.4.3-.2.3 0 .1 0h-.1c-.1.3-.1.4.1.5.2-.2.3-.4.5-.5.3 0 .4.3.7.5v-1.4c-.1-.2-.3-.1-.4-.1-.1.2.2.3.2.4-.1.3-.5-.1-.5.4-.4-.3-.2-.5-.2-.7.1-.2.3-.1.4-.1.1-.2 0-.4-.2-.6l.4-.4c-.1-.2-.2-.3-.4-.4-.1.1-.1.3-.2.4-.4 0 0-.4-.3-.4-.2 0-.2.2.1.8-.2.2-.4.4-.7.3v-.6c-.3.1-.5.4-.8 0 .2-.4.4-.8 1-.8.3 0 .6-.2.4-.7-.6.1-1 .6-1.6.5-.1.3-.1.6-.1.9-.3.1-.4-.2-.6-.3.3-.8.9-1.2 1.6-1.4.1-.1 0-.3.2-.4.2-.1.3.1.5.2.2-.2-.1-.6.3-.8-.6-.5.1-1.2-.5-1.7l.1-.1h.2v-.5zm15.5-8.3c.1-.1.1-.2.2-.3h.4l-.6.3zm-.7-2.5c.1-.1.2 0 .2 0l-.1.1c-.1.1-.1 0-.1-.1zm-7.3 10.7c0-.1-.1-.3-.1-.4-.2-.2-.4 0-.6-.2-.1-.5.5-.5.5-.9-.2.1-.2 0-.2-.1l.1-.1c.1 0 .1.1.1.2.1.7.9.7 1.1 1.2-.2.3-.5.4-.9.3zm-.3-5.8c.1-.1.1 0 .2.1-.1.1-.1.2-.2.2v-.3zM85 47c-.3-.3 0-.4.2-.7.3 0 .6-.1.9.1-.5 0-.6.6-1.1.6zm-1 3c0-.1.1-.1.2 0 0 .1-.1.1-.2 0zm-4.5 10.4c-.1-.2 0-.2.1-.2 0-.1.1-.3.1-.5h.3c.1.2.1.3 0 .5h-.4c.1.1 0 .2-.1.2zm-3.4 9.1c-.2-.4.2-.5.3-.7.2.2.5.3.4.6-.2.3-.5.2-.7.1zm.1 2.4h-.3c-.1-.3-.1-.5 0-.7h.3c.1.3.1.5 0 .7zm0 .8c-.1-.1-.1-.2 0-.2s.1.1 0 .2zm-.4-2.9c.3.1.5.2.7.3 0 .3 0 .4-.2.4-.2-.1-.5-.2-.5-.7zm-1.1 3.4c.1 0 .1.1 0 .2-.1-.1-.1-.2 0-.2zm0-1.2c.2.2.2.4.1.7-.3-.3-.1-.5-.1-.7zm.2 4c0 .3-.3.3-.4.6-.1-.4-.1-.7 0-1.1.1.2.3.3.4.5zm.5-3.9c.2.3.2.5 0 .8-.1-.2-.1-.5 0-.8zm.1-1.6c-.1 0-.2-.1-.2-.1-.1 0-.2-.1-.2-.2v-.6h.4c.1.3.1.6 0 .9zm-.1-6.1c.3-.2.5-.3.8-.4v1.2h-.4c-.2-.2.2-.7-.4-.8zm2.8-4.2c-.3.3-.5.5-.7.8-.4-.4.3-.7.1-1-.2-.3-.4-.6-.2-1 .3.5.3.5.5 1 .2-.3 0-.6.1-.9.2 0 .3.2.4.3v.8c.2 0 .3 0 .6.2v.6c-.2.3-.7.3-.8.8-.1-.2-.4-.3-.3-.6.1-.3.4-.1.6-.2l.1-.1c-.2-.2-.2-.4-.4-.7zm-.3 6.8c-.1.3-.3 0-.4.1.1-.2.3-.2.4-.1zm-.1-1.6c.2.3.2.5 0 .8-.1-.3-.1-.5 0-.8zm-.3-.3c.1-.1.1-.1.2 0 0 .1-.1.1-.2 0zm.2-.7c-.2.1-.3.1-.4.1-.1-.3-.1-.5.4-.5v.4zm-.7-5.5c.5-.5.7-.9.9-1.3.3.3.2.7.3 1.1-.4.2-.6.1-1.2.2zm0 9c-.2.2 0 .5-.2.7h-.3c-.3-.3 0-.4.1-.6-.1-.3-.6-.6-.2-1 .5-.2.3.7.9.5-.1.4-.3.4-.3.4zm-.9-9.5c.5-.6 1-.9 1.1-1.5-.2-.6-.8-1.3 0-1.9v1.9c.6.5-.3.8.1 1.4-.4.1-.7 0-1.2.1zm.6 1c-.2.1-.3.1-.3-.1-.1-.3.1-.4.3-.6.1.3.1.5 0 .7zm1.2-2.3c-.2-.4-.4-.8.1-1.1-.1 0-.1-.1-.2-.2 0-.1.1-.2.2-.3 0-.4-.4-.5-.4-.7-.1-.3 0-.3.1-.5-.1-.6-.7-1.1-.4-1.8.6.6.4 1.5 1.2 1.9-.6.8-.2 1.8-.6 2.7zm-1 2.9c.2.4-.2.5-.4.8-.1.6.2 1.3-.3 1.9.2.1.4.1.5.2-.2.3-.2.7-.7.9 0-.1 0-.2-.1-.4.3-.6-.2-1.4.4-2.1-.2-.1-.3-.1-.5-.2.4-.4.5-1 1.1-1.1zm-.9 5.4c.6.6.6.6.7 1.2-.2-.4-.3-.6-.4-.7-.7.2-.3.9-.6 1.3-.2-.7-.1-1.2.3-1.8zm-.3 2c.2.2.3.5.4.8-.2.1-.3.2-.4.2v-1zm1.6-1.2c.2.2.2.3.1.4-.3-.1-.1-.3-.1-.4zm.7-2.4c-.2-.3-.5 0-.7-.2v-2.2c.2.3.3.5.4.7-.2.1-.2.4-.2.7.2.2.5.5.7.8 0 .7-.1.7-.2.7-.1-.1.1-.3 0-.5zm.3-.5c-.1-.6-.2-.9-.1-1.3.3-.1.5-.5.9-.8.1.3.1.6 0 .9-.2.1-.4.1-.6.1-.2.2-.1.4-.1.6l.4.4c.1.3 0 .6 0 .9-.3-.2-.1-.5-.2-.7-.1-.1-.2-.1-.3-.1zm.6 2c.1-.1.2-.2.3-.2-.1.1-.2.2-.3.4v-.2zm.3-5.7c0-.1.1-.1.2 0-.1.1-.2.1-.2 0zm.8 0c-.2-.3-.2-.4-.3-.6 0 0 .1-.1.2-.1-.1-.1-.2-.2-.2-.3.1-.2.2-.2.4-.1 0 .3 0 .6-.1 1.1zm.1-1.9c-.9 1-.9 1-1 1.6-.3-.2.1-.6-.4-.8.6-.6 1.1-1.2 1.3-2.2.2.6.3 1 .4 1.5.1 0 .1 0 .2.1l-.1.1c-.1 0-.1-.1-.1-.2-.2.1-.2-.1-.3-.1zm-1.7.2c.1-.8.5-1.2 1.2-1.5-.3.6-.4 1.2-1.2 1.5zm1.8-1.8c-.3-.2-.4.1-.5.2-.1-.1-.1-.2-.1-.3.2-.1.6-.2.7-.5-.1-.1-.2-.3-.5-.3-.3.5-.7.9-1.1 1.2-.3-.1-.3-.2-.3-.4.1-.2.3-.1.4-.2.2-.2.1-.4.1-.6.4-.1.5-.3.6-.6.1-.1.3-.1.5-.1.4-.3-.3-.5-.1-.8.3-.4.4.2.7.1 0-.6 0-.6-.5-1-.3 0-.1.3-.3.5h-.4c0 .2 0 .4.1.6-.3.2-.6.2-1.2-.2v-1c.3-.1.6-.1 1 0-.3.2-.7.2-.8.6h.9c-.1-.5.3-.8.2-1.2-.4-.1-.6.3-.9.2-.4-.5.3-.6.3-.9-.1-.1-.3-.1-.4 0-.3.3-.4.9-1.2.9 0-.1 0-.2.1-.3l.2-.1v-.2l.1-.1c0-.6.1-1.2-.1-2.1.1-.3.6-.6.9-1-.1-.5-.6-.9-.5-1.5 0-.2 0-.3.2-.3 0 .1 0 .2.1.3.2.3.5.7.4 1.1.3 0 .2-.2.2-.3.2-.3.6.1.9-.2 0-.1-.1-.2-.2-.3h.4c.2.3.1.6.1.9-.3.4-.5-.3-.8-.1-.3.3.6.4 0 .7 0-.1-.1-.1-.2-.2-.2.1-.1.3-.1.4.1.2.4 0 .5.1.3-.1.1-.4.3-.5h.2c.3.2.1.4-.1.6.2.1.4.2.5.3v1.3c-.3-.4-.6-.7-1.1-.6 0-.2-.1-.4-.1-.7-.4.1-.7-.2-1.1-.3v1.7c.1.2.2.1.3.1.3-.3 0-.6.2-.9.4 0 .3.6.6.7.2.1.3-.1.4-.2l1.2 1.2c-.6 0-.8-.3-1.2-.1-.1.1 0 .3 0 .4h.6c.2.3.5.6.8.9.1.2-.1.5.2.8h-.7c.1.3-.3.5-.3.9.4.1.4-.4.8-.3.2.1-.2.3-.2.5.1 0 .3.1.4.1-.1.4-.5.4-.8.6.5.5.1 1.2.8 1.8-.5-.1-.6-.2-1.1-1.3zm-1.5-1.5c.1-.1.1-.1.2 0 0 .1-.1.1-.2 0zm1-7.3c-.8-.3-.5-.3-.3-.5.2.1.3.1.3.2v.3zm-.5-.7-.4.2-.3-.3.3-.3v-1.1h.4c.2.4-.1.6-.2.9 0 .2.3.2.2.6zm1.3-1c-.2.2-.4.1-.6.1-.1-.1-.1-.2 0-.4h.4c0 .1.2.1.2.3zm.4 3.8c-.2-.1.1-.5-.4-.5.4-.4.6-.6.9-.3 0 .2-.2.1-.4.2-.1.1.2.4-.1.6zm.3 7c-.3-.3-.1-.5-.1-.7.3.2.3.4.1.7zm.5-2.8c0-.4.3 0 .4-.3-.1 0-.1-.1-.2-.2.1-.2.4 0 .5-.2.2-.3-.2-.4-.2-.6H82c-.1.4-.4.2-.7.1-.2-.2-.2-.4 0-.5.3 0 .4.2.6.4.1-.5-.3-.7-.5-1 .5-.2.7.2 1 .4.1 0 .2.1.2.2v1.7c-.3.1-.6.1-.9 0zm1.2-2.7-.1-.1c0-.1.1-.1.2-.1.1-.3 0-.6-.3-.7-.3.2-.5.1-.6-.3-.4.1-.1.5-.2.7h.4c.1.2-.1.4.2.7h-1.2c0 .1 0 .3-.1.4l-.1.1c0-.2-.1-.4-.1-.6.1.1.2.1.3.1.1-.3.2-.4.4-.4.1 0 .2-.1.2-.2-.3-.1-.4-.3-.6-.5 0 .6 0 .6-.3.5 0-.1.1-.2.3-.5l-.1-.1.9-.9c.2.3.7 0 1.1.1l.3.3c.1.3-.2.4-.3.6.1.2.2.3.3.4-.2.1-.3.3-.5.3.1.1 0 .2-.1.2zm-2.3-10.6v1.2c-.1.1-.4.2-.5.3v.7h-.4c-.1-.8.1-1.6.9-2.2zm0 1.8c0-.1.1-.1.2 0 0 .1-.1.1-.2 0zm-7.8-17.8h.3c.2.2 0 .4.1.6-.5.1.1-.7-.4-.6zm-.2 5.5c-.1-.1-.1-.2 0-.2s.1.1 0 .2zM72 26c-.1-.3.5-.4.2-.7.3 0 .5-.1.7 0v.1c-.4 0-.4.7-.9.6 0 .1-.1.1-.1.2l-.1-.1c0-.1.1-.1.2-.1zm1.4-4.5c.2-.1.3-.1.5 0-.2.2-.3.2-.5 0zm.1.6c-.1 0-.1-.1 0-.2.1.1.1.1 0 .2zm-.8 1.5c.2-.2.3-.4.6-.2.1.2-.1.2-.2.3-.1.1-.2.1-.4-.1 0 .1 0 .1 0 0zm-1.2 2.8.3.3c.4.1.5-.5.8-.5.2.1.3.1.2.4-.3.1-.6.2-.9.4-.1.4.9.1.6.8-.3.1-.7-.5-1.1-.1v.2c.1.3.4.1.6.2.1.1.1.2 0 .2-.5 0-.4.5-.6.7.4.2.5 0 .5-.3.3-.2.5-.2.8 0-.4.5-1.1.9-1.3 1.7.3-.1.5 0 .6-.4.6.6-.5.4-.3.8 0 .3.5.1.5.4 0 .3-.2.3-.4.3-.2.1 0 .4-.1.6s-.3.1-.4.1c0 .6.4 1.1.5 1.6-.7 0-.3-.7-.6-.9h-.4c-.1.2.2.3.2.4-.1.2-.3.1-.5.1v.6h1.2c-.2.4-.5.1-.7.3-.1.3.1.4.2.6-.1.2-.2.1-.3.1-.2 0-.2-.2-.4-.2 0-.2.1-.3.2-.3 0-.2-.2-.2-.2-.4-.3.2-.3.5 0 .8-.1.2-.3.3-.4.5V35c.1-.4.1-.8.1-1.2v-.4c.1-.1.3 0 .4 0 .1-.2-.1-.5.3-.5 0-.4-.4-.2-.5-.4.3-.1.5-.5.9-.4v-.3c-.1-.2-.3-.1-.4-.2v-.4c.2-.1.3 0 .6-.1V30.2c-.3-.3-.4-.5-.5-.7.1 0 .3-.1.4-.1-.1-.2-.1-.3-.1-.5l.1-.1v-1.5c.2 0 .4-.1.3-.4h-.3c0-.1 0-.2.1-.3v-.2zm0 8.8c.1-.1.1-.1.2 0 0 .1-.1.1-.2 0zm.3-2.7c0-.1.1-.1.2 0-.1.2-.2.2-.2 0zM70.9 50c.1 0 .1.1.1.2 0-.1 0-.1-.1-.2zm.3-14c-.2.1-.3 0-.4-.1 0-.3.2-.5.4-.6.1.3.1.5 0 .7zm-.4-5.3c0-.1.1-.2.1-.4.1.2.2.4.3.7h-.3c-.1-.1-.1-.1-.1-.2v-.1zm.1 7.2c-.2-.2-.2-.4 0-.7.2.2.2.4 0 .7zM68.8 60c0-.2.1-.5.1-.7.2.4.6.6.3 1.1-.2-.1-.3-.2-.4-.4.1.1 0 .1 0 0zm-.4-16.3c.1-.1.1-.2.2-.4.4-.2 1 .2 1.3-.3.2.3.2.6.1.9-.4 0-.1-.4-.4-.4-.9.3-.9.3-.9.9.4.1.5-.4.7-.4.3.4-.1.5-.2.7h-.8v-.1c0-.3.1-.6 0-.9zm1.3-2c.2-.3.3-.4.4-.3 0 .3-.2.4-.4.3zM68.4 54c.3 0 .4.4.7.1.1-.1-.2-.1-.1-.3.3-.2.4.2.6.3-.2.3-.7.4-.4 1 0 0 .1 0 .3.1 0 .2-.3.2-.3.4h-.5c-.2-.3-.2-.6.1-.8-.1-.2-.5-.3-.4-.8zm.8-5.6c-.1 0-.1-.1 0 0 .1 0 0 .1-.1.1-.1.4-.5.2-.6.5l-.6-.6c.5-.4.7.3 1.3 0zm-.2-1.2c.1-.2.1-.2.1-.1l-.1.1zm1.3.6c-.4.2-.1.7-.5.7-.4-.1 0-.5-.2-.6-.1-.3-.4 0-.4-.3.4-.4.7.3 1.1.2zm-.6-1c.1 0 .1.1 0 .2-.1 0-.1-.1 0-.2zm-.1 13.3c.1-.2.3-.2.5 0-.2.2-.3.2-.5 0zm.4.5c0 .1 0 .3-.2.4 0-.2-.1-.3-.2-.5.2-.1.4-.1.4.1zm-.4-.9v-.8c.2.3.3.5.5.8h-.5zm-.1-3.5c0-.2.2-.1.4-.2-.1.2-.3.2-.4.2zm.2-6.8c-.1.2-.2 0-.2 0-.3-.2-.3.1-.4.1-.1 0-.2 0-.3.1-.1.2-.1.5.2.7-.1.3-.4.1-.7.1.2-.5.3-.9.6-1.4.3 0 .6-.1.8.1v.3zm0 .6c-.1 0-.2-.1-.6-.3.7 0 .7 0 .6.3zm-.4 2.2v.5c-.5 0-.7-.1-.7-.5.2-.1.5-.1.7 0zm0 .7c.3.1.4.2.2.4-.2-.1-.2-.2-.2-.4zm.1-1.2c0-.4-.4-.5-.3-.9.3-.2.3.2.5.1 0-.2 0-.3.1-.4l.1-.1c0 .2.1.4.1.6-.1-.1-.2-.1-.3-.1-.1.2 0 .4-.2.8zm.4 3.1c-.1.1-.1.1-.2 0 0-.1.1-.1.2 0zm.1 2.1c.2.1.2.3.1.4-.3-.1-.1-.3-.1-.4zm-1.6-7.6c-.1.2-.2.1-.3.1.1-.3.2-.2.3-.1zm-.3 1.6c.3.1.1.3.1.4-.2-.1-.2-.3-.1-.4zm.3.6c.2.3.2.5 0 .8-.2-.2-.2-.5 0-.8zm.2 1.5c.3 0 .4.1.3.4-.1.2-.2.1-.3.1-.2-.2-.2-.3 0-.5zm.1 3.2c.1-.1.1-.1.2 0l.3.3c.2.4-.1.3-.4.3-.2-.2-.1-.4-.1-.6zm.7 1.1c.3.1.3.2.2.4-.2.2-.4.1-.6.1 0-.4.3-.4.4-.5zm-.2 1.2c.3-.2.6-.1.8-.2.1.3.1.4 0 .5-.2 0-.3-.1-.4-.3-.3.1-.1.4-.3.5-.2-.2-.1-.4-.1-.5zm.3 2.5c.4.1.6.3.7.9-.7-.1-.8-.4-.7-.9zm.3 1.2c.1 0 .1.1.1.2.1-.1.2 0 .2.1l-.1.1c-.1 0-.1-.1-.1-.2-.1 0-.2-.1-.1-.2zm-.2-16.9c.2.2.2.3.3.4 0 .1-.1.2-.2.3-.3.3.3.3.1.6-.4.1-.5-.5-.9-.5-.1.3-.2.3-.4 0 .1-.3.3-.1.6-.2 0-.2.2-.1.3-.2.1-.3 0-.6-.3-.9.5.1.9-.2 1.3-.3l-.8.8zm-1.3.4c.1-.4.2-.6.3-.8.3 0 .3 0 .4.2 0 .3-.2.5-.7.6zm.3 1.7-.1-.3v-.2c0-.1 0-.2.1-.2h.3c0 .1 0 .3.1.5-.2.6-.3.7-.4.7l-.3-.3.3-.2zm-2.7 14.2v.4c-.1-.1-.1-.2-.2-.4h.2zm-.8-2c.1.3.1.6.1.8l-.1.4.4.2c.1 0 .1.1.2.1v.4c-.1.1-.3 0-.4.1.1.4.1.4.4.7-.1.3-.6.1-.5.5.2.3.5 0 .7.2v.6c-.3-.1-.1-.4-.3-.4-.2 0-.5-.2-.6.2.1.1.2.1.2.1v.3s.1 0 .2.1l-.1.1c.1.3.2.6.2.9.2 0 .2-.1.4-.2v-.3c0-.1.1-.1.1-.1.2.5.7.6 1 1 .1.3.1.8.1 1.6-.2-.2 0-.6-.3-.8v1.1c.1 0 .2-.1.3-.1v.1l.2.2c.2.3.3.6.2.9-.2 0-.3-.2-.4-.4v.1c-.3.3-.4-.3-.7 0 0 .2-.1.4.2.4s.3.2.3.4c.1.2.4 0 .6.2 0-.1 0-.1.1-.2.2.4.2.7 0 1.1-.1-.2-.1-.4-.1-.5-.2.2-.5.3-.9.4.4.2.8.1 1.2.2v.1c-.1.1-.1.2-.2.3.3.1.3.6.5.8-.1.2-.4.2-.4 0 .1-.2-.2-.3-.2-.6 0 .1-.1.1-.2.2.4.6.4 1.3 1 1.8v.2c-.3-.2-.5 0-.9-.1-.3-.3-.6-.6-.9-1-.1.2-.1.4-.2.5-.2 0-.3-.2-.4-.3l.1-1c-.3-.1-.4 0-.5.2-.4-.5-.8-.9-.8-1.6.1 0 .3-.1.5-.2-.1-.3-.2-.3-.4-.4v-.6c.2-.2.2.3.5.2.1-.3.3-.6.4-.8-.1-.3-.2-.3-.4-.2-.1.1-.1.3-.2.4-.1 0-.2-.1-.2-.1v-3c-.1 0-.2.1-.2.2v.6c-.2.2-.4.1-.5.1v.3c.1.2.3.1.4.2.1.3 0 .6 0 .9-.2-.2-.2-.6-.5-.7-.3.3-.6.6-.7 1-.5 0-.5-.5-.9-.6.3-.3.6-.1.9-.2.1-.3.2-.6.3-.8-.2-.3-.3-.2-.4-.2-.2.1 0 .4-.2.5h-.2c-.2-.3.4-.5.1-.7-.4-.2-.5.2-.7.3.1.1.3.2.2.5-.1.1-.1.1-.2 0-.2-.2-.4-.4-.3-.6.2-.4-.1-.7 0-1 .1-.3.2-.6.3-1 .3.1.7-.3.9.2.3 0 .5 0 .6.1-.1-.5.4-.6.5-1-.3 0-.6-.2-.8.3-.4-.2-.7-.4-1.2-.4.4-.3.3-.6.3-.9-.3.1-.4.5-.7.5-.2-.1-.4-.1-.6 0-.1.2-.1.3.1.4.2.2.3-.1.5-.2 0 .5-.5.9-.6 1.5-.1-.3-.3-.2-.5-.3.2 0 .4-.2.4-.4-.1-.1-.2-.1-.4 0v.4c-.1 0-.1-.1-.1-.2-.4-.2-.3-.7-.7-.8V62c-.1-.1-.3-.3-.5-.4.3-.2.5-.4.1-.7.3-.1 0-.8.6-.6.3-.4-.2-.5-.1-.8 0-.1-.1-.4.2-.4 0-.6 0-1.2.2-1.9-.4.2-.9.4-1.3.6-.1-.1-.2-.2-.3-.2-.3.2-.2.3-.2.4.1.3.5 0 .6.2.2.4.4-.1.6.1-.1.4-.3.8-.2 1.3-.4 0-.2-.7-.7-.4-.1.3-.1.6 0 .9.1-.1.2-.1.3-.2.1.5.1.5-.4.9-.5-.1-.1-.5-.3-.7-.1-.1-.3-.2-.4-.4h.1c.2 0 .1-.2 0-.4 0 .1-.1.3-.1.4v-.1c-.3 0-.5-.2-.7-.4.2-.1.5-.2.7-.5-.3-.2-.5-.2-.8.1-.1-.3-.3-.5-.6-.6 0-.4.2-.5.5-.6-.1-.5-.5-.1-.9-.3-.1-.2-.3-.4-.5-.6.4-.4.7-.8 1-1.2-.4-.4-.6.3-1 .1v.7c-.2-.4-.2-.4 0-.7v-.4c.3 0 .5.1.6-.1 0-.2 0-.3-.2-.4-.2 0-.3.2-.5.3-.1-.2-.2-.5 0-.8.4-.2.3-.9.6-1.3-.1-.1-.2-.3-.3-.4.5-.6.2-1.3.3-1.9.5 0 .7.5 1.1.4.3-.2.1-.4.2-.6-.3 0-.4.3-.7.1-.2-.1-.1-.3-.1-.4-.1.1-.2 0-.2-.1l.1-.1c.1 0 .1.1.1.2.2.1.2-.2.4-.2 0 .1.1.1.2.2.3.1.4-.2.6-.3-.1 0-.1-.1-.2-.1-.5-.1-.9.2-1.2-.1.2-.2-.1-.5 0-.8.1-.3.4-.4.4-.5-.1-.3-.4-.3-.4-.6h-.1c.5 0 .1-.7.5-.6.1-.3-.1-.3-.2-.5.1-.3.4-.6.3-1-.1 0-.2-.1-.2-.2 0-.3.2-.5.3-.7 0-.3-.2-.3-.4-.3-.2-.4 0-.8.2-1 .1.2.1.5.1.7.2.3.9-.2.9.5-.2.2-.4.6-.9.6v.4c.4-.3.8-.2 1.6-.2.1-.1.2-.1.3 0 .2.2.1.5.1.7 0 .1 0 .2.2.2 0 .1-.1.1-.2.1 0 .5-.6 0-.7.4v.2c.3.2.6 0 .9.1.1.2 0 .2-.1.3-.2.3-.6 0-1 .3.3.2 0 .8.6.8.3-.2 0-.2 0-.4.1-.1.2-.3.5-.3s.6.1.7-.3l.4.4c-.1.2-.2.1-.4.2-.2.3-.1.6-.1.9h.1c-.4.1-.5.3-.5.7h.5V49c.1 0 .2-.1.3-.2.4.3-.1.5-.1.7v.7c.5-.2.8 0 1.2.1-.3.4-.8-.2-1 .4-.3 0-.2.2-.2.4-.1.4.1.8-.3 1.2.4.5.2 1 .3 1.6-.2.1-.3-.2-.6-.1-.1.3-.3.6-.6.8l.2.2.6-.6c.5 0 .5.3.8.2.1-.1.1-.3.1-.4.3-.1.3.3.5.2h.5v-.5h.3c.3-.1.1-.4.3-.5.2.3.1.7.1 1-.2 0-.2-.1-.3-.2-.2 0-.2.2-.4.2.1.3.2.4.5.5 0-.1 0-.2.2-.2 0-.1 0-.2.1-.3.1 0 .1.1.1.2s-.1.1-.2.1c0 .1-.1.2.3.5 0 .2-.1.5.3.5.1 0 .2.1.2.2.2.1.3.2.5.3l.3-.3.2.2v.3c-.3.1-.7.2-1 .4-.1.4.2.4.4.4v-.6h.4v1.4h-.3c-.2.3-.3.4-.5.4-.1.2 0 .4.2.6-.1.1-.1.2-.2.3.1 0 .2.1.3.1h.1c-.1.1-.1.2-.2.3.1.2.3.3.4.4l.2-.2c0 .4.4.6.3 1 .1 0 .2-.1.2-.2.2-.5-.1-1-.2-1.5-.1 0-.1 0-.3.2.1.1 0 .2 0 0-.2.1-.2-.1 0-.2 0-.2.1-.3.1-.5h.1c.2-.1.5 0 .7.4v.5h.1v.2zm-2.3 9.5c-.3-.2-.7-.2-.9-.6-.2 0-.3.3-.7.1-.3 0-.2-.6-.6-.8l-.3.3c.1.4.8.5.7 1.1-.8-.5-1.7-.8-2.6-1 .1-1.4-1-1.6-2-1.8-.4 0-.7-.2-1.1-.3 0-1-.7-1.2-1.3-1.4-.6-.2-1.2-.6-1.8-.8v-.7c-.2-.5-1.4-1.3-2.4-1.5-.2-.3-.4-.6-.6-1h.4c0-.3-.3-.2-.5-.2v.1c-.2 0-.5.2-.5-.2-.2 0-.6.3-.4 0-.4.2-.5-.3-.9-.2-.2-.6-.4-1.2-1.1-1.4-.1-.1-.2-.2-.2-.3-.6-.1-.8-.2-1.4-.6v-.4c-.7-1-1.8-1.2-2.6-1.9-.3-.9-.5-1.8-1.5-2.2-.2-.1-.3-.2-.3-.4-.4.1-.7-.1-.7-.4 0-.6-.3-1-.5-1.5h-.2c-.5-.3-1-.7-1.6-1 0-.4.5-.7.4-1.2-.6-.9-1.5-1.3-2.2-2 0-.4.1-.6.2-.8 0 .1 0 .3.2.5.1-.1.1-.2.1-.3 0-.1 0-.2-.1-.3h.1v-.5h-.5c0 .2.1.3-.1.5-.7-.2-1-1.1-1.8-1.2 0-1.1 0-2.1-1-2.8.1-1 0-2-.9-2.6-.2-.5-.1-.8.1-1.1l.1.1c0 .2-.1.4-.2.7.3.1.4.4.7.5 0-.1.1-.2 0-.3-.2-.3-.2-.5-.3-.8.3.1.7.1 1 .3.2 0 0 .3.3.4.6-.3 1.1-.5 1.8-.1h.2c-.2.2-.1.4 0 .5.1 0 .2 0 .3-.1 0-.2 0-.3-.1-.3.2 0 .4 0 .4-.1.4-.4 1.1-.1 1.6-.4.3-.2 1-.2 1.4.3.1-.3.1-.4.2-.6.5.1 1-.2 1.5.2.1-.1.2-.3.5-.2.3.3.5.7.8 1.1-.2.1-.3.1-.6.2.5.2.7.1.6-.1.4.6.7 1.3.8 2 .4.1.7.3.8.6.1.3.2.5.4.7l.2.2c-.9.1-1.6.7-2.5.8-.2-.2-.1-.6-.5-.7-.2.2-.1.4-.1.6-1.5.6-3 .3-4.7.4.5.3.9.2 1.2.2h1.2c.4 0 .9-.1 1.3 0 .4 0 .7-.3 1.1-.3s.9.2 1.2 0c.4-.3.7.3 1 0 .1-.1.1-.3.2-.4h1.3c.7 1.1 1.3 2.2 1.9 3.2 0 .1 0 .1.1.1.1.2.2.4.4.5.1.2-.1.3-.2.4.2.3.5 0 .7.2.2.3.3.5.5.8l-.1.1c-.4 0-.8.5-1.2 0-.3.9-1.2.5-1.6 1l-.3-.3-.4.4c-1 .3-2-.3-3-.2l.2-.2h-.9c.1.1-.1.4.2.4.2.1.3 0 .4-.1.8.4.9.4 1.5.4 1.3.1 2.4-.2 3.6-.6.6-.2 1.3-.2 2-.4.2.3.4.5.6.8H49c.1.1.2.4.4.4.3.4.6.8.8 1.3-.1.3 0 .4.2.4 0 .1.1.2.1.3.6.2.6.8 1 1.2-.1 0-.1.1-.2.1.2.2.3.2.4.1.1.2 0 .3.1.5-.3.2-.6 0-.8.1h-.1c-.1 0-.2-.1-.2-.1-.1.1-.1.2 0 .3h-.3c-.2.1-1.4.5-1.6.5-.3 0-.6 0-1 .1-.2.1-.6-.1-1-.1h-.7c-.1-.1-.2-.1-.3 0h-.1s-.1 0-.1.1h.1c.1.2.3.1.5.1.3 0 .6 0 .8.3.1.2-.1.2-.1.4s.2.3.5.3c.3-.3.1-.4-.1-.6.9-.2 1.7-.5 2.6-.3.2.1 0 .3.3.4h.2c.3-.2.1-.4-.1-.6l2.1-.6c.4.3-.3.5 0 .9.2-.2.4-.3.6-.5.4.9 1.4 1.4 1.6 2.5.6.3 1 .8 1.6 1.7-.4 0-.8.2-1.1.3-.2-.2 0-.5-.2-.7-.4.1-.3.7-.7.9h-.5c.1-.2.2-.3-.1-.4-.2.2-.2.3-.1.4h-3.2l-.4-.4h-.8c-.2.2 0 .2.1.3.2.3.7.1 1 .4 1-.1 1.9.4 2.8.3 1-.1 1.9-.4 2.9-.5.3.2 0 .5.2.7.5.2.5-.2.8-.4l.6.6c-.1.2-.2.3-.4.5.3.2.6 0 .9.2.3.5.6 1.1 1.1 1.5-.3.3-.8 0-1.1.2-.4.3-.9.2-1.2.1-.4-.2-.7 0-1 0h-1.2c-.2-.2-.5-.2-.7-.3.3.4-.3.8 0 1.2H55c-.1-.5-.6-.1-.6-.3v-.4h.4c.4.1.8-.1 1.1.1.5.4.9.1 1.3 0 .5-.1 1.1 0 1.6 0l.5.5.3-.3c.8.6 1.2 1.6 2 2.3-.1.2-.3.1-.6.1l-.3-.6c-.4.2-.2.5-.3.7-.2.2-.5.1-.7.1 0 .2.1.2.3.2h1.7c.9.6 1.3 1.7 2.2 2.4h-1.2zM30 35.2c0-.3.3-.3.3-.6 0-.2-.2-.4.1-.6.3.2 0 .6.3.9.2-.7-.1-1.2-.4-1.8-.3-.6-.6-1.1-1.2-1.4.1-.6.6-1 .5-1.6 0-.4-.4-.6-.3-1 0-.3.1-.6-.1-.9-.2.1-.1.4-.3.5l-.6-1.5c0-.2.2-.3.4-.5.2-1.2-.1-2.3-.8-3.4.7-.9-.1-1.7-.1-2.6.5.1.7.6 1.2.5-.2.2-.2.2-.6.3v2.2c0 .1.1.2.2.2 0 .2 0 .4.2.4 0-.2.2-.5-.2-.5v-1.3c.2-.3.3-.4.3-.5.4 0 .4.2.6.3 0 .1-.1.2-.2.4.6-.1 1 .3 1.6 0 .3-.1.6-.2.7.2.3-.1.6-.5.9-.3.2.1.1.3.2.4.1.1.3.1.4.2.2.1 0 .4.2.6.2-.1.1-.3.2-.4.5.1.7.5.9.9.3-.1.6-.5 1-.5.2.1.2.3.2.4-.2.1-.3.2-.6.3.2.1.4.3.6.4-.3.3-.4 0-.6-.1l-.4.4c.4.2.7.1 1.1.1.2-.4.3-.8.6-1 .5.3-.2.3 0 .6.1.2 0 .4 0 .5-.1.3-.4 0-.5.4v1.6c-.2.1-.6 0-.6.4-.2-.3-.4-.4-.4-.6-.1.1-.2 0-.2-.1l.1-.1c.1 0 .1.1.1.2h.4c.2-.2.1-.5.1-.7-.6-.2-1.3.2-1.9-.3v.4c-.4-.1-.7-.4-1.1 0-.3.3-.7-.3-1.1-.2 0 .3.4.3.1.8.7-.4 1.2-.4.7 0h1.3c.9.7 1.6 1.6 2.4 2.7 0 0-.3.1-.3.3.2.2.4.1.6.1.4.4.6.9.6 1.4.2.1.4.2.5.2v.3c-.1 0-.1.1-.2.1h-2.6c-.3 0-.5.1-.8.3-.3-.4-.7-.3-1.1-.3-.1-.3-.2-.5-.4-.7-.2.1-.1.2-.2.4-.3.2-.6.1-.9.1.6.6 1.3.7 2.1.7h3c.2.1.2.3.2.4.1 0 .1 0 .2.1-.2.1-.3.2-.5.2.5.2.7.1.6-.2.1 0 .1 0 .2-.1-.1-.1-.1-.2-.2-.3.1-.1.2-.1.3-.1.3.1.4.4.5.7.2 0 .3-.3.5-.2.3.3.3.8.6 1.1-.1 0-.1.1-.2.2h.1l-.1.1c.2.2.3.2.4.1.5.4.6.9.6 1.5.5.2.8.6 1.2 1v.1l.1.1c.1.1.3.3.5.4-.8.2-1.3 0-1.9.1.1.1 0 .2-.1.2l-.1-.1c0-.1.1-.1.2-.1 0-.2-.2-.2-.3-.2-.3.1-.2.5-.5.6-.1 0-.1.1-.2.1-.3.1-.7-.1-1.1.2-.3.2-.9 0-1.2-.4-.1.3-.1.5-.2.7-.5-.4-1-.2-1.6-.3-.7-.1-1.4-.4-2-.8 0-.1.1-.3.2-.4-.1 0-.2-.1-.3-.2 0-.3-.2-.4-.5-.5.1.2 0 .5.1.7.1.2.2.3.2.5h-.1c-.4-1-.9-1.9-1.6-2.8zm-.8-14.1c.6-.5.6-.5 1.4.2-.5.4-.9 0-1.4-.2zm1.3 1.2c-.4.2-.5-.1-.7-.3.2-.1.3-.2.4-.4.1.3.5.4.3.7zm.6-.9.1.5c-.1.1-.2.1-.4.2-.3-.4.3-.5.3-.7zm1 1h-.2c-.2-.1-.2-.3-.1-.4.1-.2.2-.1.3-.1.2.2.2.3 0 .5zm.7-1c.2.1.3.2.5.3-.2 0-.3.1-.5.2l-.3-.3c.1 0 .2-.1.3-.2zm1.8 1.3c-.1.1-.2.3-.3.4-.3-.3-.2-.5-.2-.8.1.1.2.1.3.2l.2.2zm-.6-.4s-.1 0 0 0c-.1-.1 0-.1 0 0zm-.2-.2c-.1.1-.2.2-.4.2.1.1 0 .2-.1.2l-.1-.1c0-.1.1-.1.2-.1v-.4c.1.1.3.2.4.2zm4.7 1.8L37.4 25c.2.4 0 .6.2.8 0 .1.1.1.2.1.1-.3.3-.7.5-1 .2.2.4.6.8.6-.1.2-.4 0-.5.4 0 .1.2.2.4.4l.5-.5c.5.1 1 .3 1.5.4.1 0 .1-.1.2-.2.2.1.3.3.4.4-.1.5-.4.2-.6.3-.2.1 0 .3-.1.5 0 .1-.1.2-.2.3.1.2.2.1.3.1.3-.1.3-.5.5-.7.2-.1.3.1.4.2.1 0 .2-.1.3-.2.3.3.5.6.8.9-.2.2-.3.5-.1.8.4.6.3 1.3.6 1.9.1.2.1.6-.1.8-.1-.1-.2-.1-.3-.2-.2.3 0 .6-.1 1 .3-.1.4-.1.5-.2v2.9c-.1-.2-.2-.2-.3-.3-.2.1-.2.2-.2.2.1.4.4.1.5.5 0 .4-.1.8-.2 1.2-.3-.2-.4-.3-.5-.3-.1.3-.1.3.5.3-.2.8-.5 1.7-.4 2.6-.2-.3-.4-.6-.7-.8.2-.1.3-.1.5-.2v-.3c-.2-.2-.2-.2-.6.1-.1-.1-.1-.2-.2-.4-.1-.1-.3-.1-.5-.1-.2-.2-.1-.4-.1-.5-.6-.3-.6-.8-.7-1.3.2-.3.8-.2.7-.8-.4-.3-.5.3-.8.4 0-.1-.1-.1-.2-.2 0 .1-.1.1-.2.2l-.4-.4c.2-.1.3-.2.4-.3.8-.4.8-.3 1-1 .2 0 .2.2.4.2.1-.3-.2-.6-.3-.9-.3.1-.3.1-.8 1.4-.4 0-.5-.4-.8-.6.3-.1.6-.1.7-.5 0-.4-.5-.4-.7-.6 0-.4.4-.5.5-.8 0-.3-.4-.6-.2-1 .1-.2.3-.1.4-.1-.1-.3-.4-.3-.5-.6l.3-.3.2.2c.2.1.2-.3.6-.1.4.5.7 1.4 1.6 1.4.1-.2.1-.3 0-.5H42c-.1-.4-.3-.5-.6-.6v-.5c-.1-.4-.7.1-.7-.4-.3 0-.5 0-.6.3-.2-.2-.3-.5-.6-.5-.3.4-.7.6-1.1.9-.2-.2-.4-.2-.6-.3-.1-.2-.1-.4-.1-.6-.3.1-.5.3-.9.1.3-.3.2-.8.2-1.2.2-.2.5-.1.6-.4.1.3.2.5.3.7-.1.2-.4 0-.6.2v.2c.1.3.4.1.6.1.4-.1.3-.6.6-.8-.1-.2-.5 0-.5-.4 0-.3-.3-.5-.7-.4-.1.4-.4.4-.7.6l.3.3c-.2.3-.3.7-.3 1.1l-.4-.4c-.1-.4.3-.4.2-.7 0-.4-.3-.1-.4-.3 0-.2-.3-.5.2-.6.1-.4-.3-.6-.2-1 .1.1.2.1.3.2.2-.1.3-.2.4-.3-.1-.4-.4-.6-.2-1 .2-.2.5-.1.7-.1l-.1.1h.2s0 .1-.1.1c.2 0 .2-.1.2-.2h-.1c.1-.1.1-.2.3-.2-.1-.1-.1-.2-.2-.3.4-.2.7-.5 1.1-.4zm.4.8c.2-.1.3-.3.4-.4.5.2 1 .4 1.2.9-.3.1-.6.1-.8-.2s-.6-.1-.8-.3zm-.2 7.9c.2-.1.2 0 .2.1.3.1.6.2.4.7-.3-.2-.5-.4-.4-.7-.1 0-.2-.1-.2-.1zm-.1-.7c-.1-.2-.2-.4.1-.4.1 0 .2-.1.3-.2.5.2.5.4.5.6-.3.1-.6 0-.9 0zm.5-.6h.3-.3zm-.1-.4v.4c-.4 0-.7 0-.9-.1.3-.1.5-.2.7-.3-.7-.4-1.2-.4-1.7-1.1.6.3 1.2.2 1.7.5.2-.1.3-.2.5-.4.2.1.4.2.4.4 0 .4-.4.4-.7.6zm-2.1-1.5c0 .1-.1.1-.2 0 .1-.1.2-.1.2 0zm.3-5.1c.3 0 .2.2 0 .5v-.5c-.2 0-.2-.2-.4-.3.1-.3.3-.4.2-.7.2.1.1.5.4.6 0 .2-.2.2-.2.4zm-.7-.9c-.2.2-.4.2-.5-.1h-1.2c.5-.2.9-.7 1.5-.7.2.2.5.4.6.7-.1 0-.2-.1-.4.1zm-.5.5c0 .1-.1.1-.2 0 .1-.1.1-.1.2 0zm10.5 20c.1.1.1.2 0 .2s-.1-.1 0-.2zm5.7 7.4c-.2 0-.4.1-.6.3 0-.4-.5-.5-.3-1 .3.3.5.2.8.2 0 .2 0 .3.1.5-.1 0-.1 0 0 0zm2.6 4.9c.1 0 .1.1 0 .2-.1-.1-.1-.2 0-.2zm8.6 11.9c-.1-.3.3-.3.2-.5 0-.1-.1-.3.1-.4h.5c.2.2.1.4.1.6-.3-.1-.5.5-.9.3zM57 42c.1.3.3.5.6.6.1.3.1.6 0 .9-.2-.1-.3-.2-.5-.2l.1-.1c0-.2.1-.3.2-.4-.3-.3-.4-.1-.6.1-.2-.1-.4-.2-.4-.5.1-.3.5-.1.6-.4zm-.8-.3c-.1-.2 0-.4 0-.6.2-.1.4-.2.5.3-.2.1-.3.2-.5.3zm1.7-.4c.6.2.4.7.6 1.1.2.3 0 .9.3 1.2.2.2.5.2.7.6-.4 0-.8.2-1.1-.2l-.2.2c-.1-.1-.1-.3-.1-.4.2-.4.4-.8.2-1.2-.6-.1-.5-.8-1-1-.2-.2-.3-.3-.4-.3 0-.1.1-.2.1-.2-.1-.4-.2-.9-.3-1.4h.2c.1 0 .2.1.2.1 0 .6.5 1.1.2 1.8.3 0 .5-.1.6-.3zm1.9 4c.2 0 .3.1.1.3-.3-.1-.1-.3-.2-.6-.2 0-.3-.2-.1-.3.3.1.1.3.2.6zm1.6 3.4c-.1.1-.2.1-.4 0v-1c-.4-.2-.5-.8-1-.6 0 .1 0 .1-.1.2l-.1-.1c0-.1.1-.1.2-.1v-.6c0-.1-.2-.2-.3-.6.7.5.9 1.2 1.5 1.3.1.5-.2 1 .2 1.5zm.6 1.1c.4.1.4.6.7.9.1.3 0 .6.1 1v.1c0 .2.1.4.2.5-.2.4-.5.2-.7.2-.2-.2.1-.7-.3-.8.2-.2.2-.4.2-.6.1 0 .1 0 .1-.1l-.1-.1c-.1 0-.1.1-.1.2-.2-.1-.2-.3-.4-.3-.1-.4.4-.6.3-1-.3.1-.6.3-.6-.1h-.3c-.2-.2-.1-.4-.1-.6.1-.1.2-.1.4 0v.6c.2 0 .5-.1.6.1zm.7 3.5c.1-.1.5.1.6-.4V55c-.2.1-.4 0-.4 0 .6-.6-.1-1.1-.2-1.7zm-1 .4c-.1 0-.2-.1-.3-.2-.3.1-.6.4-.9.1v-.2c.1-.3.4-.1.5-.3v-.3c.1 0 .2 0 .3-.1.1-.1.1-.3 0-.4-.2.1-.3.2-.4.4-.1 0-.2.2-.3.2-.4-.3.2-.5.2-.8s-.5-.4-.2-.8c0 0 .2-.1.3-.1.2-.1 0-.4.2-.6.3.1 0 .4.2.6.1.1.2.1.4.2 0 .5.1 1 .5 1.4-.1.2-.3.1-.4.2-.2.2-.1.5-.1.7zm-1.3-3c.1-.1.2 0 .2.1l-.1.1c-.1 0-.1-.1-.1-.2zm-1.5-5.8c-.1-.1-.1-.2 0-.2s.1.1 0 .2zm-.4-.1c0 .1-.1.1-.2 0 0-.1.1-.1.2 0zm-4.8-8.9c-.1.2-.2.3-.3.4-.2-.2-.1-.4-.2-.7-.1-.1-.3-.3-.5-.6.8-.1.7.6 1 .9zm.2.3c.2-.1.3.2.6.2.4 0 .6.3.6.7-.6-.1-1.1-.2-1.6-.7.2 0 .3 0 .4-.2zm16.2 53.7c-.2 0-.2 0-.2-.1l.1-.1c.1 0 .1.1.1.2.3 0 .5.1.7.4-.5.2-.6-.1-.7-.4zm1.2-39.7c.3.1.1.3.1.4-.2-.1-.2-.3-.1-.4z"/></svg>